<svg fill="none" height="660" viewBox="0 0 660 660" width="660" xmlns="http://www.w3.org/2000/svg" xmlns:xlink="http://www.w3.org/1999/xlink"><clipPath id="a"><path d="m0 0h660v660h-660z"/></clipPath><g clip-path="url(#a)" fill="#000"><path d="m606.208 166.1c-4.367 2.5-.1 11.2 4.366 8.8 2.482-1.4 2.482-7.5-.099-8.9-2.283-1.2-2.183-1.2-4.267.1z"/><path clip-rule="evenodd" d="m276.258 0c-.808-.135846-1.662-.138885-2.423 0zm-42.428 0h40.005c-1.091.199161-1.991.690167-2.292 1.4999-.596 1.8.794 6 2.283 7 3.176 1.9 6.848-2.4 5.557-6.5-.339-1.068324-1.657-1.753167-3.125-1.9999h39.832c-3.964.00580254-4.457.322701-5.046 2.69991-.894 3.2.496 5.5 3.97 6.8 4.565 1.59999 8.237-2.5 6.451-7.3-.689-1.785106-1.574-2.19328041-5.17-2.19991h209.314c-2.178.00161885-3.564.601348-3.961 1.59999-.992 2.5.397 6.3 2.581 7 2.977.9 6.252-2.7 5.359-6-.495-2.196357-1.189-2.59866587-3.956-2.59999h39.847c-3.145.00308395-3.836.408819-4.33 2.69998-.794 3.2.496 5.5 3.871 6.7 4.664 1.70002 8.932-4.7 5.458-8.2-.692-.697586-2.863-1.19654949-4.941-1.19998h82.781c-2.528.00901411-3.508.515244-4.098 2.19987-1.985 5.3 3.87 10.00003 7.84 6.3 2.184-2 2.581-5.5.794-7.3-.688-.693646-2.644-1.19091022-4.417-1.19987h11.563v660h-660v-343.2c0 4.6 5.95489 8.3 9.92481 6.2 2.87819-1.5 2.58049-6.5-.49624-9.5-2.87819-3-4.86316-3.1-7.44361-.5-1.091727 1.1-1.98496 2.8-1.98496 3.8v-208.5c0 2.4 3.07669 5.7 5.45865 5.7 2.38195 0 5.45865-3.3 5.45865-5.7 0-1.8-3.67219-5.3-5.45865-5.3-.79399 0-2.38196.9-3.47369 2-1.091727 1.1-1.98496 2.6-1.98496 3.3v-108.3h26.429c-1.5526.167455-2.891.669504-3.2049 1.49996-.8933 2.2.397 6.5 2.0842 7.2 4.2676 1.60004 8.5353-2.8 6.8481-7.1-.3233-.895919-1.733-1.426988-3.3442-1.59996h40.0244c-4.0296.00138615-4.3253.208198-4.3253 2.59999 0 3.9 1.7864 6.4 4.4661 6.4 2.9775 0 5.8557-4 4.9625-7-.4951-1.59611-1.4839-1.99804661-5.0357-1.99999h164.2118c-.919.0443753-1.735.2666-2.166.70003-1.488 1.4-.595 5.3 1.489 6.7 3.871 2.69997 7.047-.9 5.161-5.8-.347-.931302-2.105-1.5238071-3.77-1.60003zm0 0c-.241-.0110692-.481-.0112504-.714 0zm-164.9258 0-.026-.00000709-.0416.00000709zm-40.092 0c-.7807-.0838055-1.6086-.0835494-2.3832 0zm619.6248 0-.049-.00012308-.07.00012308zm-82.9 0-.021-.0000178-.037.0000178zm-39.905 0-.014-.00000329-.009.00000329zm-209.337 0-.09-.00008265-.115.00008265zm-65.991 112.7c-2.184-2.8-2.283-5.6-.298-7.6 2.58-2.6 5.459-2.7 8.039-.1 2.382 2.4 2.481 3.8.397 6.8-1.687 2.4-6.451 3-8.138.9zm20.643-28.7c-2.58 2.6-2.481 4.6.497 7.5 2.878 3 3.573 3 6.451.7 4.168-3.4 2.084-10.2-3.176-10.2-.993 0-2.68.9-3.772 2zm23.721 25.4c-2.382-2.1-2.382-5-.1-6.3 2.283-1.4 2.382-1.4 4.963.5 2.977 2.1 2.779 5.2-.397 6.5-2.084.7-3.077.6-4.466-.7zm-125.351-88.8c-.893.8-1.588 2.3-1.588 3.2 0 2.6 2.879 6.2 4.963 6.2 4.466 0 6.55-6.2 3.176-9.3-2.283-2.1-4.566-2.2-6.551-.1zm-20.941-11.99999c-2.581-.7-3.97-3.6-2.977-6.6.496-1.599993 1.488-1.99999344 5.458-1.99999344s4.963.40000044 5.459 1.99999344c1.29 4.2-3.077 7.8-7.94 6.6zm-21.239 13.59989c-1.092 2.9.794 6.2 3.771 6.6 1.588.3 2.481-.5 3.474-3 1.687-4 .595-5.8-3.573-5.8-1.985 0-3.077.6-3.672 2.2zm-17.865-11.0999c-2.977-1.59999-4.267-4.69999-3.573-8.19999.695-2.89999879.794-2.9999988 5.757-2.699999l5.161.3v3.899999c0 3-.596 4.3-2.581 5.79999-2.084 1.6-3.077 1.8-4.764.9zm-24.7125 10.1c-2.2827 2.8-1.7865 7.4.8932 8.8 5.1609 2.9 10.6196-2.6 7.4436-7.5-1.7864-2.7-6.5503-3.5-8.3368-1.3zm-38.7069-.6001c-2.5804 1.8-2.8782 5.6-.5955 7.8 1.8858 1.9 2.4812 2 4.5655.3 4.7639-3.6.7939-11.5-3.97-8.1zm-40.89017-.7999c-3.77143 1.3-4.069178 6.5-.49624 8.8 2.38195 1.6 2.6797 1.6 4.56541-.2 3.5729-3.3.29774-10.2-4.06917-8.6zm189.26657-10.3999c-4.566 1.7-8.437-2-7.246-6.7.596-2.4 1.092-2.7000003 5.062-2.7000003 3.871 0 4.466.3000003 5.062 2.4000003.893 3.9.099 6-2.878 7zm15.185 11.6c-2.68 2.7-2.581 6.5.198 8.4 2.878 2.1 5.062 2 7.047-.2 2.382-2.7 2.084-5.8-.894-8.1-3.275-2.6-3.87-2.6-6.351-.1zm42.378-.3001c-1.587 1.5-.694 7.2 1.191 8.3 3.871 2 6.849-1.5 5.658-6.6-.497-1.8-1.291-2.4-3.474-2.4-1.489 0-3.077.3-3.375.7zm42.181-.5c-2.878 2.9-.596 9.8 3.275 9.8 4.069 0 6.054-6.3 2.878-9.4-1.786-1.9-4.466-2.1-6.153-.4zm39.699.4c-4.466 3.1-1.687 10.4 4.069 10.4 5.955 0 6.848-8.8 1.191-11-.319-.1208-.601-.2305-.851-.3281l-.003-.0012-.002-.0007c-1.009-.3931-1.514-.5896-1.986-.5294s-.913.3774-1.793 1.012c-.187.1346-.394.2836-.625.4474zm19.85-12.79997c-1.29-1.3-1.588-6-.496-7.1.297-.4 2.779-.69999971 5.458-.69999971 4.566 0 4.764.10000071 4.764 2.89999971 0 4.8-6.55 8.09997-9.726 4.9zm41.089-6.20004c-1.688 4.3.694 8.4 4.763 8.4 4.268 0 7.246-5.9 4.367-8.8-1.786-1.799997-8.436-1.499997-9.13.4zm-17.567 26.80001c-1.787-1.7-2.581-6.4-1.191-7.7 1.29-1.3 6.054-.7 6.649.9 2.084 5.5-1.687 10.2-5.458 6.8zm40.294-7.7002c-1.885 1.8-1.389 7.1001.794 8.5001 3.871 2.5 8.436-1.9001 6.749-6.4001-1.489-3.9-4.863-4.8-7.543-2.1zm20.445-11.69974c-2.481-1.3-3.175-3.5-2.084-6.5.794-2.100002 1.588-2.5000015 4.963-2.5000015 3.275 0 4.168.3999995 5.161 2.5000015 2.183 4.9-3.176 9.20004-8.04 6.5zm21.339 11.59994c-3.077 3.1-1.191 9.4 2.779 9.4 4.367 0 6.252-4.8 3.473-8.4-2.282-3-4.069-3.3-6.252-1zm23.819-11.60001c-3.076 0-4.565-1.9-4.565-5.8 0-1.50678 0-2.325563.406-2.741932.484-.4955197 1.543-.4210848 3.862-.258065 3.771.3 4.168.6 4.466 3.099997.397 3.4-1.29 5.7-4.169 5.7zm15.88 12.60001c-2.183 2.1-1.985 5 .397 7.4 2.184 2.2 5.955 2.6 7.741.8.695-.7 1.191-2.6 1.191-4.3s-.496-3.6-1.191-4.3c-1.687-1.7-6.351-1.5-8.138.4zm45.853-1.5001c-2.184 1.2-2.283 4.2-.298 5.9 3.176 2.6 8.039-1.3 5.856-4.8-1.39-2.1-3.276-2.5-5.558-1.1zm40.493.5001c-2.978 3-.993 9.4 2.878 9.4 1.588 0 4.466-3.8 4.466-5.7 0-1.5-3.573-5.3-4.863-5.3-.496 0-1.687.7-2.481 1.6zm21.735-12.40012c-1.985-.9-2.481-1.9-2.481-4.7 0-3.599997.099-3.599998 3.771-3.299998 3.276.3 3.673.6 3.97 3.399998.397 4.1-1.885 6.1-5.26 4.6zm17.369 12.80012c-5.161 5.2 1.786 11.4 7.741 6.7 1.886-1.5 1.489-6.5-.695-7.7-2.878-1.5-4.863-1.2-7.046 1zm-20.644 21.2001c-1.985 2-1.389 6.6 1.092 8.2 4.962 3.3 10.421-2.1 7.146-7-1.688-2.6-6.154-3.3-8.238-1.2zm44.959 8.1998c-2.679-1.1-3.771-5.3-1.984-8 1.786-2.8 3.175-3 5.657-.7 2.183 2 2.282 5.6.198 7.7l-.167.1687c-.81.8176-1.208 1.219-1.669 1.3183-.445.0957-.95-.0893-1.94-.4525zm-84.559-9.3c-2.382.9-3.871 4.8-2.878 7.4.794 2.3 5.26 3.7 7.642 2.5 5.657-3.1 1.29-12.2-4.764-9.9zm-15.88 26.9001c-2.878 0-4.664-1.6-3.87-3.5.397-1 1.191-1.5 2.183-1.1.893.3 1.985.6 2.481.6.497 0 .894.9.894 2 0 1.2-.695 2-1.688 2zm35.63-5.4001c-2.381 1.7-2.977 6.2-.992 8.2 1.29 1.3 5.657 1.6 7.444.4.595-.4 1.389-1.9 1.786-3.3.496-2.1.099-3.1-2.084-4.8-3.176-2.5-3.275-2.5-6.154-.5zm-21.239 28.7001c-2.481-2.2-2.282-5.9.397-7.7 2.879-2.1 3.97-2 6.551.4 2.58 2.5 2.779 4.7.496 7.2-1.985 2.2-5.062 2.3-7.444.1zm-20.941 13.5c-2.183 2.4-2.084 5.5.099 7.5 2.382 2.2 5.459 2.1 7.444-.1 2.084-2.3 2.084-4.1.099-7-1.786-2.7-5.459-2.9-7.642-.4zm20.346 28.8c-2.184-2.2-1.787-6.7.794-8.8 2.779-2.2 6.749-2.3 9.131-.1 2.183 2 2.382 8.5.297 10.3-1.885 1.5-8.138.7-10.222-1.4zm22.827-29.4c-2.58 2.6-.596 8.8 2.779 8.8 2.481 0 5.26-4.1 4.268-6.6-1.191-3.4-4.764-4.5-7.047-2.2zm28.087-11.1999c-3.97 3.3-9.825-2.7-7.543-7.7 1.39-3.1 4.466-2.9 6.948.3 2.481 3.1 2.679 5.7.595 7.4zm13.498-30.6c-.695.8-1.092 3-.893 4.8.198 2.6.794 3.4 2.58 3.6 3.077.5 5.161-1.5 5.161-4.9 0-4.1-4.466-6.4-6.848-3.5zm22.033 30.4c-4.962-.6-6.451-8-1.886-9.8 1.45-.6045 2.17-.9045 2.844-.8233.664.0801 1.284.5301 2.516 1.4233 2.481 1.8 2.977 6.5.794 8.3-.794.7-2.68 1.1-4.268.9zm-21.537 10.7999c-3.374 3.3-.794 11.1 3.176 9.7 3.176-1.1 4.169-2.5 4.169-5.9 0-4.8-4.268-7-7.345-3.8zm-22.43 29.9c-2.481-2.3-2.58-7-.198-8.4 2.977-1.8 6.054-1.2 7.741 1.4 3.374 5.2-3.077 11.1-7.543 7zm40.196-7.1c-3.474 5.3 3.374 11.5 7.84 7 3.375-3.3.695-9.4-4.168-9.4-1.191 0-2.878 1.1-3.672 2.4zm3.969 49c-2.679-1.1-3.771-5.3-1.984-8 1.786-2.8 3.175-3 5.657-.7 2.183 2 2.282 5.6.198 7.7l-.167.169c-.81.817-1.208 1.219-1.669 1.318-.445.096-.95-.089-1.94-.452zm-21.536-30.3c-2.482 1.4-2.382 7.5.099 8.9 2.481 1.3 2.68 1.3 4.466-.6.893-.8 1.588-2.6 1.588-3.9 0-2.2-2.283-5.5-3.771-5.5-.397 0-1.489.5-2.382 1.1zm-38.012 10.1c-5.161 2.3-9.826-4.6-5.856-8.6 2.283-2.4 6.054-2 7.94.9 1.985 3 1.092 6.2-2.084 7.7zm-45.555-9.3c-2.085 2.3-1.39 7.6.992 8.5 2.779 1.1 6.352-2 6.352-5.5 0-1.1-3.672-4.9-4.764-4.9-.496 0-1.687.9-2.58 1.9zm25.209 30.1c-4.764 2.6-10.322-4.4-6.848-8.6 1.687-2 6.252-1.7 8.336.6 2.085 2.4 1.39 6.5-1.488 8zm-26.599 11.6c-4.069 2.9-1.885 9.4 3.275 9.4 5.062 0 7.047-5.4 3.474-9-2.382-2.4-3.771-2.5-6.749-.4zm41.486 3.4c0-1.4.496-3.1 1.191-3.8 3.374-3.4 8.635 1.3 6.848 6.2-1.886 4.8-8.039 2.9-8.039-2.4zm42.875-3.8c-1.29 1.3-1.588 4.7-.595 7.2.397.9 1.786 1.6 3.374 1.6 2.878 0 3.97-1.5 3.97-5.4 0-2.6-1.687-4.6-3.97-4.6-.893 0-2.084.5-2.779 1.2zm-63.717 24.4c0-.8.695-2.2 1.588-3 3.87-3.9 8.932.6 6.55 5.9-2.084 4.6-8.138 2.4-8.138-2.9zm42.18-4.6c-5.161 2-5.657 7.5-.992 10.6 4.168 2.8 10.421-.2 10.421-5 0-4-5.459-7.3-9.429-5.6zm39.6 11.2c-3.176-2.2-2.084-8.6 1.787-10.2 1.29-.5 2.779-.9 3.473-.9 3.772-.2 5.757 7.3 2.68 10.3-1.588 1.7-6.054 2.1-7.94.8zm-18.857 11.2c-.992 2.5 0 6.9 1.886 8 3.672 2.3 7.642-4.3 4.565-8-1.488-1.8-5.756-1.8-6.451 0zm-33.645 9.6c-3.97 3.3-9.925-3.3-7.344-8.2 1.091-2.1 5.161-2.4 6.749-.5 1.985 2.5 2.382 7.2.595 8.7zm-49.326-8.5c-1.489 3.2.298 7.5 3.076 7.5 2.283 0 5.062-2.5 5.062-4.6 0-5.3-6.054-7.5-8.138-2.9zm24.713 28.9c-5.062 1.8-8.933-5-5.062-8.9 2.382-2.4 6.55-1.5 8.337 1.7 1.786 3.3.694 5.8-3.275 7.2zm38.508-8.8c-2.084 2.1-1.886 4.6.595 7.8 3.871 5 9.33 1.7 6.948-4.2-1.588-3.9-5.36-5.7-7.543-3.6zm43.074 8.4c-5.459 0-7.841-5.2-4.169-9.2.893-1 2.68-1.8 3.97-1.8 2.58 0 6.253 3.2 6.253 5.5 0 2.2-3.673 5.5-6.054 5.5zm-21.934 11.1c-2.581 1.4-2.382 7.5.198 8.9 3.176 1.7 6.154-.4 5.757-4.2-.397-3.7-3.474-6.1-5.955-4.7zm-37.318 6.9c-4.764 0-7.146-4.8-3.374-6.9 2.68-1.6 4.962-1.3 6.55 1.1 2.085 2.9.397 5.8-3.176 5.8zm-45.753-6.4c-2.481 1.8-2.68 5.6-.496 7.8 1.985 2.1 2.977 2 5.359-.4 2.184-2.2 2.382-3.3.993-5.9-1.39-2.7-3.474-3.2-5.856-1.5zm23.423 29.4c-4.764 0-6.452-5.6-2.482-8.4 3.077-2.2 4.665-2 5.955.9 1.588 3.5-.298 7.5-3.473 7.5zm36.027-7.1c-1.688 3.2-1.092 6 1.488 7.7 2.283 1.5 2.68 1.5 5.062 0 3.374-2.3 3.871-4.1 1.985-7.1-2.084-3.1-6.947-3.5-8.535-.6zm44.562 8.4c-4.069-1.1-5.359-5.5-2.58-9.1 1.191-1.5 4.168-1.6 6.748-.2 4.367 2.4.794 10.6-4.168 9.3zm-21.537 10.9c-1.29 1.3-1.588 4.7-.595 7.2.397.9 1.786 1.6 3.374 1.6 2.878 0 3.97-1.5 3.97-5.4 0-2.6-1.687-4.6-3.97-4.6-.893 0-2.084.5-2.779 1.2zm-41.982 9.2c-3.672-1.9-3.97-6.5-.695-8.8 2.879-2 2.978-2 6.154.5 3.275 2.6 3.275 5.2 0 7.8-2.382 1.9-2.779 1.9-5.459.5zm-39.898-7.7c-1.29 1.2-.694 4.1.993 4.7 2.084.8 4.764-1.7 3.97-3.8-.596-1.6-3.772-2.2-4.963-.9zm21.637 29.3c-5.161 0-7.345-6.5-3.276-9.4 2.978-2.1 4.367-2 6.749.4 3.573 3.6 1.588 9-3.473 9zm36.622-8.5c-1.985 3.1-.992 6.3 2.283 7.1 2.878.8 4.962-.2 6.947-3.2 1.092-1.7.993-2.3-.298-4.2-2.084-3.1-6.848-3-8.932.3zm40.99 5.4c-1.39-2.3-.1-6.4 2.481-7.7 2.679-1.2 5.756-.6 7.543 1.6 1.588 2.1 1.488 3.3-.397 6-1.191 1.8-2.382 2.2-5.062 2-1.985-.2-3.97-1-4.565-1.9zm-18.957 14.7c-2.58 2.5-1.985 7.2.893 8.6 5.459 2.5 10.024-3 6.253-7.7-2.183-2.9-4.863-3.2-7.146-.9zm-36.722 8.4c-3.87 0-6.153-6-3.374-8.8 3.374-3.4 8.635 1.3 6.848 6.2-.794 1.8-1.786 2.6-3.474 2.6zm-45.356-7.7c-1.389 3 .397 7.7 2.878 7.7 2.184 0 5.161-3 5.161-5.2 0-1.9-3.176-4.8-5.359-4.8-.894 0-2.085 1-2.68 2.3zm21.537 27.1c-1.886-1.8-2.084-5.5-.397-7.2 3.97-4 9.528 1.4 6.352 6.3-1.886 2.9-3.772 3.2-5.955.9zm43.173 2.6c2.282 0 5.855-3.4 5.855-5.5s-3.573-5.5-5.855-5.5c-1.092 0-2.68.7-3.474 1.6-3.275 3.2-.992 9.4 3.474 9.4zm35.63-6c.595-1.2 2.58-3 4.267-4 3.772-2.4 5.062-2.5 6.65-.5 1.687 2-.397 8.1-3.573 10.1-4.764 3.2-9.925-.8-7.344-5.6zm-102.027 16.6c-4.764 3.4-1.489 10.4 4.962 10.4 3.474 0 5.757-2.4 5.757-6 0-3.2-3.077-6-6.452-6-1.091 0-3.076.7-4.267 1.6zm44.066 7.8c-2.184-2.1-1.985-7 .198-8.3 2.184-1.3 2.482-1.3 4.367.1 2.779 2.2 3.077 5.5.894 7.7-2.482 2.5-3.474 2.6-5.459.5zm41.287-8.2c-1.588 1.6-1.489 6 .199 8.3 1.191 1.7 1.786 1.8 3.97.7 3.374-1.5 3.572-6.4.397-8.6-2.68-1.9-3.077-1.9-4.566-.4zm-66.695 27.8c0-1.9.894-3.6 2.68-5 3.474-2.7 8.635-2.4 9.032.5.397 3.3-3.375 8.5-6.154 8.5-4.069 0-5.558-1.1-5.558-4zm43.868-5.8c-2.084 2.1-1.389 6.6 1.191 8.3 4.962 3.3 10.322-2 7.146-7-1.787-2.7-6.253-3.4-8.337-1.3zm43.967 7.4c-1.985-1.5-2.283-5.9-.496-8.1 1.588-1.9 3.473-1.9 5.359.1 4.069 4-.397 11.3-4.863 8zm-104.508 14c-.695 1.4-.894 3.6-.596 5 .496 2.1 1.191 2.5 3.772 2.2 4.069-.4 5.855-4.7 3.076-7.8-2.481-2.7-4.863-2.5-6.252.6zm45.058 7.4c-3.87 0-6.153-6-3.374-8.8 1.389-1.4 1.985-1.5 4.168-.6 4.467 1.7 3.772 9.4-.794 9.4zm37.318-8.4c-2.382 1.7-2.978 6.2-.993 8.2.695.7 2.382 1.2 3.772 1.2 3.275 0 4.962-1.7 4.962-5.1 0-2.4-2.977-5.9-4.962-5.9-.298 0-1.588.7-2.779 1.6zm24.018 29.4c-2.68 0-4.466-4.4-3.275-7.8 1.488-4.1 7.84-2 7.84 2.6 0 3.4-1.588 5.2-4.565 5.2zm-128.725-49.2c-2.184 2.5-2.084 4.8.298 7.2 4.069 4.1 11.016 1.3 9.23-3.7-1.787-5.2-6.551-6.9-9.528-3.5zm-19.75 29.1c-4.268-2.3-4.963-5.7-1.787-8.9 2.283-2.3 3.275-2.4 5.955-1 3.077 1.7 4.168 4.5 2.878 7.4-1.489 3.2-4.069 4.1-7.046 2.5zm20.246 11.7c-2.68 1.8-2.878 5.5-.397 7.7 3.672 3.4 9.131 1.1 9.131-3.8 0-2.3-3.176-5.5-5.459-5.5-.595 0-2.084.7-3.275 1.6zm41.486 3c0-.8.695-2.2 1.588-3 3.87-3.9 8.932.6 6.55 5.9-2.084 4.6-8.138 2.4-8.138-2.9zm41.883-3c-2.382 1.7-2.978 6.2-.993 8.2 3.672 3.7 11.215-1.2 8.734-5.7-.893-1.7-3.871-4.1-5.161-4.1-.198 0-1.389.7-2.58 1.6zm-23.82 26.6c-.298-2.7.199-3.5 2.977-5.2 4.367-2.7 7.345-2.6 8.04.2.794 3-1.191 6.9-4.467 8.8-3.573 2-6.153.5-6.55-3.8zm44.86-5.8c-.992 2.5 0 6.9 1.886 8 3.672 2.3 7.642-4.3 4.565-8-1.488-1.8-5.756-1.8-6.451 0zm18.262 27.1c-.893-1.9-.695-2.9.595-5 3.077-4.7 9.528-2.4 9.528 3.5 0 5.5-7.84 6.6-10.123 1.5zm-39.799-5.7c-3.176 3.5-1.091 9.2 3.375 9.2 2.977 0 6.054-3.7 5.359-6.3-1.389-4.6-5.955-6.1-8.734-2.9zm-38.806 7.6c-2.183-.8-2.977-4.7-1.588-7.3 2.382-4.5 9.032-1 7.444 3.9-.794 2.5-3.772 4.2-5.856 3.4zm-22.529-28.1c-1.389 3 .397 7.7 2.878 7.7 2.184 0 5.161-3 5.161-5.2 0-1.9-3.176-4.8-5.359-4.8-.894 0-2.085 1-2.68 2.3zm-17.765 28.7c-2.482 0-4.467-5.2-2.978-7.9 1.985-3.8 7.94-2.1 7.94 2.3 0 2.5-2.779 5.6-4.962 5.6zm-24.614-29.8c-.695.7-1.191 2.4-1.191 3.8 0 3.1 1.687 5 4.466 5s4.466-1.9 4.466-5-1.687-5-4.466-5c-1.191 0-2.58.5-3.275 1.2zm-.198 45.3c0-1.7.496-3.6 1.191-4.3.694-.7 2.084-1.2 3.275-1.2 2.779 0 4.466 1.8 4.466 4.8 0 3.6-1.787 6.2-4.268 6.2-3.076 0-4.664-1.8-4.664-5.5zm43.867-3.9c-2.58 1.8-2.878 5.6-.595 7.8 2.183 2.3 4.069 2 5.955-.9 2.977-4.6-1.191-9.9-5.36-6.9zm41.486 7.4c-2.68-2.7-2.581-6.8.298-7.9 4.664-1.8 8.039 3.1 5.26 7.4-1.985 3-2.978 3.1-5.558.5zm41.486-7.9c-2.382 1.3-2.283 6.1.099 8.3 4.268 3.9 8.635-3.7 4.466-7.8-1.786-1.9-2.283-1.9-4.565-.5zm-99.248 27.3c-3.474 2.2-7.345-2.7-4.764-5.9.694-.8 1.985-1.5 2.977-1.5 3.97 0 5.161 5.2 1.787 7.4zm35.927-5.3c-1.488 2.7-.496 6.6 1.985 7.9 1.489.8 2.382.6 3.97-1 2.481-2.5 2.481-4.5 0-7-2.58-2.6-4.565-2.5-5.955.1zm45.555 8.9c-4.466 2.5-9.329-5.1-5.657-8.8 2.084-2.1 6.55-1.4 8.238 1.2 1.885 2.8.893 5.8-2.581 7.6zm37.913-10.1c-2.084 1.3-1.786 7.1.397 8.7 2.382 1.8 2.977 1.7 4.863-.2 2.283-2.2 1.985-6-.595-7.8-2.581-1.8-2.779-1.9-4.665-.7zm-143.513 31.1c-3.672 0-6.054-7-3.275-9.8s7.741-.1 7.741 4.3c0 2.6-2.382 5.5-4.466 5.5zm40.89-8.3c-1.29 1.2-.694 4.1.993 4.7 2.084.8 4.764-1.7 3.97-3.8-.596-1.6-3.772-2.2-4.963-.9zm38.112 6.9c-1.985-2.3-.893-6.9 1.786-8.3 4.863-2.4 10.024 3.8 6.551 7.7-2.085 2.3-6.65 2.6-8.337.6zm43.867-8.4c-2.878 3.8-1.786 8.8 1.985 8.8 3.077 0 4.665-1.8 4.665-5.2 0-3.8-4.565-6.3-6.65-3.6zm22.53 30.8c-4.367 0-6.948-5.9-3.97-9.5 2.58-3.2 8.932-.5 8.932 3.8 0 2.5-2.779 5.7-4.962 5.7zm-45.059-9.4c-3.275 3.2-.992 9.4 3.474 9.4 2.282 0 5.855-3.4 5.855-5.5s-3.573-5.5-5.855-5.5c-1.092 0-2.68.7-3.474 1.6zm-36.821 8.4c-2.283 0-4.764-4.6-4.069-7.5.496-2 1.29-2.5 3.573-2.5 4.168 0 5.955 3.8 3.573 7.5-.894 1.4-2.283 2.5-3.077 2.5zm-46.547-7.8c-2.184 3.1-1.985 5.4.595 7.2 2.878 2.1 5.062 2 7.047-.2 2.183-2.4 2.084-5.5-.099-7.5-2.581-2.3-5.757-2.1-7.543.5zm-19.155 27.5c-2.084-2.1-1.886-6.8.298-8.4 1.055-.81 1.576-1.21 2.116-1.239.527-.028 1.073.297 2.151.939 2.581 1.3 3.176 3.6 1.886 6.5-1.39 3.1-4.466 4.2-6.451 2.2zm39.401-6.8c-1.687 3.2-1.091 6 1.489 7.7 5.161 3.4 11.017-3.1 6.947-7.6-2.282-2.6-7.046-2.6-8.436-.1zm-16.574 29.1c-5.558 0-7.146-7.4-2.084-9.7 3.97-1.8 7.741.5 7.741 4.6 0 3.6-1.687 5.1-5.657 5.1zm-25.11 12c-3.176 3.2-2.481 6.6 1.787 8.9 2.977 1.6 5.557.7 7.046-2.5 1.29-2.9.199-5.7-2.878-7.4-2.68-1.4-3.672-1.3-5.955 1zm45.059 7c-1.687-1.5-1.886-6.1-.199-7.8 3.176-3.2 7.047-.2 6.551 5-.199 2.6-.794 3.4-2.581 3.6-1.29.2-2.977-.2-3.771-.8zm19.452-27.9c-1.488 2.7-.496 6.6 1.985 7.9 1.489.8 2.382.6 3.97-1 2.481-2.5 2.481-4.5 0-7-2.58-2.6-4.565-2.5-5.955.1zm24.217-12.1c-3.871 0-6.054-7.9-2.581-9.9 2.184-1.4 2.482-1.3 4.566.2 3.176 2.4 1.687 9.7-1.985 9.7zm-3.573 33.5c-1.29 2.8.198 5.5 3.077 5.5 3.97 0 5.558-5.1 2.183-7-2.977-1.5-3.97-1.2-5.26 1.5zm26.003-13.5c-4.466 2.4-7.642-2.9-4.962-8.1 1.191-2.2 2.282-2.4 5.061-.9 2.68 1.5 2.581 7.5-.099 9zm17.17-27.4c-.397 1.1.099 2.2 1.191 3.1 1.588 1.1 2.084 1.1 3.374-.1 1.191-1.2 1.191-1.8.1-3-1.588-2.1-3.871-2-4.665 0zm20.445 28.7c-4.069-1.1-5.359-5.5-2.58-9.1 1.191-1.5 4.168-1.6 6.748-.2 4.367 2.4.794 10.6-4.168 9.3zm-22.033 10.4c-.893.8-.893 5.6-.099 7.7.694 1.9 4.466 2.1 6.153.4 1.886-1.9 1.489-6.6-.695-7.8-2.282-1.2-4.466-1.3-5.359-.3zm-168.126 8.7c-2.779-3.1-2.879-4.8-.298-7.4 2.68-2.7 4.565-2.5 8.039.9 3.275 3.3 3.672 6.2 1.29 8.6-2.183 2.1-6.153 1.2-9.031-2.1zm-40.99-7.3c-1.489 2.7-.496 6.6 2.084 7.9 2.68 1.5 4.665.6 5.856-2.6 2.183-5.6-5.26-10.4-7.94-5.3zm-43.471 3.2c.199-2.8.894-4.1 2.581-4.9 4.565-2.3 8.932 1.2 7.741 6.1-.694 2.8-5.161 4.6-8.337 3.4-1.985-.7-2.282-1.5-1.985-4.6zm-38.309-3.7c-1.886 1.8-1.985 3.8-.596 6.5 2.084 3.8 6.154 2 7.444-3.3.496-2 .198-2.9-1.29-3.7-2.779-1.5-3.772-1.4-5.558.5zm23.323-10.6c-5.459 0-8.138-7.4-3.871-10.4 2.184-1.6 5.062-1.3 7.543.6 2.878 2.4.099 9.8-3.672 9.8zm38.508-9.9c-2.183 2.2-1.885 5.5.893 7.6 2.085 1.7 2.68 1.6 4.566-.3 2.779-2.8 1.092-9.4-2.481-9.4-.497 0-1.787.9-2.978 2.1zm42.379 8.8c-3.275-1.6-4.168-4.4-2.183-7.4 1.885-2.9 5.657-3.3 7.94-.9 4.069 4.1-.497 10.7-5.757 8.3zm42.081-9.5c-1.786 2.3-.794 6.1 1.688 6.4 4.764.7 8.039-3.6 5.061-6.6-1.588-1.6-5.26-1.5-6.749.2zm-24.415-16.1c-.496-2-.198-3.1 1.588-4.5 4.268-3.5 9.33-1.3 8.734 3.7-.695 6.2-8.833 6.8-10.322.8zm-39.5-4.7c-3.176 3.2-.993 9.4 3.374 9.4 2.878 0 5.26-4.2 4.069-7.2-1.389-3.8-4.863-4.8-7.443-2.2zm-37.814 9.4c-3.97 0-6.153-7.9-2.68-9.9l.141-.088c.929-.58 1.403-.876 1.89-.898.508-.024 1.029.25 2.094.811l.143.075c3.176 1.7 1.886 10-1.588 10zm-45.753-7.5c-.695 2.9 1.786 7.5 4.069 7.5 1.489 0 4.466-4.9 4.466-7.3 0-1.7-2.084-2.7-5.558-2.7-1.687 0-2.481.7-2.977 2.5zm22.033-15.1c-1.886-1.8-2.084-5.5-.397-7.2s5.458-1.5 6.153.4c2.283 5.9-1.886 10.8-5.756 6.8zm41.485-6.9c-2.183 3.4-.694 7.9 2.879 8.3 5.26.6 7.146-8.2 2.183-10.2-2.68-1-3.374-.7-5.062 1.9zm38.31 4c0-.8.893-2.4 1.985-3.5s2.581-2 3.275-2c2.283 0 5.658 3.1 5.658 5.2 0 2.7-2.779 5.8-5.161 5.8-2.184 0-5.757-3.4-5.757-5.5zm45.754-4.6c-1.588 2.9-1.291 6.7.496 8.6 1.389 1.4 1.886 1.4 3.672.2 3.672-2.4 4.367-4.4 2.68-7.5-1.886-3.4-5.459-4.1-6.848-1.3zm-19.85-10.9c-3.672 0-5.558-8-2.283-9.9 4.069-2.5 7.146-.5 7.146 4.6 0 3.1-1.985 5.3-4.863 5.3zm-42.18-8.1c-1.291 1.5-1.39 2-.298 3.5 1.687 2.3 5.657 1.3 5.657-1.4 0-3-3.374-4.3-5.359-2.1zm-45.059 6.9c-1.687-1.7-1.489-5.8.496-8 2.084-2.4 4.764-2.3 7.245.2 2.184 2.2 2.581 6 .794 7.8-.694.7-2.58 1.2-4.267 1.2-1.688 0-3.573-.5-4.268-1.2zm-39.302-8.3c-3.176 3.2-.894 9 3.275 8.3 2.977-.4 4.268-3.8 2.68-6.9-1.39-3-3.772-3.5-5.955-1.4zm17.269-18c0-1.2.496-2.6 1.191-3.3 1.786-1.8 5.558-1.4 7.741.8 3.573 3.6 1.886 7-3.474 7-3.572 0-5.458-1.5-5.458-4.5zm44.562-1.8c-2.481 6.4 4.963 11 7.841 5 1.191-2.4 1.092-3.1-.199-5.3-2.282-3.4-6.252-3.2-7.642.3zm44.662 8.3c-4.268 0-6.451-6.3-3.275-9.4 3.076-3.2 7.344-1 7.344 3.7 0 3.6-1.489 5.7-4.069 5.7zm38.111-9.9c-3.97 1.5-4.168 7.8-.099 10 4.665 2.5 9.826-2.4 7.444-7.1-1.489-2.8-4.467-4-7.345-2.9zm-17.765-11.1c-4.367 0-5.955-6.8-2.184-9.4 2.978-2.1 3.275-2 5.657 1 2.779 3.6.894 8.4-3.473 8.4zm-44.463-9.4c-3.176 3.1-.993 9.4 3.275 9.4 4.168 0 5.955-7.1 2.481-9.7-2.283-1.7-3.871-1.6-5.756.3zm-40.394 7.8c-1.886-1.7-2.581-6.4-1.191-7.8.397-.4 2.084-.6 3.771-.4 2.68.3 2.978.7 3.275 4 .199 2.9-.099 3.9-1.786 4.8-1.787.9-2.481.8-4.069-.6zm-41.486-7.8c-2.878 2.1-2.68 6 .397 8 2.779 1.8 4.168 1.2 5.558-2.3 1.687-4.6-2.184-8.4-5.955-5.7zm23.025-10.6c-5.061 0-7.642-4.5-5.26-9.1 2.085-3.9 9.925-1.3 9.925 3.3 0 3.4-1.886 5.8-4.665 5.8zm37.516-8.8c-1.488 4.1 1.687 8.8 5.161 7.5 2.084-.8 3.275-5.5 1.985-7.6-.595-.9-2.183-1.7-3.672-1.9-1.985-.3-2.779.2-3.474 2zm39.997 5.6c-1.389-2.7-1.389-3.2.1-5.4 2.977-4.7 9.428-2.5 10.917 3.9 1.786 6.9-7.642 8.2-11.017 1.5zm41.883-5.6c-2.084 2.9-1.985 5.1.198 7.1 5.261 4.8 12.307-1.2 8.04-6.7-2.482-3.2-6.253-3.4-8.238-.4zm-18.262-13.8c-2.382-1.7-2.977-6.2-.992-8.2 1.588-1.6 5.26-1.5 6.649.2 1.787 2.1.894 6.6-1.389 8.2-1.786 1.2-2.382 1.1-4.268-.2zm-43.272-8.1c-2.084 1.5-2.481 6-.595 8.2.694.8 2.779 1.5 4.565 1.5 2.68 0 3.672-.5 4.565-2.6 2.482-5.4-3.771-10.6-8.535-7.1zm-42.081 8.5c-1.687-1.7-1.489-6.4.397-8.2 1.985-2 4.268-2 7.146 0 2.382 1.6 2.779 4.4 1.191 7.5-1.191 2.2-6.749 2.7-8.734.7zm-40.096-7.3c-.794 1.9-.794 3.1 0 5 2.481 5.4 9.329.7 7.245-4.9-1.39-3.5-5.657-3.6-7.245-.1zm24.415-13.5c-3.672 0-5.856-6.1-3.176-8.8.695-.7 1.885-1.2 2.779-1.2 2.282 0 3.97 2 3.97 4.6 0 3.7-1.092 5.4-3.573 5.4zm37.019-8.2c-1.985 2.2-2.183 6.3-.496 8 1.985 2 7.543 1.5 8.734-.7 1.489-2.9 1.191-4.9-.993-7.1-2.481-2.5-5.161-2.6-7.245-.2zm42.975 7.2c-2.184-2.2-2.581-6-.794-7.8.694-.7 2.084-1.2 3.275-1.2 2.878 0 4.466 1.9 4.466 5.1 0 2.7-2.183 5.9-4.069 5.9-.496 0-1.787-.9-2.878-2zm39.699-7c-3.176 3.2-2.481 6.6 1.786 8.9 3.97 2.1 8.734-2.2 7.047-6.6-.794-2.1-3.672-4.3-5.756-4.3-.596 0-1.985.9-3.077 2zm-17.666-16.2c-1.588-1.6-1.489-2.3.397-4.3 1.489-1.5 1.786-1.4 3.97.6 1.786 1.7 2.084 2.5 1.29 3.6-1.39 1.6-4.069 1.7-5.657.1zm-43.868-4.7c-1.489 2.7-.496 6.6 2.084 7.9 2.68 1.5 4.665.6 5.856-2.6 2.183-5.6-5.26-10.4-7.94-5.3zm-41.684 2.9c0-1.4.496-3.1 1.191-3.8 1.489-1.5 2.382-1.5 4.863-.2 3.374 1.9 2.184 9-1.489 9-2.878 0-4.565-1.8-4.565-5zm-41.486-3.4c-2.779 1.9-2.878 5.7-.198 8.4 3.374 3.4 7.94 2 9.428-2.7.397-1.7-.099-2.9-1.885-4.8-2.879-2.9-4.268-3.1-7.345-.9zm18.659-16.2c0-1.3.893-3.3 2.084-4.5 1.985-2 4.764-1.9 7.642.3 2.878 2.4.099 9.8-3.672 9.8-2.779 0-6.054-3-6.054-5.6zm46.051-2.9c-.993 2.5.397 4.5 2.977 4.5 3.077 0 3.97-1.4 2.581-4-1.29-2.3-4.764-2.7-5.558-.5zm47.242 8.5c-6.054 3.3-13.101-5.6-8.337-10.4 1.787-1.9 2.481-2 5.657-.5 4.467 2.1 6.154 9 2.68 10.9zm34.042-10.9c-3.97 1.5-4.168 7.8-.099 10 4.665 2.5 9.826-2.4 7.444-7.1-1.489-2.8-4.467-4-7.345-2.9zm-20.941-12.3c-1.687-1.7-1.489-6.4.397-8.3 1.687-1.6 5.26-1.2 6.55.9 1.191 1.7.893 6.1-.397 7.4-.695.7-2.084 1.2-3.275 1.2s-2.58-.5-3.275-1.2zm19.353-28c-2.084 2.3-2.084 4.1-.099 7 2.183 3.1 7.344 2.7 9.032-.7 2.778-5.7-4.764-11-8.933-6.3zm-60.442 27.5c-2.183-2-2.283-5.6-.198-7.7 4.168-4.3 10.222 1.9 6.848 7-1.787 2.8-4.069 3.1-6.65.7zm-40.096-5.8c-.993 2.5.397 4.5 2.977 4.5 3.077 0 3.97-2.3 1.688-4.4-2.184-2-3.97-2-4.665-.1zm-43.074 2c0-1.7.496-3.6 1.191-4.3 1.687-1.7 4.367-1.5 6.154.4 3.076 3 1.191 9.4-2.68 9.4-3.077 0-4.665-1.8-4.665-5.5zm19.056-24.3c-3.275 3.3 0 9.8 4.863 9.8 3.176 0 4.863-1.7 4.863-5 0-4.8-6.55-8-9.726-4.8zm50.815 6.6c-3.772 5.5-10.62-.7-6.948-6.3 1.985-3 3.871-3.2 6.551-.5 2.382 2.4 2.481 3.8.397 6.8zm34.836-7.1c-3.474 3.5.496 11.4 4.665 9.2 3.275-1.8 4.267-5.4 2.382-8.4-1.886-2.9-4.665-3.2-7.047-.8zm20.445-12.4c-2.382-1.6-2.779-6.2-.893-8.1 1.985-2 6.054-1 7.344 1.7 2.382 4.8-2.183 9.4-6.451 6.4zm-42.577-8.1c-2.978 3-.497 8.8 3.87 8.8 3.573 0 5.062-3 3.672-7.2-.794-2.1-1.587-2.8-3.672-2.8-1.488 0-3.176.5-3.87 1.2zm-41.883 3.8c0-1.4.496-3.1 1.191-3.8s1.886-1.2 2.779-1.2c3.275 0 4.962 4.2 3.374 8.4-.694 1.9-4.466 2.1-6.153.4-.695-.7-1.191-2.4-1.191-3.8zm-42.081-3.4c-3.474 3.4-.596 9.4 4.466 9.4 3.374 0 4.863-1.8 4.863-5.7 0-4.9-5.856-7.2-9.329-3.7zm22.43-13.8c-1.787-1.8-1.489-6.5.595-7.7 4.367-2.7 7.245.5 5.757 6.5-.695 2.6-4.268 3.3-6.352 1.2zm42.379-7.7c-2.184 2.2-2.283 2.8-.993 6.2 1.687 4.4 6.451 4.5 8.139.1 1.985-5.5-3.276-10.2-7.146-6.3zm41.783 10.2c-4.367-1.2-5.756-6.1-2.68-10.1 2.184-2.8 9.628.5 9.628 4.4 0 2.6-4.467 6.3-6.948 5.7zm41.287-10.7c-3.076 3.1-1.091 10.4 2.879 10.4 2.084 0 5.359-4.8 4.763-7-.496-1.9-3.87-5-5.458-5-.298 0-1.39.7-2.184 1.6zm-21.933-10.8c-4.367-2-4.467-8.1-.199-9.8 3.275-1.3 3.573-1.2 6.253 1.5 1.488 1.5 2.282 3.2 1.985 4.1-.298.9-.596 2-.596 2.5 0 1.8-4.863 2.9-7.443 1.7zm-83.071-10.4c-1.687.8-2.382 2.1-2.581 4.9-.297 3.1 0 3.9 1.985 4.6 3.176 1.2 7.643-.6 8.337-3.4 1.191-4.9-3.176-8.4-7.741-6.1zm-42.478 9.6c-2.382-2.4-2.581-5.7-.298-8.2 2.183-2.5 4.863-2.3 7.841.7 1.786 1.9 2.282 3.1 1.885 4.8-1.488 4.7-6.054 6.1-9.428 2.7zm23.124-29.8c-2.977 1.5-3.076 6.1-.099 8.2 3.077 2.2 5.757.4 5.757-3.7 0-3-1.489-5.8-2.879-5.6-.397 0-1.588.5-2.779 1.1zm44.861 10c-5.757 2.6-10.421-6-5.26-9.6 2.878-2.1 3.175-2 6.351.7 2.184 1.9 2.581 2.9 1.985 5.1-.297 1.5-1.687 3.2-3.076 3.8zm37.218-9.3c-1.39 2.8-1.291 4.6.794 7.1 3.771 4.7 10.024-1.5 6.649-6.6-1.885-2.9-5.955-3.2-7.443-.5zm40.89 9.2c-4.069-2.2-3.871-8.5.099-10 2.878-1.1 5.856.1 7.345 2.9 2.382 4.7-2.779 9.6-7.444 7.1zm-21.041-30.8c-1.389.7-2.779 2.6-3.374 4.6-.794 3-.695 3.6 1.29 5.2 3.275 2.7 6.55 2.4 9.032-.8 2.382-3 1.985-6.9-.695-9.1-2.084-1.5-3.077-1.5-6.253.1zm-38.21 10.7c-4.665 0-7.146-5.8-4.169-9.8 2.283-2.9 9.627-.1 9.627 3.7 0 2.8-2.977 6.1-5.458 6.1zm-44.463-10.4c-1.588 1.6-.695 7.3 1.29 8.4 3.374 1.8 6.153-.4 5.756-4.8-.297-3.3-.595-3.7-3.275-4-1.687-.2-3.374 0-3.771.4zm-36.722 6.2c-2.878.4-4.367-1.6-3.275-4.3.694-2 2.977-1.9 5.061.1 2.085 2.2 1.39 3.8-1.786 4.2zm14.391-26.6c-3.275 3.3 0 9.8 4.863 9.8 3.176 0 4.863-1.7 4.863-5 0-4.8-6.55-8-9.726-4.8zm44.066 7.8c-1.886-1.5-2.481-4.2-1.489-6.8.893-2.5 4.466-3 7.047-1 1.389 1.1 1.489 1.8.496 4.8-1.29 3.7-3.871 5-6.054 3zm40.295-7.8c-2.68 2.7-.497 8.8 3.076 8.8 2.978 0 4.665-1.8 4.665-5 0-3.1-1.687-5-4.466-5-1.191 0-2.581.5-3.275 1.2zm40.096 7.6c-1.985-2.9-1.985-4.7.099-7 4.169-4.7 11.711.6 8.933 6.3-1.688 3.4-6.849 3.8-9.032.7zm-61.534 54.8c-4.268 4.2.496 12 5.856 9.6 1.389-.6 2.779-2.3 3.076-3.8.596-2.2.199-3.2-1.985-5.1-3.175-2.7-4.863-2.9-6.947-.7zm42.478-75.7c-1.687-1.4-1.885-6-.198-7.7 1.588-1.6 5.26-1.5 6.649.2.695.8 1.092 3 .894 4.8-.298 2.8-.695 3.4-3.077 3.6-1.588.2-3.474-.2-4.268-.9zm-41.882-7.7c-3.176 3.2.595 10.2 4.764 9.1 5.061-1.3 4.366-10.3-.794-10.3-1.489 0-3.276.5-3.97 1.2zm-36.127 8.2c-3.771 2.3-7.741-4.3-4.664-8 1.885-2.3 5.756-1.8 6.451 1 .794 3.4.198 5.7-1.787 7zm-46.249-8.2c-2.68 2.7 0 8.8 3.97 8.8 1.885 0 3.87-4.4 3.076-6.7-1.191-3.3-4.764-4.4-7.046-2.1zm21.437-11.1c-3.97-1.5-4.962-6.1-2.084-9.3 1.985-2.2 4.168-2.3 7.047-.2 5.061 3.5.794 11.7-4.963 9.5zm40.593-9c-2.581 3.6.794 9.1 4.565 7.6 2.084-.8 3.275-5.5 1.985-7.6-1.588-2.5-4.863-2.5-6.55 0zm41.982 6.9c-2.184-2.2-2.581-6-.794-7.8.694-.7 2.084-1.2 3.275-1.2 2.878 0 4.466 1.9 4.466 5.1 0 2.7-2.183 5.9-4.069 5.9-.496 0-1.787-.9-2.878-2zm38.905-6.7c-2.382 2.6-2.68 4.8-1.191 7.8 1.29 2.3 8.039 2.7 9.826.5 1.588-2 1.687-7.2.099-9.1-1.886-2.2-6.253-1.8-8.734.8zm-15.979-12.3c-3.275 0-5.459-7.2-2.878-9.8.695-.7 2.084-1.2 3.275-1.2 2.977 0 4.466 1.9 4.466 5.7 0 3.1-1.985 5.3-4.863 5.3zm-43.967-8.4c-.992 2.1-.893 3.1.298 5.2 3.176 5.8 10.818.9 8.039-5.2-.893-2-1.886-2.6-4.168-2.6-2.283 0-3.276.6-4.169 2.6zm-40.195 6.8c-2.184-1.3-2.879-6-1.191-8 2.58-3.1 7.245-.3 6.649 4-.397 3.6-3.076 5.5-5.458 4zm-42.181-8.3c-3.573 2-1.389 8.9 2.779 8.9 3.375 0 5.062-4.3 2.878-7.6-1.687-2.6-2.977-2.9-5.657-1.3zm25.209-12.2c-4.466 2.4-8.734-6.3-4.367-8.8l.141-.088c.929-.58 1.403-.876 1.89-.898.508-.024 1.029.25 2.094.811l.143.075c2.58 1.4 2.58 7.5.099 8.9zm35.73-8.3c-3.276 2.3-2.68 7.3.992 9.4 2.084 1.1 3.176 1.2 4.466.4 4.268-2.7 4.169-8.2-.198-10.2-.26-.123-.494-.235-.707-.337l-.005-.003c-1.11-.533-1.639-.787-2.135-.732-.452.05-.876.359-1.688.949-.126.092-.262.191-.408.296-.101.073-.206.148-.317.227zm39.5 1.3c0-.5.993-1.4 2.283-1.9 3.275-1.3 3.573-1.2 6.153 1.5 2.978 2.9 3.077 4.9.497 7.5-1.092 1.1-2.68 2-3.474 2-2.382 0-6.749-4.8-6.054-6.6.298-.9.595-2 .595-2.5zm41.684 0c-1.488 2.9-1.191 4.9.993 7.1 2.382 2.4 5.26 2.6 7.344.4 1.886-1.8 2.085-6.5.397-8.2-1.985-2-7.543-1.5-8.734.7zm-16.375-16.6c-1.787-1.8-1.886-2.5-.298-4.1.695-.7 1.687-1.2 2.282-1.2 1.588 0 3.474 2.2 3.474 4.1 0 2.2-3.672 3.1-5.458 1.2zm-45.853-4.7c-1.489 2.4-1.489 2.9-.199 5.3 2.68 4.6 10.818 2.7 10.818-2.5 0-5.5-7.542-7.5-10.619-2.8zm-35.928 9.5c-3.374-1.9-4.268-8.3-1.389-10 3.176-1.7 7.245 2.1 7.245 6.8 0 2.7-3.375 4.5-5.856 3.2zm-45.952-10.4c-2.58 3.1-2.878 4.1-1.687 6.7 1.389 3 5.856 5.1 9.329 4.2 4.566-1.2 5.657-7.3 1.886-11-2.084-2.1-7.642-2-9.528.1zm25.805-11.9c-3.672.7-6.352-5.8-3.573-8.6 1.886-1.9 5.955-1 6.848 1.4.893 2.5-.993 6.8-3.275 7.2zm37.019-7.6c-1.488 4.1 1.687 8.8 5.161 7.5 2.084-.8 3.275-5.5 1.985-7.6-.595-.9-2.183-1.7-3.672-1.9-1.985-.3-2.779.2-3.474 2zm44.86 7.8c-4.168 0-5.756-6.8-2.183-9.4 3.275-2.2 6.848-.2 6.848 3.9 0 3.7-1.489 5.5-4.665 5.5zm36.921-10.5c-1.39 1.3-2.481 3.1-2.481 3.9 0 6.5 8.336 11.1 12.207 6.8 1.687-1.9 2.183-6.9.893-8.8-1.091-1.6-5.458-4.4-6.947-4.4-.695 0-2.382 1.1-3.672 2.5zm-18.163-11.1c-2.382-1.7-2.977-6.2-.992-8.2 1.588-1.6 5.26-1.5 6.649.2 1.787 2.1.894 6.6-1.389 8.2-1.786 1.2-2.382 1.1-4.268-.2zm-39.6-9.4c-2.679 1.1-2.977 4.2-.694 6.4 1.885 2 3.374 2 6.054.1 2.382-1.7 2.183-4.1-.497-6.3-1.786-1.4-1.885-1.4-4.863-.2zm-39.203 9.4c-3.771 2.3-7.741-4.3-4.664-8 .595-.8 1.885-1.4 2.878-1.4 4.069 0 5.359 7.1 1.786 9.4zm-47.242-8.8c-2.382 1.7-2.977 6.2-.992 8.2 1.786 1.8 6.252 1.4 8.039-.6 2.183-2.4 2.084-5.5-.099-7.5-2.283-2.1-4.07-2.1-6.948-.1zm18.659-16.1c0-2.4.695-3.9 2.183-4.9 4.963-3.5 11.017-.6 11.017 5.4 0 3.9-1.886 6-5.657 6-4.665 0-7.543-2.5-7.543-6.5zm44.265-3.4c-2.283 3.3 0 7.9 3.969 7.9 2.879 0 4.169-3.9 2.482-7.6-1.291-3-4.467-3.1-6.451-.3zm42.478 7.4001c-2.581-1.7-3.275-6.2-1.191-8.3.694-.7 2.084-1.2 3.275-1.2 2.977 0 4.466 1.9 4.466 5.7 0 4.3-3.077 6.1-6.55 3.8zm40.493-8.3001c-2.68 2.7-.397 9.8 3.176 9.8 1.985 0 4.565-3.4 4.565-6.1 0-3.1-1.687-4.9-4.466-4.9-1.191 0-2.58.5-3.275 1.2zm-18.262-10.1001c-5.061-1.9-6.55-6.4-3.275-9.7 3.772-3.8 7.543-2.6 9.329 2.9 1.886 5.7-.893 8.8-6.054 6.8zm-44.661-9.4998c-2.779 6.1 4.863 11 8.039 5.3 1.29-2.4 1.29-2.9-.199-5.3-2.282-3.5-6.252-3.5-7.84 0zm-41.089 8c-2.878-1.9-3.176-6-.695-8.8 1.191-1.4 2.382-1.7 4.268-1.3 3.871 1 5.061 2.5 4.764 5.9-.397 4.3-4.764 6.5-8.337 4.2zm-42.379-8.8002c-2.283 2.5-2.084 5.8.298 8.2 2.679 2.7 5.458 2.5 7.84-.6 2.68-3.4 2.581-4-.397-6.9-2.878-3-5.558-3.2-7.741-.7zm23.621-13.2c-2.977-2-3.474-6.9-.695-8.5l.141-.0879c.929-.58 1.403-.8761 1.89-.8986.508-.0235 1.029.2509 2.094.8114l.143.0751c2.283 1.3 2.58 7.2.397 9-1.191 1-1.985.9-3.97-.4zm40.096-7.5c-2.183 2.2-1.885 5.5.893 7.6 2.085 1.7 2.68 1.6 4.566-.3 2.779-2.8 1.092-9.4-2.481-9.4-.497 0-1.787.9-2.978 2.1zm44.662 8.9001c-4.268 0-6.451-6.3-3.275-9.4 1.885-1.9 3.473-2 5.756-.3 3.474 2.6 1.687 9.7-2.481 9.7zm38.111-9.9c-3.97 1.5-4.168 7.8-.099 10 4.665 2.5 9.826-2.4 7.444-7.1-1.489-2.8-4.467-4-7.345-2.9zm48.136 8.2999c-4.169 3-8.337-2.3-5.36-6.9 1.886-2.9 2.382-3 5.36-.9 2.778 1.9 2.778 5.8 0 7.8zm-29.874 13.4002c-2.283 2.5-2.084 5.7.496 8.2 3.375 3.2 8.833 2.4 10.62-1.6 1.488-3.4 1.389-4.1-.894-6.4-2.58-2.6-8.039-2.6-10.222-.2zm22.926 28.4999c-2.382-2.1-2.283-4.8.199-7.3 1.091-1.1 2.58-2 3.275-2 2.382 0 5.657 3.1 5.657 5.5 0 4.9-5.459 7.2-9.131 3.8zm-20.445 12.9c-1.588 1.6-1.489 6.3.199 7.8 1.984 1.5 5.557.9 6.947-1.2 1.588-2.7-.397-7.2-3.375-7.6-1.389-.2-3.076.3-3.771 1zm19.453 29.1c-2.482-2.3-2.283-6.8.397-8.7 3.176-2.3 6.451-2 9.329.9 2.481 2.6 2.58 5.2.198 8.2-1.488 1.8-7.741 1.6-9.924-.4zm-18.857 11.8c-2.085 1.2-2.382 6.9-.596 8.7 1.787 1.8 5.558 1.4 6.749-.7 1.588-3.1 1.191-5.9-1.191-7.5-2.581-1.9-2.68-1.9-4.962-.5zm19.551 28.9c-2.183-2.5-1.29-6.7 1.787-8 1.517-.612 2.261-.911 2.955-.82.667.088 1.287.537 2.504 1.42 2.381 1.7 2.977 6.2.992 8.2-1.786 1.8-6.253 1.4-8.238-.8zm-20.147 13.2c-2.68 2.7-.397 9.8 3.176 9.8 1.886 0 4.565-3.4 4.565-5.8 0-4.1-5.061-6.7-7.741-4zm20.445 29.1c-2.183-2-2.283-4.2-.198-7.1 2.779-4 9.329-1.7 9.329 3.4 0 4.8-5.459 7-9.131 3.7zm-22.033 13.9c-2.084 2.9-1.985 5.1.199 7.1 2.778 2.6 6.848 2.1 8.733-.9 1.588-2.4 1.588-2.7-.297-5.2-2.581-3.6-6.551-4-8.635-1zm23.621 26.3c-1.389-2.1-1.489-3.1-.595-5 1.985-4.3 8.138-2.8 8.138 1.9 0 2.3-2.68 5.6-4.565 5.6-.794 0-2.085-1.1-2.978-2.5zm-21.437 13.6c-2.085 1.2-2.382 6.9-.596 8.7.695.7 2.084 1.2 3.275 1.2 4.665 0 6.253-6.6 2.283-9.4-2.581-1.9-2.68-1.9-4.962-.5zm21.735 31.9c-6.054 0-5.856-7.1.298-10.2 4.267-2.2 5.558-2.2 6.352-.2 1.786 4.6-1.985 10.4-6.65 10.4zm-20.842 11.6c-1.588 1.7-.596 4.4 1.885 5 3.276.8 5.261-1 3.772-3.4-1.191-1.8-4.466-2.8-5.657-1.6zm17.17 23.7c0-.7.893-2.2 1.985-3.3 2.382-2.4 4.664-2.5 7.146-.3 3.572 3.3 1.29 9.3-3.673 9.3-2.382 0-5.458-3.3-5.458-5.7zm-18.659 16.9c-1.985 2-1.389 6.5.993 8.2 1.885 1.3 2.481 1.4 4.267.2 2.283-1.6 3.176-6.1 1.39-8.2-1.39-1.7-5.062-1.8-6.65-.2zm21.438 31.2c-5.856-1.8-4.963-7.5 1.588-10.5 2.878-1.3 4.367-1.5 5.26-.7 3.672 3.1-2.184 12.7-6.848 11.2zm-20.842 9.7c-2.085 1.2-2.382 6.9-.596 8.7 1.787 1.8 5.558 1.4 6.749-.7 1.588-3.1 1.191-5.9-1.191-7.5-2.581-1.9-2.68-1.9-4.962-.5zm-189.267-344.5002c-2.084-2.5-.893-7.9 1.886-9.3 1.39-.7 3.077-1.3 3.771-1.3 2.184 0 6.849 2.8 7.543 4.5.695 2.1-.794 5.1-3.374 6.5-2.68 1.5-8.535 1.2-9.826-.4zm-39.004-9.8998c-.893.2-2.084 1.7-2.779 3.3-1.39 3.3-.099 6.5 2.977 7.5 6.848 2.2 10.421-7 3.97-10.5-.992-.5-1.985-.9-2.183-.9-.123.0617-.472.1616-.956.2996l-.001.0004c-.299.0854-.649.1854-1.028.3zm-43.074 9.0001c-2.977-3.5-2.977-4.2.099-7.2 2.978-3.1 3.673-3.1 7.146-.1 2.382 2.1 2.581 2.7 1.787 5.2-.596 1.8-2.084 3.3-3.871 3.9-2.481.8-3.077.6-5.161-1.8zm-40.89-8.1001c-3.176 2.2-2.978 6.9.397 9.1 2.382 1.5 2.878 1.5 5.26.2 3.573-2 4.069-7.1.893-9.3-2.779-2-3.771-2-6.55 0zm22.033 28.3999c-1.985-1.7-1.786-6.7.397-7.9 2.58-1.6 4.466-.9 6.054 2.3.893 2 1.092 3.4.397 4.5-1.29 2-4.962 2.6-6.848 1.1zm41.486-7.7999c-.695.7-1.191 2.4-1.191 3.8 0 3.2 1.687 5 4.565 5 3.474 0 4.665-5.6 1.787-8.4-1.886-1.9-3.573-2-5.161-.4zm40.096 8.7001c-3.077-2.4-3.275-5.2-.596-7.9 2.68-2.7 4.566-2.5 7.543.5 2.68 2.7 2.581 5.9-.397 8.2-2.183 1.8-3.473 1.6-6.55-.8zm-104.211 12.6999c-1.786 1.8-1.985 4.7-.595 7.5.695 1.3 2.084 1.9 4.466 1.9 3.573 0 5.459-2 5.459-5.8 0-4.3-6.253-6.8-9.33-3.6zm47.838 7.8c-3.771 2.3-7.741-4.3-4.665-8 .596-.8 1.886-1.4 2.879-1.4 4.069 0 5.359 7.1 1.786 9.4zm76.719-6.8c-4.863 4.1-3.672 9.4 1.886 9.4 2.977 0 5.26-2.1 6.748-6.1 2.184-5.8-3.275-7.9-8.634-3.3zm-104.31 27.5c-1.489-3-1.191-6.9.794-8 5.856-3.5 12.009 3.1 7.444 8.1-2.184 2.4-6.848 2.4-8.238-.1zm-18.659 13.1c-3.176 3.2.695 10 4.566 7.9 2.58-1.4 3.275-3.6 2.183-6.6-.992-2.7-4.664-3.4-6.749-1.3zm46.449 7.8c-4.367 2.3-8.337-4.2-4.764-7.8.694-.7 1.885-1.2 2.779-1.2 4.069 0 5.657 7 1.985 9zm34.736-8c-1.091 1.1-1.985 2.8-1.985 3.8 0 2.5 3.077 5.2 5.757 5.2 2.481 0 6.153-3.3 6.153-5.5s-3.672-5.5-5.955-5.5c-1.091 0-2.878.9-3.97 2zm44.96 9c-4.963 0-7.146-6.6-3.077-9.4 4.268-3 8.734-1.2 8.734 3.6 0 3.4-2.283 5.7-5.657 5.8zm-105.302 12.2c-1.886 1.9-1.39 5.5.893 7.2 2.58 1.8 4.267 1.2 5.558-1.7 2.183-4.8-2.879-9.1-6.451-5.5zm42.974 8.8c-4.565 0-6.352-5.6-3.176-9.8 2.382-3 9.627-.1 9.627 4 0 2.6-3.573 5.8-6.451 5.8zm38.508-12c-2.58 1-3.771 4.8-2.878 8.6.794 2.9 6.55 5.9 9.627 4.9 4.466-1.5 4.566-9 .199-12.5-2.779-2.2-3.673-2.3-6.948-1zm19.453 30.9c-1.489-2.9-.298-6.8 2.382-7.9 1.517-.612 2.261-.911 2.955-.82.667.088 1.287.537 2.503 1.42 2.978 2.1 3.077 7.9.1 9.4-2.779 1.5-6.551.5-7.94-2.1zm-40.99-6.7c-2.183 3.2-1.985 5.5.794 7.3 5.658 3.8 12.704-3.2 7.94-7.9-2.282-2.4-6.947-2-8.734.6zm-40.096 2.9c-.298-2.5.099-3.3 1.985-4 3.573-1.3 5.955.4 5.558 4.1-.595 6.3-6.947 6.3-7.543-.1zm-39.798-3.5c-3.871 2.8-2.085 8.4 2.58 8.4 4.367 0 5.161-7.7.893-9.3-.694-.3-2.282.1-3.473.9zm21.636 27.4c-2.779 0-3.772-4.9-1.39-6.7 1.092-.7 2.184-1.3 2.581-1.3.992 0 3.87 3 3.87 4 0 1.5-3.076 4-5.061 4zm37.913-5.4c-1.092 1.5-2.085 3.1-2.085 3.6 0 1.4 4.665 5.8 6.253 5.8 3.771 0 6.749-6.1 4.466-9.2-.695-.9-2.481-2-3.871-2.3-2.084-.5-3.076-.1-4.763 2.1zm44.264 8.9c-4.664-1.5-6.054-6.1-2.68-9.5 2.581-2.6 4.566-2.5 7.444.5 3.077 3 3.077 4 0 7.1-1.886 1.8-3.077 2.3-4.764 1.9zm-106.195 11.3c-3.276 3.6-1.092 9.2 3.573 9.2 2.779 0 4.069-.9 5.558-3.8.992-1.9.794-2.6-1.291-4.7-2.977-3-5.657-3.2-7.84-.7zm47.738 7.6c-3.771 2.3-7.741-4.3-4.665-8 .596-.8 1.886-1.4 2.879-1.4 4.069 0 5.359 7.1 1.786 9.4zm36.325-6.9c-1.489 2.3-1.489 2.7 0 5 1.985 3 5.062 3.3 6.55.6 1.39-2.7 1.29-4.7-.595-6.5-2.184-2.3-4.069-2-5.955.9zm45.654 9.3c-6.55.7-10.917-7.2-6.65-12 1.191-1.3 2.779-1.8 5.161-1.6 2.978.3 3.871.9 5.36 4 2.382 5 .794 9.1-3.871 9.6zm-108.875 10c-1.985 2.2-2.184 6.3-.496 8 3.076 3.1 9.726.6 9.726-3.7 0-5.3-5.955-8-9.23-4.3zm47.738 8.6c-3.771 2.3-7.741-4.3-4.665-8 .596-.8 1.886-1.4 2.879-1.4 4.069 0 5.359 7.1 1.786 9.4zm37.516-8.8c-3.672 3.7-.099 11.8 4.168 9.5 3.772-2 4.268-7.2.993-9.5-2.779-2-3.275-2-5.161 0zm-105.997 29.7c-1.985-1.8-2.283-4.5-.794-7.4.695-1.3 2.084-1.9 4.466-1.9s3.772.6 4.466 1.9c3.275 6.3-2.977 12.1-8.138 7.4zm43.074-8.1c-1.588 1.6-1.489 5 .198 7.3 1.191 1.7 1.787 1.8 3.97.7 4.268-1.9 3.176-9.2-1.389-9.2-.894 0-2.085.5-2.779 1.2zm47.142 7.2c-2.778 3.9-8.436-1.1-6.649-5.9 1.092-2.9 3.474-3.2 6.153-.8 2.084 1.9 2.283 4.2.496 6.7zm33.646-6.8c-3.276 3.3-.497 9.4 4.267 9.4 3.375 0 5.36-2 5.36-5.5 0-1.4-.596-3.2-1.291-4-1.588-2-6.351-1.9-8.336.1zm-98.058 28.2c-3.175.4-5.26-2.7-4.366-6.5.595-2 1.191-2.4 3.87-2.1 2.978.3 3.176.5 3.176 4.3 0 3.6-.298 4-2.68 4.3zm-24.812 12.6c-4.664 2.4-2.58 9.7 3.276 11.1 4.863 1.2 7.642-4.5 4.367-9.2-1.886-2.6-4.665-3.4-7.643-1.9zm63.221-10.8c-3.672-1-5.16-4.8-3.076-8.1 1.092-1.7 2.481-2.5 4.565-2.5 4.069 0 6.749 4 5.161 7.6-1.389 3-3.275 3.8-6.65 3zm-21.338 10.7c-5.459 2.7-2.481 11.8 3.474 10.3 3.077-.8 5.359-5 3.87-7.3-1.984-3.3-4.664-4.3-7.344-3zm61.732-11.2c-3.969-2.2-3.969-8 .1-9.8 2.878-1.3 5.458-.5 7.245 2.2 3.077 4.7-2.382 10.3-7.345 7.6zm-20.941 13.1c-1.29 3.6.199 6.3 3.672 6.6 2.581.3 3.176-.1 3.772-2.1 1.389-5.6-5.459-9.7-7.444-4.5zm45.257 6.8c-4.466 0-6.153-8.3-1.885-9.3.893-.2 2.282-.1 2.977.1 4.069 1.4 3.176 9.2-1.092 9.2zm-23.522 13c-2.282 2.3-2.382 3.3-.992 6.1 1.191 2.1 5.161 2.6 6.749.6 1.489-1.7.298-6.6-1.886-7.8-1.389-.7-2.283-.5-3.871 1.1zm-41.287 7c-1.985-1.7-1.786-6.7.397-7.9 2.084-1.3 2.382-1.3 4.069-.2.695.5 1.39 2.6 1.489 4.7.099 3.4-.198 3.9-2.183 4.2-1.291.2-2.978-.2-3.772-.8zm-43.371-7.2c-2.084 2.3-2.184 6.6-.199 8.2 2.184 1.8 6.551 1.5 8.139-.6 1.885-2.5 1.588-5.1-.695-7.4-2.481-2.5-5.161-2.6-7.245-.2zm-21.339 29c-1.687-1.7-1.488-6.4.397-8.2 3.375-3.4 9.33-.6 9.33 4.4 0 3.4-1.687 5-5.459 5-1.687 0-3.573-.5-4.268-1.2zm42.181-8c-4.764 5.3 1.191 12.4 6.65 8.1 3.076-2.4 3.275-5.2.595-7.9-2.481-2.5-5.161-2.6-7.245-.2zm42.379 5.7c-1.489-2.3-1.489-2.7 0-5 1.886-2.9 3.771-3.2 5.955-.9 1.885 1.8 1.985 3.8.595 6.5-1.488 2.7-4.565 2.4-6.55-.6zm39.898-5.6c-2.283 2.6-1.688 6 1.488 8.4 2.184 1.6 2.978 1.7 4.764.7 5.558-2.9 3.672-10.9-2.481-11-1.092 0-2.878.9-3.771 1.9zm-12.903 25.6c-4.267 2.9-7.94-.8-5.955-5.9.695-1.8 2.184-2 5.757-.6 3.275 1.2 3.374 4.4.198 6.5zm-49.921-3.9c-1.489 2.4-1.489 2.9-.199 5.3 1.985 3.6 7.047 4.1 9.23.9 2.084-3 1.985-4.4-.397-6.8-2.779-2.8-6.55-2.6-8.634.6zm-38.409 5.8c-2.085-2.1-1.985-6 .198-7.3 3.176-2 5.657-.9 5.955 2.7.496 5.4-2.878 8-6.153 4.6zm-23.225 13.8c-1.786 1.8-1.389 6.3.596 8.1 5.161 4.7 12.505-2.8 7.543-7.7-1.787-1.9-6.451-2.1-8.139-.4zm43.868 7.3c-1.687-2.3-1.786-5.7-.198-7.3.694-.7 1.885-1.2 2.779-1.2 4.565 0 5.657 7.3 1.389 9.2-2.183 1.1-2.779 1-3.97-.7zm39.501-7.3c-2.382 3.1-2.283 5.7.198 8.3 4.864 4.9 11.513 1.7 9.33-4.6-1.489-4.4-7.146-6.6-9.528-3.7zm45.654 9.8c-5.26 0-7.94-5.4-4.466-9.2 1.985-2.2 6.55-2.4 8.237-.3.695.8 1.291 2.6 1.291 4 0 3.4-1.985 5.5-5.062 5.5zm-24.018 12c-2.183 4 1.29 9 4.863 7.1 4.268-2.4 3.275-9.1-1.389-9.1-1.39 0-2.879.8-3.474 2zm-41.684 2.6c0-1.8.297-3.6.694-3.9 1.092-1.1 4.764-.8 6.055.5 3.275 3.3-.695 10-4.665 7.8-1.489-.7-2.084-2-2.084-4.4zm-42.478-3.4c-3.077 3.1 0 9.8 4.466 9.8 2.481 0 5.26-3 5.26-5.7 0-4.2-6.749-7.1-9.726-4.1zm-18.957 29.7c-3.077-1.8-3.771-5.1-1.687-8.5 1.886-2.8 4.168-3.1 7.344-.8 3.176 2.2 2.978 6.9-.397 9.1-2.382 1.5-2.878 1.5-5.26.2zm40.99-8.5c-.894 2.4 0 5.8 1.885 7 2.68 1.7 5.161-.4 5.161-4.5 0-3.1-.297-3.4-3.275-3.7-2.084-.2-3.374.2-3.771 1.2zm40.294 3.8c0-1.9.794-4 2.085-5.3 4.069-4.1 10.123-.3 9.627 6-.397 4.7-4.467 7.8-7.841 6.1-3.176-1.7-3.871-2.9-3.871-6.8zm41.685-4.2c-1.092 1.1-1.985 2.9-1.985 4 0 2.5 3.374 6 5.756 6s4.863-2 5.657-4.7c.397-1.7-.099-2.9-1.886-4.8-2.977-3-4.863-3.2-7.542-.5zm-98.058 29c-4.267 0-6.947-6.9-3.374-8.9l.141-.088c.929-.58 1.403-.876 1.89-.898.507-.024 1.029.25 2.094.811l.143.075c2.977 1.7 2.282 9-.894 9zm-26.499 13.5c-4.565 4.5-1.985 10.6 3.772 9.1 2.977-.7 5.955-5.6 5.458-8.9-.496-3.4-5.955-3.6-9.23-.2zm64.908-12c-4.962-1.6-6.054-8.7-1.588-10.5 3.176-1.3 4.665-.8 6.849 2.1 3.275 4.4-.298 10-5.261 8.4zm-21.636 10.9c-3.076 3.7.894 10.3 4.665 8 3.573-2.3 2.283-9.4-1.786-9.4-.993 0-2.283.6-2.879 1.4zm61.336-14.8c-.993-2-.894-3 .496-5.1 1.985-3 2.68-3.1 5.657-.6 1.985 1.6 2.184 2.3 1.39 4.7-1.39 4-5.955 4.6-7.543 1zm-20.346 15.9c-1.489 2.3-1.489 2.7 0 5 1.985 3 5.062 3.3 6.55.6 1.39-2.7 1.29-4.7-.595-6.5-2.184-2.3-4.069-2-5.955.9zm39.898 6.9c-1.985-2-1.985-4.4 0-7.2 2.084-3 6.054-2.6 8.634 1 1.886 2.5 1.886 2.8.298 5.2-1.886 3-6.451 3.5-8.932 1zm-19.453 13.5c-1.489 2.8-1.191 4.6.794 6.4 2.481 2.2 4.863 2.1 6.153-.2 1.39-2.7 1.291-4.7-.595-6.5-2.084-2.2-5.062-2-6.352.3zm-42.478 7.8c-2.184-2.8-2.283-5.6-.298-7.6 2.58-2.6 5.459-2.7 8.039-.1 2.382 2.4 2.481 3.8.397 6.8-1.687 2.4-6.451 3-8.138.9zm-39.699-8.5c-1.688 1.7-1.489 5.4.397 7.2 1.786 1.9 2.778 2 5.557.5 1.489-.8 1.787-1.7 1.291-3.7-1.191-4.9-4.467-6.8-7.245-4zm-22.232 29.1c-1.985-1.8-2.283-4.5-.794-7.4 2.183-4 9.925-1.2 9.925 3.7 0 4.8-5.459 7-9.131 3.7zm43.074-8.1c-2.382 2.4-.397 8.8 2.779 8.8 1.588 0 3.969-3.2 3.969-5.4 0-2.6-1.687-4.6-3.969-4.6-.894 0-2.085.5-2.779 1.2zm-18.163 28.8c-3.672 0-5.359-5.1-2.679-7.8.694-.7 2.381-1.2 3.672-1 1.885.2 2.679 1.1 3.374 3.7.993 3.9-.099 5.1-4.367 5.1zm57.266-27.8c-2.084 2.9-1.985 5.1.199 7.1 2.779 2.5 6.848 2.1 8.734-.7 3.672-5.8-5.062-12.1-8.933-6.4zm-20.445 27.8c-2.58-2.6-2.481-4.6.397-7.5 2.978-3 6.253-2.3 8.436 1.7 1.291 2.3 1.291 2.9-.198 5.2-2.084 3.2-5.856 3.4-8.635.6zm63.519-28.5c-2.481 3 1.886 9.9 5.062 7.9 1.885-1.1 2.977-5.4 1.885-7.5-1.29-2.3-5.16-2.5-6.947-.4zm-16.177 26.5c-3.176 0-4.864-1.8-3.573-4.2 1.191-2.2 4.168-2.4 5.855-.3 1.688 2.1.497 4.5-2.282 4.5zm15.78 15.6c-.992 2.7-.695 4.3 1.39 6.4 3.572 3.6 7.84-.5 5.954-5.5-.694-1.9-1.687-2.5-3.87-2.5-1.687 0-3.077.6-3.474 1.6zm-21.636 27.7c-2.183-2-2.283-4.2-.199-7.1 2.085-3 6.055-2.6 8.635 1 1.886 2.5 1.886 2.8.298 5.2-1.886 3-5.955 3.5-8.734.9zm-19.552-27.1c-1.191 3.1.199 6.2 2.779 6.6 2.779.4 5.062-1.4 5.062-4.2 0-4.7-6.253-6.6-7.841-2.4zm-20.743 23.8c-.297-2.4.199-3.8 1.39-4.7 2.282-1.7 2.878-1.6 4.764.3 3.176 3.2.794 8.9-3.474 8.2-1.886-.2-2.481-1-2.68-3.8zm-20.842-25.4c-4.069 2.8-1.985 10.4 2.878 10.4 2.482 0 5.856-3.4 5.856-5.9 0-1.7-4.168-6.1-5.856-6.1-.397 0-1.687.7-2.878 1.6zm-15.88 29.4c-4.267 0-6.947-6.9-3.374-8.9l.141-.088c.929-.58 1.403-.876 1.89-.898.507-.024 1.029.25 2.094.811l.143.075c2.977 1.7 2.282 9-.894 9zm-23.918-29.4c-3.871 2.8-2.085 8.4 2.58 8.4 4.367 0 5.161-7.7.893-9.3-.694-.3-2.282.1-3.473.9zm-19.85 29.5c-2.382-1.3-3.474-5.5-2.084-8.1 1.489-2.8 6.55-2.7 7.94.1 2.481 4.5-1.787 10.2-5.856 8zm141.429 11.8c-2.581 2.9-1.688 7.3 1.588 8.5 4.366 1.5 7.741-.6 7.741-4.8 0-5.4-5.756-7.6-9.329-3.7zm-19.056 27.6c-1.39-2.1-1.489-3.1-.496-5.1.893-2 1.687-2.5 3.771-2.2 3.772.4 5.36 4.9 2.779 7.8-2.382 2.7-4.069 2.5-6.054-.5zm-20.048-27.9c-2.978 2.1-2.779 5.2.397 6.6 4.962 2.3 8.436-3.8 3.871-6.8-1.787-1.2-2.382-1.1-4.268.2zm-22.033 25c0-1.8.297-3.6.694-3.9 1.092-1.1 4.764-.8 6.055.5 3.275 3.3-.695 10-4.665 7.8-1.489-.7-2.084-2-2.084-4.4zm-19.552-24.9c-2.084.8-1.588 7.1.695 8.3 2.878 1.6 5.954-.4 5.954-3.8 0-4.3-2.778-6.1-6.649-4.5zm-22.629 27.3c-1.588-3.1-1.885-6.2-.794-7.3 1.191-1.3 6.65-.7 8.436 1 2.184 2 2.382 7.6.298 9.3-2.183 1.9-6.252.4-7.94-3zm-19.155-26.8c-3.076 3.1.1 9.5 4.169 8.2 3.374-1 3.97-2.1 2.977-5.6-.694-2.4-1.588-3.4-3.374-3.6-1.39-.2-3.077.3-3.772 1zm2.879 52.3c-5.856-1.4-7.94-8.7-3.276-11.1 2.978-1.5 5.757-.7 7.643 1.9 3.275 4.7.496 10.4-4.367 9.2zm39.203-11.2c-2.184 1.6-1.787 6.5.694 8.1 3.871 2.5 7.543-4.3 4.169-7.8-1.985-1.9-2.581-2-4.863-.3zm-22.43 24.6c0-1 .694-2.5 1.588-3.3 1.984-2.1 2.679-2 4.763.3 2.184 2.5 1.787 7.5-.694 7.9-2.283.5-5.657-2.5-5.657-4.9zm62.228-24.7c-2.779 2.2-3.176 6.3-.794 8.7 3.474 3.5 8.039 2.2 9.528-2.6.397-1.7-.099-2.9-1.886-4.8-2.779-2.8-4.367-3.1-6.848-1.3zm-17.17 29.8c-3.573 0-4.863-7-1.588-8.9 2.283-1.4 2.779-1.4 4.566.5 3.176 3.2 1.389 8.4-2.978 8.4zm61.137-31.3c-5.359 2-6.749 8.1-2.481 10.9 5.359 3.5 10.421 1.2 10.421-4.8 0-4.6-3.871-7.6-7.94-6.1zm-22.033 29.6c-2.184-2-2.283-3.2-.199-6.1 1.886-2.7 2.779-2.8 5.36-.2 2.283 2.3 2.382 3.3.992 6.1-1.29 2.3-3.672 2.4-6.153.2zm-124.259-6.1c-2.084 2.9-1.985 4.1.199 6.1 2.481 2.2 4.863 2.1 6.153-.2 1.39-2.8 1.29-3.8-.992-6.1-2.581-2.6-3.474-2.5-5.36.2zm-43.272 3.1c0-.7.893-2.2 1.985-3.3 2.382-2.4 3.375-2.5 5.359-.4 2.879 2.9 1.39 8.4-2.282 8.4-1.886 0-5.062-2.9-5.062-4.7zm-39.1037-4c-3.8707 2.9.0992 10.6 4.1684 8.1 2.3819-1.6 2.7789-6.5.5955-8.1-.9925-.7-2.0842-1.3-2.382-1.3-.2977 0-1.3895.6-2.3819 1.3zm-35.233 5.1c-2.5805 3.1-7.8406.9-6.4512-2.8.794-2 3.3745-2.1 5.8557-.2 1.588 1.2 1.6872 1.6.5955 3zm-28.8812-25.4c-2.6797 2.7-2.5805 6.5.1985 8.4 2.8782 2.1 5.0616 2 7.0466-.2 2.6797-3 2.1834-6.9-1.2902-8.7l-.1515-.078c-1.8628-.965-2.7215-1.409-3.4657-1.263-.6365.126-1.1892.683-2.2148 1.717zm47.1429 9.2c-5.3594 2.4-10.1233-5.4-5.8556-9.6 2.0842-2.2 3.7714-2 6.9474.7 2.1834 1.9 2.5804 2.9 1.9849 5.1-.2977 1.5-1.6872 3.2-3.0767 3.8zm36.622-10.4c-1.29.8-3.374 4.6-3.374 6.1 0 1.8 3.871 5.1 5.955 5.1 2.382 0 5.955-3.4 5.955-5.5 0-1.9-4.367-6.5-6.154-6.5-.694 0-1.786.4-2.382.8zm40.494 9.6c-2.779-1.9-2.779-5.8-.1-8.5 3.276-3.3 8.834-.7 8.834 4.2 0 5.2-4.367 7.4-8.734 4.3zm21.537-28.3c-1.588 3.1.297 6.9 3.572 6.9 1.688 0 2.879-.8 3.573-2.4 1.489-3.2-.397-6.6-3.573-6.6-1.488 0-2.878.9-3.572 2.1zm-39.303 7.2c-2.183-.9-3.473-5.1-2.282-7.4 1.191-2.2 5.16-2.5 6.848-.6 2.084 2.6 1.687 6-.794 7.3-1.29.7-2.978 1-3.772.7zm-44.5621-7.8c-1.2902 1.3-2.382 3.1-2.382 4 0 2.1 3.573 5.5 5.9549 5.5 2.1835 0 5.9549-3.3 5.9549-5.3 0-2.1-2.7789-5.4-5.0616-6-1.3895-.4-2.8782.2-4.4662 1.8zm-39.0045 6.9c-1.985-1.5-2.8782-6.2-1.3895-7.7.2978-.4 1.8857-.7 3.3744-.7 3.4737 0 5.2602 2.8 3.97 6.3-1.191 3.2-3.3745 3.9-5.9549 2.1zm-21.9339-27.5c-1.5879 3-1.1909 5.9.8933 7.1 2.8782 1.5 3.8707 1.3 5.6571-1.5 1.3895-2.1 1.4887-3.1.5955-5-1.3895-3.1-5.6571-3.4-7.1459-.6zm37.7143 3.3c0-2.2 3.573-5.8 6.4512-6.4 4.9624-1.2 9.0315 5.3 6.3518 10-2.0842 3.8-6.9473 4.2-10.3218.8-1.3894-1.4-2.4812-3.4-2.4812-4.4zm45.2572-3.1c-1.588 2.4-.893 5.7 1.687 7.3 1.985 1.3 5.657-1.8 5.657-4.9 0-4.5-4.764-6.1-7.344-2.4zm41.188 4.8c-1.29-2.4-1.29-2.9.198-5.3 1.985-3 4.268-3.3 6.849-.9 3.572 3.2 1.29 9.8-3.176 9.1-1.291-.1-3.077-1.5-3.871-2.9zm-19.949-25.9c-2.283 2.3-2.382 3.3-.992 6.1 2.183 3.9 7.939 1.4 7.939-3.5 0-1.6-2.58-4.6-4.069-4.6-.496 0-1.786.9-2.878 2zm-34.9354 4.8c-2.5804 2.6-7.6421 0-6.3518-3.3.6947-2.1 3.8706-1.9 5.8556.3 1.2902 1.4 1.3895 2.1.4962 3zm-50.6164-6.8c-2.0842 1.3-2.382 6.8-.4962 9.4.9924 1.3 2.3819 1.7 6.1533 1.4 4.7639-.3 4.9624-.4 5.2602-3.4.1985-1.8-.397-3.9-1.4887-5.2-2.0842-2.6-7.0466-3.7-9.4286-2.2zm-18.5594-10.1c-3.3744-1.9-3.8707-6.1-1.191-8.8l.1285-.13c1.0857-1.094 1.663-1.676 2.3254-1.802.7522-.142 1.6141.304 3.4546 1.257l.1457.075c3.9699 2.1 4.1684 6.7.3969 9.2-2.3819 1.5-2.8781 1.5-5.2601.2zm42.3789-9.8c-2.0842 1.2-2.3819 5.9-.5954 7.7 1.6872 1.7 5.4586 1.5 6.1534-.4 1.1909-3.1.5954-6.3-1.2903-7.4l-.1432-.075c-1.065-.561-1.5863-.835-2.094-.811-.4865.022-.9606.318-1.8888.898zm44.9593 10.4c-6.649 2.1-11.016-7.3-4.764-10.3.078-.039.154-.078.227-.115l.253-.128c1.161-.589 1.694-.859 2.21-.832.437.024.862.259 1.647.694l.006.003c.101.056.208.115.322.178 4.466 2.4 4.466 9.1.099 10.5zm35.63-9.5c-2.878 2.9-2.282 7.1 1.29 8.8 3.772 1.8 7.643-.5 7.643-4.7 0-5-5.558-7.5-8.933-4.1zm21.339-12.5c-2.68-2.6-3.176-6.4-1.291-8.3 2.085-2.1 7.444-1.5 9.131 1 4.863 6.9-2.084 13.2-7.84 7.3zm-41.188-7.5c-1.39 2.6-.497 5.7 2.183 7.1 3.871 2.1 7.741-4.7 4.565-7.9-1.885-1.9-5.557-1.4-6.748.8zm-39.8981 6.8c-3.176-1.1-3.176-1.3-1.6873-5.7 1.8857-5.3 7.8406-3.7 7.8406 2.1 0 3.5-2.3819 4.9-6.1533 3.6zm-41.4858-6.3c-1.5879 2 .2978 4.5 3.4737 4.5 2.9775 0 3.7714-2.4 1.588-4.4-2.1835-2-3.4737-2-5.0617-.1zm101.4319-14.1c-2.382-1.6-2.779-4.4-1.191-7.5 1.29-2.3 6.153-2.6 8.337-.3 1.885 1.8 2.084 6.5.397 8.2-1.688 1.7-4.864 1.5-7.543-.4zm-40.791-7.2c-.497 1.3-.497 3 0 3.9 2.282 4.5 6.352 4.6 7.543.1.794-3.3-.794-5.6-4.07-6-1.985-.3-2.779.2-3.473 2zm-41.7837 2.5c0-1.9.2977-3.7.6947-4 1.0917-1.1 4.7639-.8 6.0542.5 1.6872 1.7 1.4887 6.3-.2978 7.8-2.6797 2.3-6.4511-.3-6.4511-4.3zm-19.6511-24.5c-1.8858 1.9-1.4888 6.6.6947 7.8 2.8782 1.5 3.8707 1.3 5.6571-1.5 1.4888-2.3 1.4888-2.7 0-5-1.7864-2.7-4.4661-3.2-6.3518-1.3zm43.7683 5.8c-3.4737-2-3.7715-3.5-1.3895-5.9 2.4812-2.5 2.9774-2.6 5.8556-.5 2.6797 1.9 2.779 3.6.0993 6-1.7865 1.7-2.2827 1.7-4.5654.4zm37.1185-4.2c-4.267 4.5-3.076 9.2 2.283 9.2 2.779 0 4.764-1.8 6.848-5.8 3.176-6.1-3.97-8.8-9.131-3.4zm43.868 5.3c-2.283-2.8-2.382-4.5-.298-6.5 2.283-2.4 5.26-1.9 6.551 1 1.29 2.8.496 5-2.581 6.8-1.389.9-2.084.6-3.672-1.3zm-22.629-26.5c-4.863 4.1-3.672 9.4 1.886 9.4 2.978 0 5.26-2.1 6.749-6.1 2.184-5.8-3.275-7.9-8.635-3.3zm-39.897 5.5c-1.985-2.4-1.687-5.9.496-7.3 3.176-2.2 6.55.1 6.55 4.4 0 2.1-.694 3.2-2.58 4-2.283 1.1-2.878 1-4.466-1.1zm-41.486-6.7c-3.0767 3.7.8932 10.3 4.6647 8 3.5729-2.3 2.2827-9.4-1.7865-9.4-.9925 0-2.2827.6-2.8782 1.4zm-17.3684-12.4c-3.8707 0-6.1534-6-3.3744-8.8 1.3894-1.4 1.9849-1.5 4.1684-.6 4.4661 1.7 3.7714 9.4-.794 9.4zm38.7067-8.7c-3.8707 2.9.0992 10.6 4.1684 8.1 2.3819-1.6 2.7789-6.5.5955-8.1-.9925-.7-2.0842-1.3-2.382-1.3-.2977 0-1.3895.6-2.3819 1.3zm40.0967 4.2c0-1.7.297-3.5.694-3.8 1.291-1.3 4.268-.7 6.352 1.4 2.878 2.9 2.283 8.3-.893 8.7-3.275.5-6.153-2.5-6.153-6.3zm42.18-3.5c-2.382 2.7-1.29 6.8 2.184 7.6 4.565 1.2 7.046-4.6 3.473-7.9-2.382-2.2-3.473-2.1-5.657.3zm-22.132-12.6c-2.779-1.9-2.779-5.8-.1-8.5 3.276-3.3 8.834-.7 8.834 4.2 0 5.2-4.367 7.4-8.734 4.3zm-40.593-8.4c-4.367 2.6-5.359 6.7-2.282 9.2 2.282 1.8 5.061 1.7 7.642-.4 1.687-1.3 3.573-7.6 2.878-9.3-.794-2.1-4.466-1.9-8.238.5zm-36.2254 7.4c-4.0692 2.5-8.0391-5.2-4.1684-8.1.9924-.7 2.0842-1.3 2.3819-1.3.2978 0 1.3895.6 2.382 1.3 2.1834 1.6 1.7864 6.5-.5955 8.1zm-24.9111-29.2c-2.382 1.3-2.1835 6.3.397 8.2 1.191.8 2.7789 1.2 3.5729.9 1.7865-.7 3.176-4.1 2.5805-6.4s-4.4662-3.9-6.5504-2.7zm37.0194 5.3c0-.9 1.0918-2.7 2.382-4 1.588-1.6 3.0767-2.2 4.4662-1.8 2.2827.6 5.0616 3.9 5.0616 6 0 2-3.7714 5.3-5.9549 5.3-2.3819 0-5.9549-3.4-5.9549-5.5zm44.6621-3.5c-1.39 2.6-.497 5.7 2.183 7.1 3.871 2.1 7.741-4.7 4.565-7.9-1.885-1.9-5.557-1.4-6.748.8zm45.157 7c-3.275 0-5.16-3.8-3.572-6.9.694-1.2 2.084-2.1 3.572-2.1 3.176 0 5.062 3.4 3.573 6.6-.694 1.6-1.885 2.4-3.573 2.4zm-24.216-28.1c-1.29 2.3 0 6.5 2.283 7.4.794.3 2.481-.2 3.771-1.2 1.886-1.6 2.084-2.3 1.29-4.7-1.29-3.7-5.756-4.6-7.344-1.5zm-42.776 7.1c-2.382-2.4-2.481-3.8-.397-6.8 3.871-5.7 12.605.6 8.932 6.4-1.985 3-5.756 3.2-8.535.4zm-41.6842-7.5c-1.7865 2.2-1.4887 6.6.5955 8.2 5.6571 4.2 12.7037-3.3 7.5428-8-2.2827-2.1-6.5503-2.2-8.1383-.2zm-21.8346-17c0-1.7.4963-3.6 1.191-4.3 2.8782-2.9 9.7263.1 9.7263 4.3 0 3.1-2.4812 5.5-5.8556 5.5-3.4737 0-5.0617-1.7-5.0617-5.5zm42.9745-4.3c-2.0843 2.7-2.2828 5.1-.794 7.5 2.1834 3.3 7.2451 2.9 9.3293-.8 1.2902-2.4 1.2902-2.9-.1985-5.3-1.8857-2.8-6.6496-3.6-8.3368-1.4zm41.1883 8.1c-2.283-2-2.283-5.1-.1-7.5 2.283-2.6 6.055-1.9 8.536 1.4 1.885 2.5 1.885 2.8.297 5.2-1.885 3-5.954 3.5-8.733.9zm41.585-7.5c-3.474 3.8-.794 9.2 4.565 9.2 4.367 0 6.352-6.2 2.878-9.3-2.382-2.2-5.458-2.1-7.443.1zm-21.537-14.7c-1.489-2.9-1.191-4.9.992-7.1 1.092-1.1 2.878-2 3.97-2 2.382 0 5.955 3.4 5.955 5.7 0 4.8-8.734 7.5-10.917 3.4zm-37.913-8c-2.68 1.5-2.382 7.4.397 9.3 1.886 1.3 2.481 1.4 4.268.2 2.977-2 3.176-7 .297-9-2.58-1.9-2.679-1.9-4.962-.5zm-43.4707 4.9c0-1.8.794-3.4 2.1834-4.4 1.191-.9 2.5805-1.6 2.9775-1.6 1.5879 0 4.7639 4 4.7639 6s-3.176 6-4.7639 6c-2.2827 0-5.1609-3.4-5.1609-6zm-18.6587-25.4c-1.5879 1.1-2.1834 2.5-2.1834 5.4 0 6.9 5.8556 9.5 9.9248 4.3 2.4812-3.2 1.9849-6.9-1.191-9.6-2.4812-2.1-3.6722-2.1-6.5504-.1zm45.2571 8.8c-4.0692 2.5-8.0391-5.2-4.1684-8.1.9924-.7 2.0842-1.3 2.3819-1.3.2978 0 1.3895.6 2.382 1.3 2.1834 1.6 1.7864 6.5-.5955 8.1zm34.9353-7.4c-2.58 2.6-2.481 5.5.099 8.1 2.085 2.1 6.054 2 8.238-.1 1.687-1.6.893-6.4-1.39-8.2-2.878-2.3-4.466-2.3-6.947.2zm48.235 8.6c-5.459 3.5-11.315-3.9-6.948-8.7 2.085-2.3 4.169-2.4 7.146-.3 3.077 2.1 2.978 6.9-.198 9zm-26.301-28.7c-1.687 3.1.198 7.1 3.374 7.1 3.077 0 5.459-4.2 3.772-6.8-1.489-2.5-5.856-2.7-7.146-.3zm-39.699 7.2c-2.382-1.3-2.978-6.8-.894-8.9.695-.7 2.085-1.2 3.276-1.2 2.977 0 4.466 1.9 4.466 5.7 0 4.1-3.375 6.2-6.848 4.4zm-43.9672-8.4c-2.779 3.3-2.8782 5.3-.2978 7.9 2.8782 2.9 4.8632 3 7.4436.4 3.176-3.2 2.4813-6.6-1.6872-8.9-2.8782-1.5-3.6721-1.4-5.4586.6zm-17.5669-10.7c-3.97 0-6.7489-6.9-3.8707-9.8 3.0767-3.1 9.7263-.1 9.7263 4.4 0 2.4-3.2752 5.4-5.8556 5.4zm38.012-9.5c-1.2902 1.3-2.382 3.1-2.382 4 0 2.1 3.573 5.5 5.9549 5.5 2.1835 0 5.9549-3.3 5.9549-5.3 0-2.1-2.7789-5.4-5.0616-6-1.3895-.4-2.8782.2-4.4662 1.8zm43.4711 7.3c-1.588-1.6-1.489-8.5.099-9.1 5.657-2.3 9.627 2.7 6.649 8.4-1.191 2.1-4.962 2.5-6.748.7zm40.493-6.7c-1.886 3.4.198 6.9 3.97 6.9 3.573 0 4.565-1.8 3.275-5.7-1.191-3.7-5.558-4.4-7.245-1.2zm-21.636-13.7c-2.382-1.6-2.779-4.4-1.191-7.5 1.29-2.3 6.153-2.6 8.337-.3 1.885 1.8 2.084 6.5.397 8.2-1.688 1.7-4.864 1.5-7.543-.4zm-41.288-9.1c-2.084 1.6-2.381 6-.595 8.2 2.68 3.3 9.925.4 9.925-3.9 0-4.6-5.558-7.1-9.33-4.3zm-41.6837 9.4c-2.0842-1.6-2.382-6-.5955-8.2 1.588-2 5.8556-1.9 8.1383.2 5.1609 4.7-1.8857 12.2-7.5428 8zm-20.6436-29.6c-1.985 1.1-2.2827 5-.794 8 1.2902 2.3 6.1534 2.6 8.3368.3 4.7639-4.7-1.6872-11.8-7.5428-8.3zm43.8675 7.9c-2.2827-1.2-2.7789-7.5-.6947-8.3 3.8707-1.6 6.6496.2 6.6496 4.5 0 3.4-3.0767 5.4-5.9549 3.8zm40.8908-8.8c-.695.7-1.191 2.6-1.191 4.3 0 3.6 1.488 5.5 4.466 5.5 2.779 0 4.466-1.9 4.466-5 0-4.5-4.962-7.6-7.741-4.8zm43.669 7.4c-2.68-.9-3.474-3.2-1.588-5.1 1.588-1.5 4.466-.8 5.955 1.6.992 1.7-2.085 4.2-4.367 3.5zm-25.309-26.8c-3.473 3.8-.992 9.2 4.169 9.2 1.489 0 3.176-.5 3.871-1.2 1.985-2 1.389-6.5-.993-8.2-2.878-2.1-5.062-2-7.047.2zm-34.439 5.7c-3.672 1.2-6.352-2.7-3.771-5.3.893-.9 1.687-.9 3.176.2 2.878 1.9 3.077 4.3.595 5.1zm-47.2418-6.7c-.5955.4-1.588 1.7-2.2827 3-1.8857 3.6.8932 7.2 5.3594 7.2 5.2601 0 7.2451-5.2 3.4737-9-2.0843-2.1-4.6647-2.5-6.5504-1.2zm-14.6887-11.2c-5.4587 3.5-11.3143-3.9-6.9474-8.7 1.9849-2.2 2.6797-2.3 5.6571-.8 4.4662 2.4 5.0617 7 1.2903 9.5zm36.3249-9.4c-2.4812 2.5-.5955 8.8 2.5804 8.8 2.5805 0 4.1684-2 4.1684-5.2 0-3.9-4.2676-6.1-6.7488-3.6zm41.0886 6.6c-1.985-2.9-1.985-3.4.397-5.8 1.092-1.1 2.382-2 2.878-2 1.687 0 4.069 3.1 4.069 5.4 0 4.7-4.763 6.2-7.344 2.4zm41.684-6.2c-2.977 3-1.091 8.4 2.978 8.4 3.573 0 5.26-4 2.977-7.5-1.886-2.9-3.771-3.2-5.955-.9zm-20.743-14.4c-1.389-1.5-1.488-2.5-.794-4.6 1.39-3.6 5.658-3.6 7.246 0 2.183 4.8-2.978 8.5-6.452 4.6zm-41.188-7c-1.984 2-1.488 7.6.794 8.8 4.467 2.4 8.933-2.4 6.551-7.1-1.29-2.7-5.36-3.7-7.345-1.7zm-43.371 8.4c-2.5804-2.6-2.4812-4.6.2978-7.9 1.9849-2.3 4.6646-2.2 7.1458.3 2.6797 2.7 2.5805 6.5-.1984 8.4-3.0767 2.2-4.4662 2-7.2452-.8zm-18.0631-29.3c-2.4812 1.1-3.176 5.4-1.0917 7.5 1.9849 2 5.7563 1.4 6.6496-1 1.6872-4.7-1.4887-8.4-5.5579-6.5zm39.4015 4.3c0-1.8.2977-3.6.6947-3.9.2978-.4 1.8857-.7 3.4737-.7 2.382 0 2.9774.5 3.3744 3 .8933 4.3.8933 4.4-1.5879 5.7-3.4737 1.7-5.9549 0-5.9549-4.1zm41.6846-2c-1.291 3.3.297 6.4 3.275 6.4 2.878 0 4.664-1.8 4.664-4.5 0-4.8-6.252-6.4-7.939-1.9zm39.699 1.6c0-5.2.496-6.3 3.474-8 5.359-2.9 9.924 6.8 5.855 12.6-1.588 2.4-4.367 2.8-7.443 1.2-1.489-.8-1.886-2.1-1.886-5.8zm-20.842-23.3c-1.489 2.9-1.191 5.6.794 7.4 3.076 2.9 6.848 2.1 8.932-1.8 1.092-2.1.099-5.2-2.183-6.7-2.184-1.5-6.452-.8-7.543 1.1zm-38.211 8.7c-3.672-1-5.161-4.8-3.076-8.1 1.091-1.7 2.481-2.5 4.565-2.5 4.069 0 6.749 4 5.161 7.6-1.39 3-3.275 3.8-6.65 3zm-44.1652-9.1c-1.7865 2.2-1.4887 6.6.5955 8.2 5.6571 4.2 12.7037-3.3 7.5428-8-2.2827-2.1-6.5503-2.2-8.1383-.2zm-15.4827-11.5c-5.6571 0-8.0391-4-5.3594-9.1 1.2902-2.3 4.6647-2.5 7.7413-.3 3.8707 2.7 2.1835 9.4-2.3819 9.4zm38.5082-9.8c-1.6873 1.7-1.4888 6.3.2977 7.8 1.191 1 2.0842 1 4.4662 0 2.4812-1.1 2.8782-1.6 2.3819-3.9-1.1909-4.9-4.3669-6.7-7.1458-3.9zm39.3027 8.1c-2.184-2-2.283-4.2-.199-7.1 2.581-3.8 7.444-2.7 9.23 1.9 1.985 5.4-4.565 9.3-9.031 5.2zm43.272-7.8c-2.283 3.6-.695 7.9 3.076 8.3 5.161.6 7.543-6.2 3.276-9.2-3.077-2.2-4.466-2-6.352.9zm-16.277-10.7c-6.352.5-10.123-5.6-6.054-9.7 2.58-2.6 4.069-2.6 7.444 0 2.183 1.7 2.679 2.8 2.382 5.8-.298 3.3-.596 3.6-3.772 3.9zm-45.555-10.9c-3.076 2-.794 9.1 2.978 9.1 3.473 0 5.061-5.7 2.282-8.4-1.687-1.8-3.176-2-5.26-.7zm-37.0193 8.5c-3.573 2.2-7.6421-5.1-4.5654-8.2 1.5879-1.6 4.2676-1.5 5.6571.2 1.6872 2 .9925 6.7-1.0917 8zm-25.3083-30.3c-3.0767 1.1-4.4662 4.2-3.2752 7.3 1.8857 5.1 10.9173 2.5 10.9173-3.1 0-3.4-3.9699-5.6-7.6421-4.2zm42.6767 9.3001c-2.4812-1.6-2.8782-6.5-.6947-8.1.9924-.7 2.0842-1.3 2.3819-1.3.2978 0 1.3895.6 2.382 1.3 3.8706 2.9-.0993 10.6-4.0692 8.1zm40.2949-7.3001c-2.978 3-1.092 7.8 3.176 7.9 3.672 0 5.26-5.5 2.282-8.4-1.984-2.1-2.977-2-5.458.5zm44.364 7.9c-4.566 0-6.154-8.2-1.787-9.3.658-.2209 1.423-.3875 1.939-.5.185-.0403.339-.0736.443-.1.397 0 1.489 1 2.382 2.4 2.283 3.5.596 7.5-2.977 7.5zm-24.515-29.5999c-4.366 2.1-3.275 9 1.688 10.2 3.176.8 6.352-2 6.352-5.6 0-4.3-4.07-6.6-8.04-4.6zm-35.729 8.6998c-5.161 2.7-10.52-2.9-7.344-7.7 2.084-3.2 7.84-3.4 9.428-.3 1.489 2.8.497 6.6-2.084 8zm-47.7382-8.4c-2.779 3.3-2.8782 5.3-.2978 7.9 2.8782 2.9 4.8632 3 7.4436.4 3.176-3.2 2.4813-6.6-1.6872-8.9-2.8782-1.5-3.6721-1.4-5.4586.6zm-43.4707 5.9001c-.8932-2.5-.2977-4.6 1.7865-6.4 1.9849-1.5 6.3519-1.6 7.9398 0 .6948.7 1.191 2.5 1.191 4 0 2.3-.6947 3.2-3.0767 4.2-3.8707 1.7-6.7489 1-7.8406-1.8zm-17.86469 15.3c-1.38947 2.8-1.29022 5.6.397 7.1 4.26767 3.5 9.82559-2.8 6.05413-7-2.2827-2.5-5.06165-2.6-6.45113-.1zm19.05569 28.9c-1.6872-1.7-1.4887-6.4.397-8.2 3.1759-3.3 9.3293-.5 9.3293 4.3 0 3.5-1.6872 5.1-5.4586 5.1-1.6873 0-3.573-.5-4.2677-1.2zm5.5579 42c-3.573.7-6.3519-5.8-3.573-8.6 1.7865-1.8 4.2677-1.5 6.3519.9 1.6872 1.9 1.6872 2.3.2978 4.7-.794 1.5-2.1835 2.8-3.0767 3zm-23.62111 12.2c-2.38196 2.4-2.58046 5.3-.397 7.4 1.98497 2.1 2.97745 2 5.3594-.4 2.18351-2.2 2.38201-3.3.99248-5.9-1.48872-2.9-3.77143-3.3-5.95488-1.1zm24.41501 30.2c-5.7564 2.6-10.5203-6-5.3594-9.6.2735-.194.5129-.368.7257-.523.8114-.59 1.2355-.899 1.688-.949.4955-.055 1.0251.199 2.1346.732.2143.103.4503.216.7118.34 4.5654 2.1 4.5654 7.9.0993 10zm-24.81197 11.4c-3.275182 3.2-1.38947 8.4 3.07669 8.4 3.47368 0 5.06168-4.1 2.8782-7.5-1.88571-2.9-3.77143-3.2-5.95489-.9zm18.26167 28.5c-1.3895-2.8-1.191-5.2.6947-7.3 1.985-2.2 4.1684-2.3 7.0466-.2 2.382 1.7 2.9775 6.2.9925 8.2-1.9849 2-7.5428 1.5-8.7338-.7zm-17.96387 13c-3.374441 3.4-.29775 10.7 3.87067 9.2 4.2676-1.5 5.3594-6.1 2.18341-9.3-2.48115-2.5-3.47363-2.5-6.05408.1zm20.54427 28.3c-1.8857-1.8-1.9849-3.8-.5955-6.5 1.4888-2.8 5.7564-2.5 7.1459.6.8932 1.9.794 2.9-.5955 5-1.8857 2.9-3.7714 3.2-5.9549.9zm-19.45258 12.4c-3.57294 1.2-4.069174 6.3-.79399 8.6 2.97744 2.1 3.47369 2 5.3594-.9 2.58047-3.9-.49624-9.1-4.56541-7.7zm23.52178 28.2c-2.9774 0-4.9624-2.2-4.0692-4.4.794-2 4.6647-2.1 6.3519-.1 1.6872 2.1.4963 4.5-2.2827 4.5zm-6.2526 43.5c-2.6797-2.7-2.5805-5.4.397-8.8 2.1834-2.5 7.6421-2.2 9.5278.5s2.0842 7.9.397 9.6c-2.0842 2.1-7.6421 1.4-10.3218-1.3zm-19.05559 12.7c-2.481208 2.5-.59549 8.8 2.77895 8.8 2.38195 0 4.96244-2.6 4.96244-5 0-3.9-5.16094-6.4-7.74139-3.8zm21.23899 28.2c-1.8857-1.8-1.9849-3.8-.5955-6.5 1.4888-2.8 5.7564-2.5 7.1459.6.8932 1.9.794 2.9-.5955 5-1.8857 2.9-3.7714 3.2-5.9549.9zm-19.45258 12.4c-3.57294 1.2-4.069174 6.3-.79399 8.6 2.97744 2.1 3.47369 2 5.3594-.9 2.58047-3.9-.49624-9.1-4.56541-7.7zm20.94128 30.3c-3.2752-1.8-4.0692-6-1.4888-8.5 1.985-2.1 2.9775-2 5.3594.4 2.4812 2.5 2.4812 4.5 0 7-1.5879 1.6-2.4812 1.8-3.8706 1.1zm-23.12471 13.4c-1.38948 3 .29774 5.5 3.67218 5.5 3.47364 0 4.56533-3.8 1.88571-6.4-2.18346-2.3-4.26767-2-5.55789.9zm19.05561 27.6c-1.3895-2.8-1.191-5.2.6947-7.3 1.985-2.2 4.1684-2.3 7.0466-.2 2.382 1.7 2.9775 6.2.9925 8.2-1.9849 2-7.5428 1.5-8.7338-.7zm-18.65865 13.1c-1.68722 1.7-1.48872 5.3.39699 7.2 2.08421 2.1 3.67218 2 5.85564-.4 3.77142-4.2-2.28271-10.8-6.25263-6.8zm19.45265 29.1c-1.985-1.8-2.2827-4.5-.794-7.4 2.1834-4 9.9248-1.2 9.9248 3.7 0 4.8-5.4586 7-9.1308 3.7zm-18.26166 14.2c-.99248 2.5.39699 4.5 3.07669 4.5 2.97747 0 4.26767-2.4 2.48118-4.5-1.58795-1.9-4.86314-1.9-5.55787 0zm-3.573004 47.1c-.79398439-2-.79398439-3.2 0-5.1 2.481204-5.5 11.512864-1.5 9.527864 4.3-.79403 2.2-1.58801 2.8-4.66471 3-3.07669.3-3.87067-.1-4.863154-2.2zm3.175974 34.4c-2.8782 2.9-2.58046 6.8.49624 8 4.3669 1.7 7.44365-1.4 5.95495-6-1.0918-3.4-4.06924-4.4-6.45119-2zm.89319 51.9c-4.9624029-2-6.25263-6.5-2.8782-9.9 2.58045-2.6 4.56542-2.5 7.44361.5 5.26009 5.2 1.88569 12.1-4.56541 9.4z" fill-rule="evenodd"/></g></svg>