<?xml version="1.0" encoding="utf-8"?>
<!-- Generator: Adobe Illustrator 16.0.4, SVG Export Plug-In . SVG Version: 6.00 Build 0)  -->
<!DOCTYPE svg PUBLIC "-//W3C//DTD SVG 1.1//EN" "http://www.w3.org/Graphics/SVG/1.1/DTD/svg11.dtd">
<svg version="1.1" id="Layer_1" xmlns="http://www.w3.org/2000/svg" xmlns:xlink="http://www.w3.org/1999/xlink" x="0px" y="0px"
	 width="320px" height="200px" viewBox="0 0 320 200" enable-background="new 0 0 320 200" xml:space="preserve">
<g>
	<path fill="#FFFFFF" d="M57.823,91.353v17.268h4.756v-5.312h4.26c9.135,0,13.785-2.931,13.785-6.169
		c0-3.482-4.996-5.786-13.374-5.786H57.823z M62.579,101.443v-8.162h3.743c3.863,0,8.961,0.654,8.961,3.858
		c0,2.172-1.653,4.304-9.582,4.304H62.579z"/>
	<path fill="#FFFFFF" d="M107.738,108.621v-2.176H96.016c-2.512,0-3.241-1.139-3.241-3.068v-2.527h13.756v-2.167H92.774v-5.161
		h14.377v-2.169h-19.13v12.127c0,3.246,1.343,5.141,5.721,5.141H107.738z"/>
	<path fill="#FFFFFF" d="M138.164,91.353h-4.754v14.575c-1.31,0.451-3.064,0.865-5.618,0.865c-3.652,0-7.275-0.932-7.275-4.139
		V91.353h-4.751V103c0,4.758,4.751,6.168,9.99,6.168c5,0,9.066-1.037,12.408-2.441V91.353z"/>
	<path fill="#FFFFFF" d="M151.386,100.035c0-4.787,4.071-7.036,9.029-7.036c4.064,0,7.204,1.173,10.171,2.177v-2.896
		c-3.14-0.928-6.106-1.448-10.171-1.448c-7.956,0-14.438,3.653-14.438,9.203c0,5.863,6.481,9.133,14.438,9.133
		c3.969,0,8.134-0.822,10.692-1.477v-6.842h-4.691v5.119c-1.724,0.582-2.964,1.033-5.652,1.033
		C155.351,107.002,151.386,104.314,151.386,100.035"/>
	<path fill="#FFFFFF" d="M199.484,108.621v-2.176h-11.723c-2.511,0-3.238-1.139-3.238-3.068v-2.527h13.755v-2.167h-13.755v-5.161
		h14.375v-2.169H179.77v12.127c0,3.246,1.34,5.141,5.719,5.141H199.484z"/>
	<path fill="#FFFFFF" d="M220.117,90.833c-7.961,0-14.469,3.721-14.469,9.291c0,5.845,6.508,9.044,14.469,9.044
		c7.963,0,14.442-3.199,14.442-9.044C234.56,94.554,228.08,90.833,220.117,90.833 M220.117,107.238
		c-5.413,0-9.064-2.789-9.064-7.115c0-4.743,4.068-7.124,9.064-7.124c4.966,0,9.031,2.381,9.031,7.124
		C229.148,104.449,225.492,107.238,220.117,107.238"/>
	<polygon fill="#FFFFFF" points="238.463,93.833 247.939,93.833 247.939,108.621 252.695,108.621 252.695,93.833 262.177,93.833 
		262.177,91.353 238.463,91.353 	"/>
</g>
</svg>
