<?xml version="1.0" encoding="utf-8"?>
<!-- Generator: Adobe Illustrator 16.0.4, SVG Export Plug-In . SVG Version: 6.00 Build 0)  -->
<!DOCTYPE svg PUBLIC "-//W3C//DTD SVG 1.1//EN" "http://www.w3.org/Graphics/SVG/1.1/DTD/svg11.dtd">
<svg version="1.1" id="Layer_1" xmlns="http://www.w3.org/2000/svg" xmlns:xlink="http://www.w3.org/1999/xlink" x="0px" y="0px"
	 width="320px" height="200px" viewBox="0 0 320 200" enable-background="new 0 0 320 200" xml:space="preserve">
<polygon fill="#FFFFFF" points="59.409,91.059 59.409,94.745 65.456,94.745 77.291,116.941 91.855,116.941 103.691,94.708 
	109.738,94.671 109.75,91.059 91.658,91.059 91.658,94.684 96.477,94.684 88.119,110.463 79.08,94.738 85.672,94.708 85.661,91.059 
	"/>
<polygon fill="#FFFFFF" points="176.129,91.059 176.129,94.745 182.177,94.745 194.012,116.941 208.576,116.941 220.411,94.708 
	226.459,94.671 226.471,91.059 208.38,91.059 208.38,94.684 213.195,94.684 204.84,110.463 195.801,94.738 202.395,94.708 
	202.382,91.059 "/>
<path fill="#FFFFFF" d="M146.372,91.059v3.687h6.047l0.009,18.122h-6.374v4.039l6.378,0.035h30.193v-12.049c0,0-0.744,0-3.934,0
	c-0.215,6.381-5.75,7.982-8.078,7.982c-2.137,0-6.275-0.008-6.275-0.008V94.738l5.957-0.03l-0.01-3.649H146.372L146.372,91.059z"/>
<path fill="#FFFFFF" d="M126.013,90.333c-10.279,0-18.61,6.12-18.61,13.667s8.332,13.667,18.61,13.667
	c10.278,0,18.612-6.12,18.612-13.667S136.292,90.333,126.013,90.333L126.013,90.333z M125.747,113.645
	c-3.624,0-6.559-4.34-6.559-9.696c0-5.358,2.936-9.701,6.559-9.701s6.56,4.343,6.56,9.701
	C132.307,109.305,129.37,113.645,125.747,113.645L125.747,113.645z"/>
<path fill="#FFFFFF" d="M242.736,90.109c-10.28,0-18.609,6.22-18.609,13.892c0,7.669,8.329,13.89,18.609,13.89
	c10.277,0,18.609-6.221,18.609-13.89C261.348,96.329,253.014,90.109,242.736,90.109L242.736,90.109z M242.469,113.802
	c-3.621,0-6.558-4.411-6.558-9.858c0-5.442,2.937-9.855,6.558-9.855c3.623,0,6.559,4.413,6.559,9.855
	C249.027,109.391,246.092,113.802,242.469,113.802L242.469,113.802z"/>
</svg>
