<?xml version="1.0" encoding="utf-8"?>
<!-- Generator: Adobe Illustrator 16.0.4, SVG Export Plug-In . SVG Version: 6.00 Build 0)  -->
<!DOCTYPE svg PUBLIC "-//W3C//DTD SVG 1.1//EN" "http://www.w3.org/Graphics/SVG/1.1/DTD/svg11.dtd">
<svg version="1.1" id="Layer_1" xmlns="http://www.w3.org/2000/svg" xmlns:xlink="http://www.w3.org/1999/xlink" x="0px" y="0px"
	 width="320px" height="200px" viewBox="0 0 320 200" enable-background="new 0 0 320 200" xml:space="preserve">
<g>
	<path fill="#FFFFFF" d="M233.592,75.521c-10.627,0-19.259,8.633-19.259,19.251c0,10.619,8.632,19.253,19.259,19.253
		c10.605,0,19.25-8.635,19.25-19.253C252.842,84.154,244.197,75.521,233.592,75.521 M248.61,84.029
		c-0.99,0.663-2.033,1.265-3.11,1.793c-0.628-1.271-1.401-2.48-2.295-3.596c0.791-0.48,1.545-1.018,2.242-1.606
		C246.642,81.623,247.708,82.769,248.61,84.029 M240.507,77.641c1.536,0.62,2.99,1.456,4.312,2.478
		c-0.662,0.543-1.378,1.045-2.12,1.497c-0.942-1.086-2.012-2.07-3.171-2.93C239.888,78.359,240.206,78.013,240.507,77.641
		 M242.002,82.012c-1.04,0.557-2.129,1.014-3.247,1.355c-0.468-1.071-1.011-2.125-1.601-3.141c0.61-0.273,1.206-0.617,1.752-1.025
		C240.033,80.021,241.073,80.97,242.002,82.012 M239.721,77.346c-0.263,0.311-0.546,0.603-0.847,0.872
		c-1.024-0.698-2.105-1.294-3.232-1.79C237.043,76.583,238.41,76.888,239.721,77.346 M238.22,78.723
		c-0.47,0.329-0.966,0.61-1.483,0.825c-0.558-0.88-1.183-1.746-1.859-2.584C236.045,77.442,237.163,78.032,238.22,78.723
		 M233.982,77.098c0.707,0.859,1.373,1.765,1.995,2.728c-0.654,0.196-1.323,0.317-1.995,0.346V77.098z M233.982,80.967
		c0.83-0.035,1.642-0.188,2.427-0.447c0.584,0.979,1.113,2.005,1.571,3.061c-1.305,0.337-2.651,0.524-3.998,0.556V80.967z
		 M233.183,77.134v3.036c-0.672-0.031-1.322-0.149-1.959-0.345C231.811,78.898,232.471,78,233.183,77.134 M230.461,79.548
		c-0.52-0.218-1.016-0.498-1.475-0.825c1.037-0.688,2.149-1.274,3.32-1.75C231.644,77.794,231.024,78.654,230.461,79.548
		 M231.568,76.42c-1.134,0.499-2.223,1.096-3.248,1.792c-0.312-0.271-0.593-0.566-0.847-0.87
		C228.785,76.88,230.169,76.572,231.568,76.42 M244.762,109.471c-2.556-1.404-2.608-3.352-2.471-4.07
		c0.131-0.727,0.64-0.408,0.952-0.408c1.682,0,3.451-0.5,5.636-2.727c2.459-2.51,3.232-8.097-0.543-11.728
		c-4.08-3.923-8.416-3.236-11.202,0.286c-0.578,0.72-1.971,1.255-3.186,1.212c-1.784-0.069-0.663,1.34-0.663,1.635
		c0,0.298-0.269,0.502-0.424,0.456c-0.61-0.172-0.368,0.729-0.368,1.003c0,0.271-0.251,0.407-0.379,0.407
		c-0.76,0-0.555,0.681-0.532,0.865c0.021,0.182-0.043,0.496-0.292,0.636c-0.242,0.133-0.525,0.726-0.525,1.18
		c0,0.818,0.751,1.387,2.001,2.32c1.249,0.931,1.407,1.818,1.428,2.457c0.026,0.633,0.082,1.658,0.371,2.338
		c0.335,0.816,0.289,2.32-1.438,2.389c-2.111,0.082-5.863,1.771-6.185,1.885c-1.188,0.426-2.754,0.576-3.986,0.264
		c-0.669-0.463-1.296-0.975-1.895-1.521c-0.246-0.85,0.181-1.764,0.613-2.379c0.709,0.705,1.752,0.658,2.342,0.684
		c0.587,0.021,3.48-0.434,3.884-0.572c0.411-0.137,0.593-0.088,0.844,0c1.101,0.404,2.616,0.525,3.224-1.588
		c0.613-2.115-0.841-1.523-1.019-1.432c-0.185,0.092-0.433,0.068-0.339-0.115c0.266-0.539-0.138-0.475-0.365-0.498
		c-0.593-0.059-1.369,0.566-1.615,0.795c-0.251,0.229-0.502,0.205-0.59,0.158c-0.788-0.391-3.118,0.174-3.84-1.09
		c0.064-0.342-0.593-5.477-0.932-6.367c-0.073-0.187-0.148-0.497,0.085-0.84c0.599-0.886,2.229,0.07,3.113,0.048
		c1.062-0.029,1.237-0.472,1.523-0.828c0.281-0.35,0.488-0.156,0.64-0.251c0.19-0.127,0.012-0.374,0.076-0.511
		c0.073-0.14,0.149-0.07,0.33-0.228c0.187-0.162-0.021-0.502,0.07-0.637c0.263-0.397,0.976-0.079,0.543-1.114
		c-0.23-0.568,0.097-1.183,0.412-1.595c0.517-0.661,2.499-3.456-0.999-6.36c-3.35-2.774-6.729-2.548-8.912-0.184
		c-2.182,2.364-1.09,5.817-0.861,6.725c0.23,0.913-0.43,1.738-1.189,2.094c-0.59,0.282-1.956,1.191-2.984,2.086
		c0.17-7.418,4.67-13.938,11.57-16.716c0.292,0.371,0.622,0.717,0.976,1.041c-0.763,0.562-2.441,2.066-2.441,2.066
		s0.225,0.032,0.438,0.084c0.149,0.037,0.465,0.134,0.465,0.134s1.475-1.263,2.169-1.759c0.541,0.409,1.128,0.752,1.756,1.026
		c-0.333,0.571-1.18,2.152-1.18,2.152s0.201,0.111,0.373,0.232c0.17,0.114,0.28,0.216,0.28,0.216s0.917-1.729,1.268-2.307
		c0.771,0.257,1.577,0.406,2.395,0.447v3.168c-0.461-0.016-1.617-0.062-2.091-0.112l-0.295-0.025l0.164,0.244
		c0.128,0.181,0.219,0.363,0.31,0.53l0.037,0.07l0.079,0.003c0.339,0.032,1.398,0.07,1.796,0.077v5.772h0.8v-1.322
		c1.175-0.054,2.152-0.136,3.329-0.239l0.053-0.004l1.037-0.921l-0.563,0.053c-1.247,0.162-2.343,0.236-3.338,0.295
		c0,0-0.342,0.018-0.518,0.028v-3.661c1.446-0.032,2.903-0.233,4.319-0.609c0.389,0.957,1.115,3.266,1.115,3.266l0.754-0.236
		c0,0-0.725-2.294-1.106-3.249c1.197-0.373,2.356-0.863,3.457-1.468c0.879,1.088,1.645,2.276,2.277,3.54
		c-0.566,0.263-1.608,0.631-1.608,0.631c0.832,0.089,1.463,0.283,1.463,0.283s0.292-0.124,0.481-0.206
		c0.076,0.165,0.217,0.504,0.217,0.504l1.036,0.46l-0.119-0.292c0,0-0.342-0.818-0.427-1.012c1.101-0.539,2.176-1.159,3.215-1.857
		c1.963,3.005,3.002,6.493,3.002,10.095C252.059,100.764,249.194,106.092,244.762,109.471"/>
	<path fill="#FFFFFF" d="M212.59,80.634l-0.301,0.269c-1.127,0.999-3.712,3.637-3.314,6.537c0.003,0.004,0.041,0.202,0.041,0.202
		c0,0.004,0.125,0.572,0.125,0.572l0.359-0.333c1.586-1.442,2.769-3.893,3.253-6.718l0.138-0.797L212.59,80.634"/>
	<path fill="#FFFFFF" d="M207.348,85.638l-0.125,0.351c-0.179,0.483-0.506,1.498-0.684,2.849c-0.239,1.911-0.192,4.609,1.472,6.633
		c-0.003-0.001,0.187,0.241,0.187,0.241l0.188,0.244l0.245-1.226c0.277-2.173-0.082-6.717-0.882-8.75l-0.271-0.689L207.348,85.638"
		/>
	<path fill="#FFFFFF" d="M205.438,93.457l-0.026,0.358c-0.141,1.949-0.038,6.749,3.852,9.297l0.455,0.299l-0.018-0.547
		c-0.063-1.818-2.192-7.262-3.79-9.209l-0.449-0.551L205.438,93.457"/>
	<path fill="#FFFFFF" d="M206.104,102.053l0.07,0.328c0.566,2.76,3.187,7.227,7.225,8.527l0.552,0.18l-0.198-0.547
		c-0.754-2.062-4.646-6.873-7.151-8.459l-0.561-0.357L206.104,102.053"/>
	<path fill="#FFFFFF" d="M214.222,84.794l-0.318,0.191c-3.008,1.838-4.415,4.061-4.312,6.805c0,0.001,0.029,0.629,0.029,0.629
		l0.44-0.367c1.627-1.346,3.659-4.791,4.261-6.744l0.216-0.708L214.222,84.794"/>
	<path fill="#FFFFFF" d="M212.452,90.804l-0.228,0.214c-0.768,0.735-3.265,3.389-3.049,6.67c0.035,0.501,0.152,1.041,0.348,1.607
		l0.175,0.523l0.324-0.448c1.191-1.676,2.766-6.099,2.681-8.159l-0.022-0.624L212.452,90.804"/>
	<path fill="#FFFFFF" d="M212.575,96.498l-0.161,0.248c-1.258,1.866-1.897,3.783-1.859,5.545c0.038,1.307,0.449,2.557,1.238,3.719
		l0.266,0.385l0.222-0.408c0.54-1.02,0.976-4.332,0.908-6.951c-0.023-0.924-0.114-1.688-0.271-2.21l-0.161-0.58L212.575,96.498"/>
	<path fill="#FFFFFF" d="M214.041,102.586l-0.079,0.258c-0.382,1.217-0.558,2.4-0.525,3.523c0.073,2.543,1.2,4.535,3.358,5.914
		l0.362,0.23l0.078-0.488c0-0.01,0.023-0.393,0.023-0.393c-0.056-2.068-1.594-7.281-2.803-8.871l-0.33-0.438L214.041,102.586"/>
	<path fill="#FFFFFF" d="M209.801,110.656l0.155,0.264c1.62,2.715,4.368,6.219,9.508,5.316l0.435-0.07l-0.245-0.361
		c-0.961-1.43-7.201-4.953-9.408-5.311l-0.602-0.098L209.801,110.656"/>
	<path fill="#FFFFFF" d="M217.405,117.553l-0.807,0.221l0.774,0.318c3.276,1.336,7.367,1.727,9.741,0.93
		c0.894-0.305,1.44-0.793,2.103-1.438c4.179,0.436,8.095,3.912,10.388,6.75l0.116,0.145l0.179-0.062
		c0.257-0.082,0.657-0.389,0.817-0.566l0.163-0.178l-0.146-0.189c-2.377-3.117-6.109-5.043-6.275-5.123
		C231.101,116.719,225.182,115.445,217.405,117.553"/>
	<path fill="#FFFFFF" d="M217.58,108.855l0.044,0.279c0.484,3.076,1.74,7.119,6.944,6.674l0.333-0.031l-0.079-0.322
		c-0.356-1.404-5.125-5.469-6.789-6.615l-0.497-0.26L217.58,108.855"/>
	<path fill="#FFFFFF" d="M254.363,80.365l0.131,0.797c0.487,2.825,1.668,5.277,3.247,6.718l0.362,0.333c0,0,0.129-0.568,0.129-0.572
		c0,0,0.041-0.197,0.041-0.203c0.396-2.896-2.182-5.535-3.309-6.537l-0.307-0.267L254.363,80.365"/>
	<path fill="#FFFFFF" d="M259.773,85.289l-0.269,0.689c-0.803,2.034-1.165,6.578-0.888,8.749l0.248,1.228l0.19-0.242
		c0,0,0.184-0.245,0.184-0.244c1.656-2.02,1.712-4.722,1.469-6.63c-0.172-1.352-0.502-2.367-0.677-2.85l-0.126-0.352L259.773,85.289
		"/>
	<path fill="#FFFFFF" d="M261.789,93.103l-0.453,0.551c-1.591,1.946-3.723,7.389-3.784,9.209l-0.032,0.547l0.467-0.301
		c3.887-2.546,3.992-7.347,3.855-9.296l-0.026-0.356L261.789,93.103"/>
	<path fill="#FFFFFF" d="M261.214,101.723l-0.561,0.359c-2.503,1.586-6.396,6.395-7.152,8.457l-0.204,0.547l0.555-0.18
		c4.042-1.301,6.664-5.768,7.228-8.527l0.07-0.328L261.214,101.723"/>
	<path fill="#FFFFFF" d="M252.862,84.508l0.204,0.712c0.561,1.971,2.525,5.452,4.129,6.831l0.433,0.369l0.038-0.625
		c0.16-2.74-1.203-4.996-4.168-6.889l-0.321-0.199L252.862,84.508"/>
	<path fill="#FFFFFF" d="M254.567,90.587l-0.026,0.624c-0.076,2.059,1.495,6.483,2.695,8.159l0.321,0.447l0.172-0.521
		c0.196-0.565,0.312-1.109,0.342-1.607c0.216-3.282-2.277-5.935-3.046-6.67l-0.228-0.213L254.567,90.587"/>
	<path fill="#FFFFFF" d="M254.503,96.246l-0.169,0.578c-0.155,0.522-0.252,1.289-0.269,2.213c-0.064,2.619,0.364,5.93,0.913,6.949
		l0.214,0.41l0.266-0.387c0.788-1.16,1.203-2.412,1.235-3.717c0.044-1.764-0.599-3.679-1.857-5.547l-0.169-0.248L254.503,96.246"/>
	<path fill="#FFFFFF" d="M253.125,102.322l-0.336,0.438c-1.197,1.59-2.745,6.801-2.804,8.871c0,0,0.032,0.383,0.032,0.393
		l0.076,0.488l0.368-0.232c2.151-1.377,3.279-3.369,3.357-5.912c0.023-1.123-0.157-2.307-0.531-3.523l-0.085-0.258L253.125,102.322"
		/>
	<path fill="#FFFFFF" d="M257.604,110.396l-0.602,0.098c-2.208,0.357-8.448,3.881-9.406,5.311l-0.242,0.361l0.429,0.07
		c5.143,0.902,7.888-2.602,9.515-5.316l0.151-0.264L257.604,110.396"/>
	<path fill="#FFFFFF" d="M232.794,118.359c-0.166,0.078-3.901,2.008-6.281,5.123l-0.143,0.189l0.163,0.176
		c0.164,0.178,0.563,0.486,0.815,0.568l0.181,0.062l0.123-0.143c2.28-2.842,6.196-6.318,10.381-6.754
		c0.663,0.648,1.203,1.137,2.097,1.438c2.38,0.799,6.479,0.408,9.75-0.932l0.771-0.314l-0.806-0.221
		C242.072,115.445,236.152,116.717,232.794,118.359"/>
	<path fill="#FFFFFF" d="M249.714,108.58l-0.499,0.258c-1.662,1.148-6.434,5.217-6.784,6.615l-0.078,0.324l0.329,0.029
		c5.201,0.447,6.454-3.596,6.944-6.672l0.047-0.279L249.714,108.58"/>
	<path fill="#FFFFFF" d="M118.263,77.413h6.504v5.928h-6.504V77.413z M124.248,118.955h-5.461V90.072h5.461V118.955z"/>
	<path fill="#FFFFFF" d="M77.518,90.099h5.465v28.886h-5.351v-4.258h-0.114c-2.189,3.627-5.871,5.117-9.896,5.117
		c-6.043,0-9.497-4.6-9.497-10.41V90.099h5.47v17.091c0,5.004,1.15,8.688,6.386,8.688c2.238,0,5.293-1.15,6.446-4.143
		c1.034-2.705,1.091-6.102,1.091-6.791V90.099"/>
	<path fill="#FFFFFF" d="M93.901,94.357h0.113c1.839-3.627,5.868-5.119,8.744-5.119c2.014,0,10.932,0.517,10.932,9.778v19.968
		h-5.463v-18.182c0-4.776-2.015-7.365-6.62-7.365c0,0-2.992-0.172-5.29,2.127c-0.803,0.806-2.302,2.069-2.302,7.708v15.711H88.55
		V90.097h5.351V94.357"/>
	<path fill="#FFFFFF" d="M147.14,99.361c-0.289-3.605-1.997-6.112-5.89-6.112c-5.195,0-7.201,4.508-7.201,11.262
		c0,6.742,2.006,11.258,7.201,11.258c3.598,0,5.827-2.338,6.11-6.455h5.438c-0.462,6.455-5.256,10.398-11.606,10.398
		c-9.2,0-12.86-6.512-12.86-14.975c0-8.414,4.228-15.44,13.323-15.44c6.061,0,10.629,3.833,10.904,10.063H147.14"/>
	<path fill="#FFFFFF" d="M160.964,105.539c-0.403,5.029,1.655,10.234,7.195,10.234c4.229,0,6.352-1.654,6.968-5.836h5.732
		c-0.864,6.525-5.902,9.779-12.753,9.779c-9.206,0-12.87-6.512-12.87-14.977c0-8.416,4.239-15.44,13.329-15.44
		c8.573,0.18,12.63,5.604,12.63,13.556v2.684H160.964 M175.478,101.77c0.119-4.801-2.057-8.52-7.318-8.52
		c-4.518,0-7.195,3.819-7.195,8.52H175.478z"/>
	<path fill="#FFFFFF" d="M187.342,118.855v-24.92h-4.933v-3.788h4.933v-6.165c0.181-6.29,4.921-7.944,8.985-7.944
		c1.309,0,2.573,0.339,3.887,0.567v4.517c-0.92-0.049-1.831-0.176-2.748-0.176c-3.08,0-4.862,0.809-4.689,3.948v5.253h6.638v3.788
		h-6.638v24.92H187.342"/>
</g>
</svg>
