<?xml version="1.0" encoding="utf-8"?>
<!-- Generator: Adobe Illustrator 16.0.4, SVG Export Plug-In . SVG Version: 6.00 Build 0)  -->
<!DOCTYPE svg PUBLIC "-//W3C//DTD SVG 1.1//EN" "http://www.w3.org/Graphics/SVG/1.1/DTD/svg11.dtd">
<svg version="1.1" id="Layer_1" xmlns="http://www.w3.org/2000/svg" xmlns:xlink="http://www.w3.org/1999/xlink" x="0px" y="0px"
	 width="320px" height="200px" viewBox="0 0 320 200" enable-background="new 0 0 320 200" xml:space="preserve">
<path fill-rule="evenodd" clip-rule="evenodd" fill="#FFFFFF" d="M228.565,71.592c4.56,0,5.43,1.133,7.029,5.914l17.616,52.133
	h-15.696l-3.826-12.529h-21.125l-3.808,12.535h-9.059l17.772-58.062L228.565,71.592L228.565,71.592z M231.071,108.607h-15.964
	l7.928-26.486L231.071,108.607L231.071,108.607z"/>
<path fill-rule="evenodd" clip-rule="evenodd" fill="#FFFFFF" d="M139.636,129.658h-24.389V71.574h25.277
	c11.85,0,15.979,9.658,9.978,18.57l-2.835,4.206C167.546,104.676,161.082,129.658,139.636,129.658L139.636,129.658z M136.737,97.131
	l4.842-7.231c1.225-1.811,1.484-2.95,1.484-4.219c0-3.548-3.121-6.528-6.714-6.528h-7.446v42.707h4.126
	c6.903,0,12.143-3.729,12.143-12.457C145.172,102.199,141.79,98.354,136.737,97.131L136.737,97.131z"/>
<path fill-rule="evenodd" clip-rule="evenodd" fill="#FFFFFF" d="M90.515,129.658H66.125V71.574h25.28
	c11.847,0,15.979,9.658,9.977,18.57l-2.835,4.206C118.427,104.676,111.963,129.658,90.515,129.658L90.515,129.658z M87.614,97.131
	l4.844-7.231c1.225-1.811,1.484-2.95,1.484-4.219c0-3.548-3.118-6.528-6.71-6.528h-7.446v42.707h4.123
	c6.906,0,12.143-3.729,12.143-12.457C96.052,102.199,92.672,98.354,87.614,97.131L87.614,97.131z"/>
<path fill-rule="evenodd" clip-rule="evenodd" fill="#FFFFFF" d="M197.33,71.574h9.166l-17.698,58.065l-13.935-0.01l-18.984-58.047
	l10.258-0.008c3.962,0,5.003,1.022,7.073,7.598l10.992,36.504L197.33,71.574L197.33,71.574z"/>
</svg>
