<?xml version="1.0" encoding="utf-8"?>
<!-- Generator: Adobe Illustrator 16.0.4, SVG Export Plug-In . SVG Version: 6.00 Build 0)  -->
<!DOCTYPE svg PUBLIC "-//W3C//DTD SVG 1.1//EN" "http://www.w3.org/Graphics/SVG/1.1/DTD/svg11.dtd">
<svg version="1.1" id="Layer_1" xmlns="http://www.w3.org/2000/svg" xmlns:xlink="http://www.w3.org/1999/xlink" x="0px" y="0px"
	 width="320px" height="200px" viewBox="0 0 320 200" enable-background="new 0 0 320 200" xml:space="preserve">
<g>
	<path fill="#FFFFFF" d="M155.481,101.261h-6.339c-0.014,0.022-0.026,0.022-0.026,0.022c-2.669-9.38-8.738-17.301-14.742-22.492
		v22.47h-7.1V68.482h5.939c2.074,1.401,5.064,4.101,7.83,6.909c2.565,2.601,5.065,5.617,7.347,9.075V68.482h7.091V101.261z
		 M220.375,68.482h-7.068v15.984c-2.313-3.458-4.809-6.475-7.373-9.075c-2.783-2.809-5.756-5.508-7.825-6.909h-5.956v32.778h7.12
		v-22.47c6,5.191,12.077,13.112,14.729,22.492c0,0,0.018,0,0.044-0.022h6.329V68.482z M245.086,93.454l6.774,1.604
		c-4.652,6.552-10.46,7.259-13.66,7.468c-4.695,0.306-8.652-1.243-11.355-3.938c-3.296-3.269-4.652-8.241-4.609-13.71
		c0.062-5.367,1.801-10.047,4.905-13.168c2.703-2.713,6.373-4.255,10.607-4.255c3.356,0,8.19,0.544,11.521,5.039
		c2.8,3.774,3.304,7.657,3.348,11.192c0.008,1.346-0.184,2.85-0.339,3.837l-23.017,0.033v0.012c0.444,3.622,2.905,8.376,8.479,8.59
		C240.044,96.263,242.766,95.862,245.086,93.454z M229.375,81.927h0.965l14.686-0.01h0.879l-0.036-0.715
		c-0.077-1.163-0.478-3.646-2.494-5.541c-1.436-1.348-3.679-2.025-5.443-2.025c-2.757,0-7.373,1.978-8.408,7.507L229.375,81.927z
		 M173.829,67.35c-9.146,0-16.579,7.851-16.579,17.528c0,9.667,7.432,17.522,16.579,17.522c9.176,0,16.593-7.855,16.593-17.522
		C190.422,75.2,183.005,67.35,173.829,67.35z M183.857,84.878c0,6.121-4.498,11.093-10.028,11.093s-10.008-4.972-10.008-11.093
		c0-6.131,4.478-11.096,10.008-11.096S183.857,78.747,183.857,84.878z M95.512,84.325c-0.261,14.933-13.399,18.057-20.672,18.097
		c-3.812,0.027-7.56-0.496-8.421-0.812c0.126-1.102,0.37-4.448,0.37-16.711c0-12.246-0.156-15.336-0.535-16.649
		c1.378-0.269,5.243-0.797,9.738-0.797C82.196,67.453,95.781,69.109,95.512,84.325z M88.713,84.837
		c0-9.715-8.617-11.146-12.195-11.121c-0.978,0.016-1.9,0.037-2.678,0.076V96.04c0.613,0.061,1.317,0.104,2.087,0.104
		C80.305,96.181,88.713,94.571,88.713,84.837z M125.896,101.261h-7.43c-0.2-2.403-0.5-4.793-0.948-7.168h-15.103
		c-0.435,2.375-0.739,4.765-0.926,7.168h-7.204c1.039-11.939,4.865-24.63,12.377-32.778h6.93
		C121.119,76.631,124.857,89.321,125.896,101.261z M116.093,88.064c-1.413-4.891-3.443-9.516-6.143-13.611
		c-2.7,4.096-4.725,8.721-6.134,13.611H116.093z"/>
	<path fill="#FFFFFF" d="M157.759,132.65c-35.988,0-64.116-20.49-61.068-23.523c2.787-2.788,24.311,14.055,61.068,14.055
		c36.75,0,58.277-16.843,61.051-14.055C221.846,112.16,193.726,132.65,157.759,132.65z"/>
</g>
</svg>
