<?xml version="1.0" encoding="utf-8"?>
<!-- Generator: Adobe Illustrator 16.0.4, SVG Export Plug-In . SVG Version: 6.00 Build 0)  -->
<!DOCTYPE svg PUBLIC "-//W3C//DTD SVG 1.1//EN" "http://www.w3.org/Graphics/SVG/1.1/DTD/svg11.dtd">
<svg version="1.1" id="Layer_1" xmlns="http://www.w3.org/2000/svg" xmlns:xlink="http://www.w3.org/1999/xlink" x="0px" y="0px"
	 width="320px" height="200px" viewBox="0 0 320 200" enable-background="new 0 0 320 200" xml:space="preserve">
<path fill="#FFFFFF" d="M98.092,92.025c7.12,0,12.895,5.776,12.895,12.897c0,7.118-5.774,12.893-12.895,12.893
	c-7.121,0-12.896-5.773-12.896-12.893C85.197,97.802,90.972,92.025,98.092,92.025L98.092,92.025z M98.092,97.885
	c3.042,0,5.508,3.151,5.508,7.038c0,3.884-2.466,7.034-5.508,7.034s-5.509-3.15-5.509-7.034
	C92.583,101.036,95.051,97.885,98.092,97.885L98.092,97.885z M131.22,82.658h6.819v34.162c-3.913,0.717-7.707,0.994-11.5,0.994
	c-7.12,0-12.894-5.773-12.894-12.893c0-7.121,5.774-12.897,12.894-12.897c1.651,0,3.23,0.312,4.681,0.876V82.658L131.22,82.658z
	 M131.22,111.158V98.684c-0.987-0.51-2.108-0.799-3.298-0.799c-3.932,0-7.122,3.151-7.122,7.038c0,3.884,3.19,7.034,7.122,7.034
	C129.112,111.957,130.233,111.668,131.22,111.158L131.22,111.158z M158.711,117.541h6.334V93.734
	c-3.914-0.91-6.781-1.511-11.501-1.511c-7.12,0-12.895,5.774-12.895,12.895c0,7.12,5.587,12.728,10.834,12.728
	c5.246,0,5.757-1.639,7.207-2.203L158.711,117.541L158.711,117.541z M158.226,98.696v10.765c-0.013,0.762-1.654,2.467-4.632,2.439
	c-2.98-0.029-5.31-2.896-5.31-6.782C148.284,100.154,152.967,96.699,158.226,98.696L158.226,98.696z M196.055,92.025
	c7.119,0,12.895,5.776,12.895,12.897c0,7.118-5.774,12.893-12.895,12.893c-7.119,0-12.896-5.773-12.896-12.893
	C183.159,97.802,188.936,92.025,196.055,92.025L196.055,92.025z M196.055,97.885c3.041,0,5.508,3.151,5.508,7.038
	c0,3.884-2.467,7.034-5.508,7.034s-5.509-3.15-5.509-7.034C190.546,101.036,193.014,97.885,196.055,97.885L196.055,97.885z
	 M211.527,117.383L211.527,117.383v0.156h6.693v-0.156h0.155V99.265c1.659-0.446,3.29-0.632,4.917-0.656
	c3.628,0.153,5.385,2.284,5.273,6.095v12.836h7.088v-13.074c0.261-7.782-3.838-11.83-12.297-12.142
	c-3.912,0.052-7.887,0.496-11.83,1.731v0.06l0,0V117.383L211.527,117.383z M249.771,92.025c6.515,0,11.799,5.776,11.799,12.897
	c0,0.904-0.086,1.788-0.248,2.639h-14.969h-1.191c0.406,0.881,0.738,1.68,1.191,2.362c2.181,2.104,3.842,2.463,7.013,2.463
	c2.754,0,4.772-0.37,6.282-1.021l0.811-0.154l0.023,4.582c-3.252,2.396-7.832,2.086-10.711,2.086
	c-6.518,0-11.801-5.84-11.801-12.956C237.973,97.802,243.255,92.025,249.771,92.025L249.771,92.025z M250.271,97.859
	c2.297,0,4.265,1.803,5.092,4.366H245.18C246.007,99.662,247.975,97.859,250.271,97.859L250.271,97.859z M57.895,92.41h7.432
	l6.301,15.589l6.301-15.589h7.431l-10.016,24.781l-0.037,0.086h0.001h-7.36l-0.036-0.088L57.895,92.41L57.895,92.41z
	 M169.376,117.404h6.938V98.881h6.334v-6.388h-6.334v-0.982c0.002-3.727,4.332-3.31,7.207-2.747V82.77
	c-9.693-2.104-14.062,0.874-14.146,7.944V117.404L169.376,117.404z"/>
</svg>
