<?xml version="1.0" encoding="utf-8"?>
<!-- Generator: Adobe Illustrator 16.0.4, SVG Export Plug-In . SVG Version: 6.00 Build 0)  -->
<!DOCTYPE svg PUBLIC "-//W3C//DTD SVG 1.1//EN" "http://www.w3.org/Graphics/SVG/1.1/DTD/svg11.dtd">
<svg version="1.1" id="Layer_1" xmlns="http://www.w3.org/2000/svg" xmlns:xlink="http://www.w3.org/1999/xlink" x="0px" y="0px"
	 width="320px" height="200px" viewBox="0 0 320 200" enable-background="new 0 0 320 200" xml:space="preserve">
<g>
	<g>
		<g>
			<g>
				<g>
					<g>
						<path fill="#FFFFFF" d="M58.652,94.918c6.24-11.546,17.021-24.14,29.752-28.345c2.615-0.652,6.091-1.386,8.41,0.402
							c2.062,1.529,2.339,4.142,1.872,6.495c-0.612,2.782-2.52,6.306-5.708,6.754c-0.574-0.001-1.062-0.204-1.433-0.607
							c-0.831-0.807-0.769-1.984-0.593-3.045c0.525-2.208,2.571-4.555,4.925-4.863c0.403-0.257,0.233-0.745,0.119-1.089
							c-0.313-0.49-0.686-0.864-1.26-0.98c-2.553-0.296-4.482,1.305-6.439,2.646c-7.428,5.975-12.822,13.649-17.355,21.298
							c-3.698,6.877-6.852,13.986-7.77,22.02c-0.451,5.826,1.396,11.545,6.582,14.349c5.616,2.976,12.886,0.963,18.518-0.568
							l5.173-1.59l9.943-2.951c9.426-2.752,21.226-3.37,30.428,0.277c5.562,2.316,11.292,5.494,14.919,10.961
							c0,0.144-0.001,0.316-0.173,0.287c-7.887-2.152-18.156-4.283-25.978-0.551l-0.373-0.086c-2.37-3.799-6.381-5.908-10.483-6.726
							c-13.258-1.28-24.16,4.997-36.624,6.562c-6.317,0.581-13.092,0.386-17.496-4.451c-6.951-6.943-6.133-19.199-2.832-27.569
							C55.848,100.594,57.178,97.728,58.652,94.918z"/>
						<path fill="#FFFFFF" d="M76.953,99.059c3.293-6.045,8.343-13.435,15.326-15.65c1.868-0.424,3.876-0.245,5.308,0.995
							c3.004,2.995,1.837,8.13,0.821,11.657c0,0.202,0.171,0.431,0.372,0.461c2.67-0.077,4.827-1.332,6.757-3.163
							c4.149-4.636,8.592-10.706,15.335-9.994c1.263,0.206,2.495,0.927,3.15,2.107c1.71,3.393,0.033,7.148-2.301,9.752
							c-0.894,0.858-2.015,1.515-3.306,1.108c-0.517-0.174-0.945-0.692-1.144-1.209c-0.48-2.384,0.906-4.59,2.833-5.846
							c0.548-0.543,2.211-0.165,1.757-1.4c-0.343-0.49-0.86-0.549-1.405-0.551c-3.276,1.367-5.413,4.719-7.318,7.525
							c-2.396,3.753-4.333,7.736-5.61,11.951c-0.35,1.521-0.787,3.5,0.098,4.91c0.657,0.891,1.747,1.27,2.868,0.986
							c3.248-1.281,6.1-3.884,8.577-6.573c5.679-6.812,8.694-15.242,16.292-20.785c2.359-1.628,5.694-2.88,8.531-1.377
							c0.458,0.174,0.829,0.778,1.404,0.551c0.46-0.458,0.779-1.433,1.697-1.2c2.096,0.037,4.508-0.07,6.659,0.139l0.143,0.201
							l-0.607,1.461l-11.795,23.959c-0.115,0.258-0.146,0.602-0.089,0.89c0.199,0.345,0.63,0.317,0.946,0.204
							c1.698-0.971,3.024-2.774,4.207-4.291c1.038-1.433,1.961-2.922,2.714-4.498c0.317-0.459,0.692-1.031,1.324-0.942
							c0.66,0.088,1.493-0.196,1.98,0.265c-0.753,2.007-1.937,3.839-2.977,5.731c-3.204,4.926-7.386,10.653-13.276,12.125
							c-0.977,0.112-2.182,0.194-2.926-0.526c-1.146-0.865-1.197-2.243-1.509-3.479c-0.115-0.145-0.315-0.174-0.487-0.117
							c-2.506,2.26-5.097,4.519-8.626,4.076c-1.09-0.234-2.12-1.07-2.605-2.105c-0.913-1.754-0.474-4.02-0.525-5.973
							c-0.085-0.23-0.372-0.145-0.487-0.059c-3.831,3.776-7.977,7.178-13.061,8.137c-2.355,0.278-4.391-0.418-5.964-2.088
							c-3.8-4.98-0.792-11.514,1.206-16.359c0.086-0.229,0.059-0.545-0.228-0.604c-1.378,0.11-2.7,0.334-4.021,0.531l-0.461,0.516
							c-3.091,5.73-6.442,11.805-11.998,16.062c-2.302,1.657-5.722,2.794-8.415,1.264c-2.807-1.934-3.054-5.379-2.698-8.564
							C74.087,105.651,75.392,102.298,76.953,99.059z M85.737,98.774c-1.619,3.266-3.266,6.562-3.337,10.437
							c0.17,0.718,0.598,1.553,1.401,1.757c0.86,0.232,1.58-0.225,2.242-0.652c3.167-2.66,5.361-6.297,7.153-9.794
							c0.145-0.343,0.405-0.773,0.205-1.147c-1.892-0.752-3.725-2.051-5.183-3.692l-0.316-0.059
							c-0.287,0.056-0.403,0.343-0.604,0.543L85.737,98.774z M90.67,92.13c0.108,1.723,1.71,3.222,3.23,3.801
							c0.373,0.116,0.975,0.406,1.292-0.053c0.577-1.088,0.926-2.293,1.217-3.498c0.292-1.578,0.529-3.701-0.989-4.74
							c-0.516-0.289-1.291-0.32-1.836-0.064C91.859,88.432,90.619,90.178,90.67,92.13z M129.55,105.499
							c-0.436,1.435-1.102,2.982-0.647,4.562c0.142,0.316,0.485,0.547,0.8,0.635c1.292,0.032,2.158-1.142,2.993-2.058
							c3.779-5.239,6.669-10.885,9.272-16.618c0.435-1.204,1.127-2.321,1.104-3.671c-0.027-0.287-0.314-0.488-0.543-0.633
							c-0.573-0.26-1.12,0.14-1.58,0.368c-5.094,3.916-7.841,9.533-10.386,14.863L129.55,105.499z"/>
						<path fill="#FFFFFF" d="M154.088,90.771c1.127-2.235,2.082-4.557,3.497-6.676c0.576-0.63,1.466-0.599,2.241-0.682l5.654,0.077
							l0.23,0.231c-0.955,2.264-1.996,4.499-3.182,6.677c-0.289,0.573-0.895,1.117-1.555,1.201
							c-2.296,0.049-4.737,0.184-6.918-0.024C153.828,91.345,154.03,91.03,154.088,90.771z"/>
						<path fill="#FFFFFF" d="M159.761,102.245c3.933-8.139,8.668-15.988,15.38-22.913c6.512-6.494,13.562-11.751,22.094-13.358
							c2.326-0.336,4.938-0.126,6.713,1.459c0.344,0.288,0.744,0.576,1.232,0.406c6.123-2.448,14.623-3.309,20.756-0.244
							c3.554,1.735,6.934,3.957,10.342,6.093c0.431,0.231,0.228,0.689-0.002,0.948c-1.96,2.174-3.605,4.408-5.363,6.67
							c-0.201,0.2-0.518,0.113-0.717-0.002l-9.021-6.203c-4.211-2.856-9.055-4.854-14.541-3.955
							c-0.604,0.314-0.32,1.062-0.408,1.635c0.124,5.627-1.873,10.529-4.587,14.998c-2.165,3.122-4.673,6.385-8.351,7.435
							c-1.609,0.339-3.158-0.154-4.129-1.449c-2.685-4.086-0.313-9.073,1.65-12.712c2.254-3.953,5.74-7.673,9.512-10.531
							c0.086-0.144,0.258-0.286,0.145-0.458c-0.372-0.374-1.005-0.147-1.464-0.062c-6.122,2.046-11.021,7.454-15.546,12.577
							c-8.072,9.933-14.195,20.706-17.681,32.55c-1.078,4.445-2.536,11.272,1.988,14.389c3.982,2.139,7.81-0.604,10.805-3.177
							c4.552-4.637,7.613-9.994,8.868-16.047c0.207-1.807,0.703-4.273-0.957-5.514c-1.49-0.666-2.729,0.563-3.737,1.594
							c-2.335,2.805-3.321,6.16-3.736,9.775c-1.036,0.858-2.273,1.399-3.367,2.229c-2.071,1.429-4.116,3.344-5.759,5.263
							c-0.201,0.056-0.23-0.175-0.287-0.288c-0.234-6.662,2.139-12.366,5.803-17.492c2.91-3.377,6.652-6.264,11.184-5.186
							c1.98,0.522,3.293,2.623,3.66,4.49c0.725,6.262-1.906,11.736-4.738,16.835c-4.561,7.161-11.762,14.398-20.888,13.534
							c-3.502-0.212-6.766-2.635-8.248-5.854c-3.45-6.873-1.065-15.707,1.254-22.359L159.761,102.245z M190.806,90.381
							c0.084,0.776,0.396,1.609,1.2,1.899c1.548,0.436,2.786-0.708,3.938-1.594c4.149-4.377,6.664-9.45,7.316-15.275
							c0.002-0.861,0.294-1.951-0.192-2.699c-0.345-0.059-0.718,0.084-1.006,0.283c-2.791,1.856-5.413,4.575-7.317,7.324
							C192.754,83.384,190.935,86.536,190.806,90.381z"/>
						<path fill="#FFFFFF" d="M196.623,109.864c3.316-4.38,7.726-9.159,13.297-9.513c1.405,0.035,2.638,0.613,3.495,1.792
							c2.371,3.511,0.374,8.011-0.5,11.566c-0.086,0.316,0.143,0.546,0.371,0.633c1.149,0.178,2.47,0.01,3.476-0.504l0.433-0.545
							c4.001-11.41,9.952-22.011,17.019-32.12c4.414-5.841,10.061-11.879,16.615-14.699c1.553-0.54,3.794-1.192,5.283-0.039
							c1.66,1.354,1.193,3.707,0.756,5.514c-0.178,1.607-1.959,1.772-3.137,2.143c-0.057-0.03-0.115-0.001-0.172-0.059
							c0.032-1.033,0.581-1.95,0.785-2.954c0.059-0.545,0.147-1.004-0.082-1.522c-0.284-0.517-0.916-0.347-1.347-0.205
							c-2.215,1.082-4.001,3.057-5.702,4.975c-6.341,7.355-10.934,15.521-15.152,23.774c-1.389,2.866-2.834,5.703-3.963,8.684
							c-0.031,0.173,0.027,0.288,0.17,0.403c0.977-0.025,1.555-1.028,2.302-1.542c5.587-5.062,10.114-10.874,14.296-16.773
							c0.893-0.428,1.926-0.424,2.96-0.507l0.2,0.058c-0.06,0.804-0.75,1.434-1.127,2.149c-4.674,6.73-9.979,13.17-16.429,19.033
							l-4.663,3.832c-0.979,0.857-1.013,2.178-1.504,3.267c-0.9,2.954-1.802,5.964-1.928,9.208c0.027,0.545,0.227,1.062,0.685,1.352
							c1.233,0.551,2.212-0.623,3.077-1.424c6.312-7.299,9.099-16.246,16.814-22.793c2.533-2.001,5.869-3.712,9.137-2.208
							c0.573,0.203,1.001,0.951,1.691,0.609c0.489-0.344,0.521-1.118,1.21-1.087c2.267-0.021,4.679-0.099,6.86,0.081
							c0.199,0.173,0.055,0.46-0.004,0.66l-1.561,3.152l-9.654,19.487c-0.434,0.889-1.012,1.834-0.958,2.839
							c0.143,0.431,0.603,0.462,0.975,0.377c1.813-0.999,3.138-2.659,4.321-4.35c1.184-1.661,2.137-3.408,3.262-5.098
							c0.604-0.285,1.436-0.167,2.096-0.079c0.4,0.375-0.117,0.86-0.205,1.291c-2.834,5.875-6.788,12.293-12.971,15.543
							c-1.439,0.713-3.422,1.366-4.998,0.5c-1.26-0.866-1.14-2.445-1.709-3.652c-0.114-0.173-0.402-0.145-0.546-0.06
							c-2.562,2.288-5.327,4.862-8.912,3.874c-2.235-1.041-2.485-3.626-2.65-5.837c-0.114-0.087-0.057-0.259-0.198-0.345
							l-0.287,0.113c-2.509,3.006-5.68,6.756-9.898,6.396c-1.607-0.121-3.009-1.676-3.492-3.112
							c-1.477-4.685,0.092-9.817,1.141-14.321c0.001-0.258-0.285-0.518-0.514-0.548l-3.531,0.046l-0.577,0.658
							c-2.602,5.101-5.46,10.028-9.954,14.291c-2.36,2.087-5.266,3.828-8.507,2.869c-2.694-1.158-3.401-4.088-3.392-6.844
							C189.693,121.354,192.814,115.479,196.623,109.864z M197.545,125.456c0.055,0.977,0.539,1.982,1.543,2.303
							c0.659,0.231,1.377-0.053,1.953-0.339c3.31-2.456,5.275-6.239,7.066-9.678c0.174-0.345,0.319-0.889-0.14-1.149
							c-1.72-0.867-3.38-2.222-4.752-3.748c-0.171-0.173-0.487-0.203-0.688-0.089c-1.24,1.661-2.051,3.496-2.918,5.329
							C198.625,120.408,197.555,122.7,197.545,125.456z M205.869,109.352c0.107,1.751,1.51,3.393,3.115,3.972
							c0.314,0.117,0.889,0.262,1.119-0.139c0.984-2.236,1.912-4.787,1.404-7.373c-0.199-0.604-0.714-1.208-1.345-1.412
							c-0.631-0.174-1.292,0.025-1.838,0.281C206.714,105.737,205.932,107.485,205.869,109.352z M237.509,124.676
							c-0.061,0.832-0.266,1.865,0.364,2.499c0.343,0.346,0.889,0.376,1.319,0.234c1.697-0.884,2.794-2.689,3.833-4.178
							c3.463-5.386,6.009-11.146,8.383-16.994c0.089-0.518,0.234-1.234-0.252-1.58c-1.404-0.666-2.5,0.881-3.537,1.625
							c-4.58,4.547-7.01,10.051-9.298,15.583L237.509,124.676z"/>
						<path fill="#FFFFFF" d="M244.202,81.868l3.056-3.951l0.461-0.4c8.844-0.17,15.75-5.428,21.973-11.636
							c-0.031,0.833-0.408,1.606-0.697,2.352c-4.08,9.603-13.984,18.037-24.693,18.173l-2.526-0.038
							c-0.458-0.116-0.142-0.575-0.025-0.804L244.202,81.868z"/>
					</g>
				</g>
			</g>
		</g>
	</g>
	<path fill="#FFFFFF" d="M255.354,132.553c0-1.202,0.906-2.108,2.066-2.108c1.148,0,2.053,0.906,2.053,2.108
		c0,1.222-0.904,2.12-2.053,2.12C256.26,134.673,255.354,133.774,255.354,132.553z M257.42,135.095c1.383,0,2.562-1.073,2.562-2.542
		c0-1.456-1.18-2.53-2.562-2.53c-1.395,0-2.576,1.074-2.576,2.53C254.844,134.021,256.025,135.095,257.42,135.095z M256.883,132.754
		h0.51l0.773,1.268h0.496l-0.832-1.288c0.43-0.053,0.758-0.282,0.758-0.805c0-0.578-0.342-0.832-1.033-0.832h-1.113v2.925h0.441
		V132.754z M256.883,132.378v-0.906h0.604c0.309,0,0.639,0.066,0.639,0.43c0,0.449-0.336,0.477-0.711,0.477H256.883z"/>
</g>
</svg>
