<?xml version="1.0" encoding="utf-8"?>
<!-- Generator: Adobe Illustrator 16.0.4, SVG Export Plug-In . SVG Version: 6.00 Build 0)  -->
<!DOCTYPE svg PUBLIC "-//W3C//DTD SVG 1.1//EN" "http://www.w3.org/Graphics/SVG/1.1/DTD/svg11.dtd">
<svg version="1.1" id="Layer_1" xmlns="http://www.w3.org/2000/svg" xmlns:xlink="http://www.w3.org/1999/xlink" x="0px" y="0px"
	 width="320px" height="200px" viewBox="0 0 320 200" enable-background="new 0 0 320 200" xml:space="preserve">
<g>
	<path fill-rule="evenodd" clip-rule="evenodd" fill="#FFFFFF" d="M130.33,85.1l5-0.059V77.66h-5.542l-1.114,1.626l-1.024-1.626
		h-4.85h-5.693l-0.904,1.626l-0.963-1.626h-4.79h-0.361H99.876l-4.065,6.928V77.66h-9.188v25.423h9.188v-8.222l0.392-0.363
		l5.994,8.585h16.356l1.024-2.921h3.223h3.253l0.844,2.801l9.91,0.06l-0.271-0.752L130.33,85.1L130.33,85.1L130.33,85.1z
		 M110.088,98.866l-6.838-10.121l6.834-10.521l-0.057,6.998l5.543,0.06L110.088,98.866L110.088,98.866L110.088,98.866z
		 M122.8,93.324h-1.476l1.415-3.404l0.061,0.151l1.506,3.222L122.8,93.324L122.8,93.324L122.8,93.324z"/>
	<polygon fill-rule="evenodd" clip-rule="evenodd" fill="#FFFFFF" points="212.532,103.083 234.131,103.083 234.131,95.794 
		221.961,95.794 221.961,93.595 232.594,93.595 232.594,86.697 221.961,86.697 221.961,84.318 234.251,84.318 234.251,77.66 
		212.532,77.66 212.532,103.083 212.532,103.083 	"/>
	<path fill-rule="evenodd" clip-rule="evenodd" fill="#FFFFFF" d="M259.854,85.732v-0.571l0,0c-0.03-0.483-0.12-0.934-0.271-1.265
		c-0.393-1.838-1.687-3.616-3.133-4.82c-1.748-1.326-4.067-1.386-6.236-1.417l0,0h-1.928h-11.566v24.55l0.03,0.812l9.277,0.061
		v-8.374l0,0c0.543,0,1.506-0.09,2.259,0.031c0.271,0.029,0.514,0.089,0.693,0.211c0.424,0.266,1.205,0.723,1.234,1.175
		c1.056,3.042-0.029,4.367,0.904,6.957l0,0h8.193l-0.03-2.771l0,0c0.452-3.795,0.452-7.71-2.259-8.674
		C258.56,90.975,259.764,87.993,259.854,85.732L259.854,85.732L259.854,85.732L259.854,85.732z M248.859,88.534h-0.572h-2.379V84.74
		h2.379h0.211l0,0C251.148,84.558,251.511,88.113,248.859,88.534L248.859,88.534L248.859,88.534L248.859,88.534z"/>
	<polygon fill-rule="evenodd" clip-rule="evenodd" fill="#FFFFFF" points="201.599,86.938 196.236,86.938 196.236,77.66 
		187.079,77.66 187.079,103.083 196.447,103.083 196.447,93.836 201.599,93.836 201.599,103.083 210.364,103.083 210.364,77.66 
		201.599,77.66 201.599,86.938 201.599,86.938 	"/>
	<path fill-rule="evenodd" clip-rule="evenodd" fill="#FFFFFF" d="M159.729,83.896c-0.393-1.838-1.687-3.616-3.133-4.82
		c-1.777-1.326-4.097-1.386-6.266-1.417l0,0h-1.928h-11.537v24.55l0.03,0.812l9.248,0.061v-8.374l0,0
		c0.542,0,1.505-0.09,2.259,0.031c0.302,0.029,0.543,0.089,0.723,0.211c0.408,0.224,1.175,0.723,1.205,1.175
		c1.054,3.042-0.03,4.367,0.904,6.957l0,0h8.192l-0.029-2.771l0,0c0.48-3.795,0.451-7.71-2.26-8.674
		C159.188,90.764,160.603,85.854,159.729,83.896L159.729,83.896L159.729,83.896L159.729,83.896z M148.976,88.534h-0.572h-2.379
		V84.74h2.379h0.241l0,0C151.265,84.558,151.626,88.113,148.976,88.534L148.976,88.534L148.976,88.534L148.976,88.534z"/>
	<path fill-rule="evenodd" clip-rule="evenodd" fill="#FFFFFF" d="M72.797,79.83h-2.049h-0.06H68.58h-3.163l2.379,4.125h-3.523
		l2.229,3.886h-4.488l4.368,6.868l2.199,3.494l2.108,3.344l0.06,0.061l2.049-3.253l2.319-3.646l4.368-6.868h-4.519l2.259-3.886
		h-3.554l2.379-4.125H72.797L72.797,79.83L72.797,79.83z M67.767,81.275h0.813h2.078h0.03h2.108h0.783l-0.783,1.023l-0.692,0.965
		l-0.482,0.691h-0.874h-0.06h-0.994l-0.481-0.691l-0.633-0.875L67.767,81.275L67.767,81.275L67.767,81.275z M71.622,89.229
		l-0.934,1.294l-0.061,0.062l-0.964-1.355h0.934h0.091H71.622L71.622,89.229L71.622,89.229z M68.58,85.703h0.241l1.234,2.138H68.64
		l-0.06-0.12l-1.477-2.018H68.58L68.58,85.703L68.58,85.703z M76.593,89.229l-2.982,3.765l-0.813,0.964l-2.108,2.68l-0.091,0.091
		l-2.018-2.56l-0.964-1.175l-2.982-3.765h2.681l0.181,0.33l1.085,1.868l2.108,3.675l0.06,0.06l2.049-3.585l1.175-2.018l0.211-0.33
		H76.593L76.593,89.229L76.593,89.229z M74.183,85.703L72.797,87.6l-0.15,0.241h-1.205l1.234-2.138h0.121H74.183L74.183,85.703
		L74.183,85.703z"/>
	<path fill-rule="evenodd" clip-rule="evenodd" fill="#FFFFFF" d="M70.688,77.66H68.58h-9.549v26.326h9.549h2.108h2.108h9.549V77.66
		h-9.549H70.688L70.688,77.66L70.688,77.66z M81.502,78.594v24.369h-8.705h-2.108H68.58h-8.675V78.594h8.675h2.108h2.108H81.502
		L81.502,78.594L81.502,78.594z"/>
	<path fill-rule="evenodd" clip-rule="evenodd" fill="#FFFFFF" d="M177.02,91.998c0.752,3.374-3.555,6.236-6.056,2.38
		c-1.656-2.74-1.204-10.964,4.037-9.489c1.687,0.572,2.379,2.531,2.561,3.976l0,0l7.951-0.059l0,0c-0.029-1.145,0.012-3-0.199-4.114
		c-3.012-11.024-21.338-9.441-24.41,1.131c-0.904,3.103-0.723,6.718,0.663,10.572c1.596,4.55,6.055,6.416,10.754,6.688
		c7.049,0.362,12.706-1.821,13.489-9.353l0,0l0.034-1.732H177.02L177.02,91.998L177.02,91.998z"/>
	<polygon fill-rule="evenodd" clip-rule="evenodd" fill="#FFFFFF" points="59.182,108.596 260.969,108.596 260.969,122.873 
		59.182,122.873 59.182,108.596 59.182,108.596 	"/>
</g>
</svg>
