<?xml version="1.0" encoding="utf-8"?>
<!-- Generator: Adobe Illustrator 16.0.4, SVG Export Plug-In . SVG Version: 6.00 Build 0)  -->
<!DOCTYPE svg PUBLIC "-//W3C//DTD SVG 1.1//EN" "http://www.w3.org/Graphics/SVG/1.1/DTD/svg11.dtd">
<svg version="1.1" id="Layer_1" xmlns="http://www.w3.org/2000/svg" xmlns:xlink="http://www.w3.org/1999/xlink" x="0px" y="0px"
	 width="320px" height="200px" viewBox="0 0 320 200" enable-background="new 0 0 320 200" xml:space="preserve">
<polygon fill-rule="evenodd" clip-rule="evenodd" fill="#FFFFFF" points="59.409,87.058 59.409,90.745 65.456,90.745 
	77.291,112.941 91.855,112.941 103.691,90.708 109.738,90.671 109.75,87.058 91.658,87.058 91.658,90.684 96.477,90.684 
	88.119,106.463 79.08,90.738 85.672,90.708 85.661,87.058 59.409,87.058 "/>
<polygon fill-rule="evenodd" clip-rule="evenodd" fill="#FFFFFF" points="176.129,87.058 176.129,90.745 182.177,90.745 
	194.012,112.941 208.576,112.941 220.411,90.708 226.459,90.671 226.47,87.058 208.38,87.058 208.38,90.684 213.196,90.684 
	204.84,106.463 195.801,90.738 202.394,90.708 202.382,87.058 176.129,87.058 "/>
<path fill-rule="evenodd" clip-rule="evenodd" fill="#FFFFFF" d="M146.372,87.058v3.687h6.047l0.009,18.122h-6.374v4.039
	l6.378,0.035h30.193v-12.048c0,0-0.744,0-3.934,0c-0.214,6.38-5.749,7.982-8.078,7.982c-2.137,0-6.275-0.008-6.275-0.008V90.738
	l5.957-0.03l-0.01-3.65H146.372L146.372,87.058z"/>
<path fill-rule="evenodd" clip-rule="evenodd" fill="#FFFFFF" d="M126.013,86.333c-10.279,0-18.61,6.12-18.61,13.667
	c0,7.547,8.332,13.667,18.61,13.667s18.612-6.12,18.612-13.667C144.625,92.453,136.292,86.333,126.013,86.333L126.013,86.333z
	 M125.747,109.645c-3.624,0-6.559-4.341-6.559-9.697c0-5.358,2.936-9.701,6.559-9.701c3.623,0,6.56,4.343,6.56,9.701
	C132.307,105.304,129.37,109.645,125.747,109.645L125.747,109.645z"/>
<path fill-rule="evenodd" clip-rule="evenodd" fill="#FFFFFF" d="M242.736,86.11c-10.28,0-18.609,6.219-18.609,13.891
	c0,7.669,8.329,13.889,18.609,13.889c10.277,0,18.61-6.22,18.61-13.889C261.347,92.329,253.014,86.11,242.736,86.11L242.736,86.11z
	 M242.469,109.802c-3.621,0-6.558-4.412-6.558-9.858c0-5.443,2.937-9.856,6.558-9.856c3.623,0,6.559,4.413,6.559,9.856
	C249.027,105.39,246.092,109.802,242.469,109.802L242.469,109.802z"/>
</svg>
