<svg version="1.1" viewBox="0 0 64 64" xmlns="http://www.w3.org/2000/svg"><path d="M8,32l2.70006e-13,3.6239e-06c-2.00142e-06,-13.2548 10.7452,-24 24,-24c13.2548,-2.00142e-06 24,10.7452 24,24c2.00142e-06,13.2548 -10.7452,24 -24,24l1.04907e-06,-1.77636e-13c-13.2548,2.58081e-06 -24,-10.7452 -24,-24c-2.41585e-13,-1.22349e-06 -3.76588e-13,-2.40041e-06 -4.26326e-13,-3.6239e-06Zm25.3973,9.44l11.0046,-11.0227l3.29827e-08,-3.29408e-08c0.782146,-0.781152 0.782952,-2.04845 0.00179993,-2.8306c-0.781152,-0.782146 -2.04845,-0.782952 -2.8306,-0.00179993c0,0 -2.1103e-08,2.10762e-08 -2.1103e-08,2.10762e-08l-9.59,9.6064l-9.59,-9.6064l-5.68786e-08,-5.68103e-08c-0.782146,-0.781207 -2.04949,-0.780446 -2.8307,0.00170011c-0.781207,0.782146 -0.780446,2.04949 0.00170011,2.8307l11.0043,11.0227l-5.66351e-09,-5.6753e-09c0.779612,0.781234 2.04493,0.782549 2.82616,0.00293715c0.000980065,-0.00097803 0.00195911,-0.00195708 0.00293714,-0.00293714Z" fill="currentColor" fill-rule="evenodd" class="icon"/></svg>