<?xml version="1.0" encoding="utf-8"?>
<!-- Generator: Adobe Illustrator 16.0.0, SVG Export Plug-In . SVG Version: 6.00 Build 0)  -->
<!DOCTYPE svg PUBLIC "-//W3C//DTD SVG 1.1//EN" "http://www.w3.org/Graphics/SVG/1.1/DTD/svg11.dtd">
<svg version="1.1" id="Capa_1" xmlns="http://www.w3.org/2000/svg" xmlns:xlink="http://www.w3.org/1999/xlink" x="0px" y="0px"
	 width="50px" height="50px" viewBox="0 0 50 50" enable-background="new 0 0 50 50" xml:space="preserve">
<path fill-rule="evenodd" clip-rule="evenodd" fill="#99CC00" d="M37.215,26.44c-2.92,0-5.29-2.37-5.29-5.3
	c0-2.93,2.37-5.3,5.29-5.3c2.93,0,5.3,2.37,5.3,5.3C42.515,24.07,40.146,26.44,37.215,26.44z M32.655,41.12
	c-2.93,0-5.3-2.38-5.3-5.31c0-2.92,2.37-5.29,5.3-5.29c2.92,0,5.29,2.37,5.29,5.29C37.945,38.74,35.575,41.12,32.655,41.12z
	 M24.945,17.64c-2.93,0-5.3-2.37-5.3-5.3c0-2.92,2.37-5.3,5.3-5.3s5.3,2.38,5.3,5.3C30.245,15.27,27.875,17.64,24.945,17.64z
	 M17.425,41.12c-2.93,0-5.3-2.38-5.3-5.31c0-2.92,2.37-5.29,5.3-5.29c2.92,0,5.3,2.37,5.3,5.29
	C22.725,38.74,20.345,41.12,17.425,41.12z M7.396,21.14c0-2.93,2.37-5.3,5.3-5.3c2.92,0,5.29,2.37,5.29,5.3
	c0,2.93-2.37,5.3-5.29,5.3C9.765,26.44,7.396,24.07,7.396,21.14z M24.945,0c-13.81,0-24.89,11.19-24.89,25
	c0,6.14,2.22,11.76,5.89,16.12V50l7.84-2.68c3.39,1.71,7.1,2.68,11.16,2.68c13.81,0,25-11.19,25-25S38.755,0,24.945,0z"/>
</svg>
