<svg width="32" height="32" viewBox="0 0 32 32" xmlns="http://www.w3.org/2000/svg" xmlns:xlink="http://www.w3.org/1999/xlink"><title>mirror-share</title><defs><linearGradient x1="50%" y1="0%" x2="50%" y2="100%" id="a"><stop stop-color="#8F9CB3" offset="0%"/><stop stop-color="#BAC6D5" offset="100%"/></linearGradient><circle id="b" cx="15" cy="15" r="15"/><linearGradient x1="50%" y1="3.03%" x2="50%" y2="100%" id="c"><stop stop-color="#8F9CB3" offset="0%"/><stop stop-color="#BAC6D5" offset="100%"/></linearGradient><linearGradient x1="50%" y1="28.788%" x2="50%" y2="124.242%" id="e"><stop stop-color="#8F9CB3" offset="0%"/><stop stop-color="#BAC6D5" offset="100%"/></linearGradient><linearGradient x1="50%" y1="-18.559%" x2="50%" y2="65.801%" id="f"><stop stop-color="#8F9CB3" offset="0%"/><stop stop-color="#BAC6D5" offset="100%"/></linearGradient><linearGradient x1="50%" y1="-17.701%" x2="50%" y2="63.982%" id="g"><stop stop-color="#8F9CB3" offset="0%"/><stop stop-color="#BAC6D5" offset="100%"/></linearGradient><linearGradient x1="50%" y1="-425%" x2="50%" y2="375%" id="h"><stop stop-color="#8F9CB3" offset="0%"/><stop stop-color="#BAC6D5" offset="100%"/></linearGradient><linearGradient x1="50%" y1="-175%" x2="50%" y2="625%" id="i"><stop stop-color="#8F9CB3" offset="0%"/><stop stop-color="#BAC6D5" offset="100%"/></linearGradient><linearGradient x1="50%" y1="-550%" x2="50%" y2="250%" id="j"><stop stop-color="#8F9CB3" offset="0%"/><stop stop-color="#BAC6D5" offset="100%"/></linearGradient></defs><g fill="none" fill-rule="evenodd"><path d="M16 2C8.268 2 2 8.268 2 16s6.268 14 14 14 14-6.267 14-14S23.73 2 16 2zm0-2c8.836 0 16 7.163 16 16s-7.164 16-16 16S0 24.837 0 16 7.164 0 16 0z" fill="url(#a)"/><g transform="translate(1 1)"><mask id="d" fill="#fff"><use xlink:href="#b"/></mask><use fill-opacity="0" fill="#D8D8D8" xlink:href="#b"/><path d="M23.5 31C32.613 31 40 23.613 40 14.5S32.613-2 23.5-2 7 5.387 7 14.5 14.387 31 23.5 31zm0-1C32.06 30 39 23.06 39 14.5 39 5.94 32.06-1 23.5-1 14.94-1 8 5.94 8 14.5 8 23.06 14.94 30 23.5 30z" fill="url(#c)" mask="url(#d)"/><path d="M9.5 23C18.613 23 26 15.613 26 6.5S18.613-10 9.5-10-7-2.613-7 6.5.387 23 9.5 23zm0-1C18.06 22 25 15.06 25 6.5 25-2.06 18.06-9 9.5-9 .94-9-6-2.06-6 6.5-6 15.06.94 22 9.5 22z" fill="url(#e)" opacity=".7" mask="url(#d)"/><path d="M16 44c10.493 0 19-8.507 19-19S26.493 6 16 6-3 14.507-3 25s8.507 19 19 19zm0-1c9.94 0 18-8.06 18-18S25.94 7 16 7-2 15.06-2 25s8.06 18 18 18z" fill="url(#f)" opacity=".3" mask="url(#d)"/><path d="M4 44c10.493 0 19-8.507 19-19S14.493 6 4 6s-19 8.507-19 19 8.507 19 19 19zm0-1c9.94 0 18-8.06 18-18S13.94 7 4 7s-18 8.06-18 18 8.06 18 18 18z" fill="url(#g)" opacity=".6" mask="url(#d)"/></g><g transform="translate(8 7)"><circle fill="url(#h)" cx="14" cy="12" r="2"/><circle fill="url(#i)" cx="2" cy="2" r="2"/><circle fill="url(#j)" cx="3" cy="16.5" r="2"/></g></g></svg>