<svg width="38" height="32" viewBox="0 0 38 32" xmlns="http://www.w3.org/2000/svg"><title>mirror-preview</title><defs><linearGradient x1="50%" y1="-30.435%" x2="50%" y2="100%" id="a"><stop stop-color="#8F9CB3" offset="0%"/><stop stop-color="#BAC6D5" offset="100%"/></linearGradient></defs><g transform="translate(0 5)" fill="url(#a)" fill-rule="evenodd"><path d="M19 20c4.344 0 8.697-1.515 12.3-3.995C34.104 14.078 36 11.76 36 11c0-.76-1.897-3.078-4.7-5.005C27.698 3.515 23.345 2 19 2S10.303 3.515 6.7 5.995C3.896 7.922 2 10.24 2 11c0 .76 1.897 3.078 4.7 5.005C10.302 18.485 14.655 20 19 20zm0 2C8.507 22 0 14.075 0 11S8.507 0 19 0s19 7.925 19 11-8.507 11-19 11z"/><path d="M19 17a6 6 0 1 0 0-12 6 6 0 0 0 0 12zm0-6a2 2 0 1 0 0-4 2 2 0 0 0 0 4z"/></g></svg>