<svg viewBox="0 0 1440 3550" xmlns="http://www.w3.org/2000/svg"><g stroke="#FFF" fill="#FFF" fill-rule="evenodd" stroke-opacity=".3"><path opacity=".02" d="M326.605 1822.513l181.02-181.02 181.018 181.02-181.02 181.02zm-214.96 214.96l181.02-181.02 181.02 181.02-181.02 181.02zm-214.96 214.96l181.02-181.02 181.017 181.02-181.02 181.02zm-214.962 214.962l181.02-181.02 181.02 181.02-181.02 181.02zm-214.96 214.96l181.02-181.02 181.018 181.02-181.017 181.02zm-214.96 214.96l181.02-181.02 181.02 181.02-181.02 181.02zm1289.762-859.84l181.02-181.02 181.02 181.02-181.02 181.02zm-214.96 214.96l181.02-181.02 181.018 181.02-181.02 181.02zm-214.96 214.96l181.02-181.02 181.02 181.02-181.02 181.02z"/><path opacity=".06" d="M-104.023 2681.648l181.02-181.02 181.018 181.02-181.02 181.02z"/><path opacity=".02" d="M-318.277 2897.316l181.02-181.02 181.02 181.02-181.02 181.02zm-214.96 214.96l181.02-181.02 181.018 181.02-181.017 181.02zm1289.763-859.842l181.02-181.02 181.018 181.02-181.02 181.02zm-214.96 214.96l181.02-181.02 181.02 181.02-181.02 181.02zm-214.96 214.96l181.02-181.02 181.017 181.02-181.02 181.02zm-214.962 214.962l181.02-181.02 181.02 181.02-181.02 181.02zm-214.96 214.96l181.02-181.02 181.018 181.02-181.02 181.02zm-214.96 214.96l181.02-181.02 181.02 181.02-181.02 181.02zm1289.762-859.84l181.02-181.02 181.02 181.02-181.02 181.02zm-214.96 214.96l181.02-181.02 181.018 181.02-181.02 181.02zm-214.96 214.96l181.02-181.02 181.02 181.02-181.02 181.02zm-214.96 214.96l181.02-181.02 181.017 181.02-181.02 181.02zm-214.962 214.96l181.02-181.02 181.02 181.02-181.02 181.02zm-214.96 214.96l181.02-181.02 181.018 181.02-181.02 181.02zm1289.762-859.84l181.02-181.02 181.02 181.02-181.02 181.02z"/><path opacity=".06" d="M970.78 2896.61l181.018-181.02 181.02 181.02-181.02 181.018z"/><path opacity=".02" d="M756.526 3112.276l181.02-181.02 181.018 181.02-181.02 181.02zm-214.96 214.96l181.02-181.02 181.02 181.02-181.02 181.02zm-214.96 214.96l181.02-181.02 181.017 181.02-181.02 181.02zm-214.962 214.96l181.02-181.02 181.02 181.02-181.02 181.02zm1289.763-859.84l181.02-181.02 181.02 181.02-181.02 181.02zm-214.96 214.96l181.02-181.02 181.02 181.02-181.02 181.02zm-214.96 214.96l181.02-181.02 181.02 181.02-181.02 181.02z"/><path opacity=".02" d="M971.486 3327.237l181.02-181.02 181.02 181.02-181.02 181.02zm-214.96 214.96l181.02-181.02 181.018 181.02-181.02 181.02z"/><path opacity=".03" d="M541.565 3757.157l181.02-181.02 181.02 181.02-181.02 181.02z"/><path opacity=".02" d="M326.605 3972.118l181.02-181.02 181.018 181.02-181.02 181.02zm-214.96-2364.565l181.02-181.02 181.02 181.02-181.02 181.02zm-214.96 214.96l181.02-181.02 181.017 181.02-181.02 181.02zm-214.962 214.96l181.02-181.02 181.02 181.02-181.02 181.02zm-214.96 214.96l181.02-181.02 181.018 181.02-181.017 181.02zm-214.96 214.962l181.02-181.02 181.02 181.02-181.02 181.02zm-214.96 214.96l181.02-181.02 181.02 181.02-181.02 181.02zm859.84-1289.763l181.02-181.02 181.02 181.02-181.02 181.02zm-214.96 214.96l181.02-181.02 181.02 181.02-181.02 181.02z"/><path opacity=".05" d="M-533.237 1822.513l181.02-181.02 181.018 181.02-181.017 181.02z"/><path opacity=".02" d="M-748.198 2037.474l181.02-181.02 181.02 181.02-181.02 181.02zm-214.96 214.96l181.02-181.02 181.02 181.02-181.02 181.02zm-214.962 214.96l181.02-181.02 181.02 181.02-181.02 181.02z"/><path opacity=".03" d="M-318.277 1177.632l181.02-181.02 181.02 181.02-181.02 181.02z"/><path opacity=".06" d="M-533.237 1392.592l181.02-181.02 181.018 181.02-181.017 181.02z"/><path opacity=".02" d="M-748.198 1607.553l181.02-181.02 181.02 181.02-181.02 181.02zm-214.96 214.96l181.02-181.02 181.02 181.02-181.02 181.02z"/><path opacity=".04" d="M-1178.12 2037.474l181.02-181.02 181.02 181.02-181.02 181.02z"/><path opacity=".02" d="M-1393.08 2252.434l181.02-181.02 181.02 181.02-181.02 181.02zM-533.237 962.67l181.02-181.018 181.018 181.02-181.017 181.02zm-214.96 214.962l181.02-181.02 181.02 181.02-181.02 181.02zm-214.96 214.96l181.02-181.02 181.02 181.02-181.02 181.02zm-214.963 214.96l181.02-181.02 181.02 181.02-181.02 181.02z"/><path opacity=".04" d="M-1393.08 1822.513l181.02-181.02 181.02 181.02-181.02 181.02z"/><path opacity=".02" d="M-1608.04 2037.474l181.02-181.02 181.02 181.02-181.02 181.02zM-748.198 747.71l181.02-181.018 181.02 181.02-181.02 181.018zm1289.056 859.136l181.02-181.02 181.02 181.02-181.02 181.02zm215.668 215.667l181.02-181.02 181.018 181.02-181.02 181.02z"/><path opacity=".04" d="M971.486 2037.474l181.02-181.02 181.02 181.02-181.02 181.02z"/><path opacity=".02" d="M1186.446 2252.434l181.02-181.02 181.02 181.02-181.02 181.02zm214.96 214.96l181.02-181.02 181.02 181.02-181.02 181.02zm214.96 214.96l181.02-181.02 181.02 181.02-181.02 181.02z"/><path opacity=".05" d="M326.605 1392.592l181.02-181.02 181.018 181.02-181.02 181.02z"/><path opacity=".02" d="M111.644 1177.632l181.02-181.02 181.02 181.02-181.02 181.02zm-214.96-214.962l181.02-181.018 181.018 181.02-181.02 181.02z"/><path opacity=".04" d="M-318.277 747.71l181.02-181.018 181.02 181.02-181.02 181.018z"/><path opacity=".02" d="M-533.237 532.75l181.02-181.02L-171.2 532.75l-181.018 181.02zm1289.763 859.842l181.02-181.02 181.018 181.02-181.02 181.02zm214.96 214.96l181.02-181.02 181.02 181.02-181.02 181.02zm214.96 214.96l181.02-181.02 181.02 181.02-181.02 181.02zm214.96 214.962l181.02-181.02 181.02 181.02-181.02 181.02zm214.96 214.96l181.02-181.02 181.02 181.02-181.02 181.02zm214.962 214.96l181.02-181.02 181.02 181.02-181.02 181.02zM541.565 1177.633l181.02-181.02 181.02 181.02-181.02 181.02zM326.605 962.67l181.02-181.018 181.018 181.02-181.02 181.02z"/><path opacity=".03" d="M111.644 747.71l181.02-181.018 181.02 181.02-181.02 181.018z"/><path opacity=".02" d="M-103.316 532.75l181.02-181.02L258.72 532.75 77.702 713.77zm-214.96-214.96l181.02-181.02 181.02 181.02-181.02 181.02z"/><path opacity=".05" d="M971.486 1177.632l181.02-181.02 181.02 181.02-181.02 181.02z"/><path opacity=".02" d="M1186.446 1392.592l181.02-181.02 181.02 181.02-181.02 181.02zm214.96 214.96l181.02-181.02 181.02 181.02-181.02 181.02zm214.96 214.96l181.02-181.02 181.02 181.02-181.02 181.02z"/><path opacity=".03" d="M1831.328 2037.474l181.02-181.02 181.02 181.02-181.02 181.02z"/><path opacity=".02" d="M2046.288 2252.434l181.02-181.02 181.02 181.02-181.02 181.02zM756.526 962.67l181.02-181.018 181.018 181.02-181.02 181.02zm-214.96-214.96l181.02-181.018 181.02 181.02-181.02 181.018z"/><path opacity=".06" d="M326.605 532.75l181.02-181.02 181.018 181.02-181.02 181.02z"/><path opacity=".02" d="M111.644 317.79l181.02-181.02 181.02 181.02-181.02 181.02zm-214.96-214.96L77.704-78.19 258.72 102.83 77.702 283.85zm1289.762 859.84l181.02-181.018 181.02 181.02-181.02 181.02zm214.96 214.962l181.02-181.02 181.02 181.02-181.02 181.02z"/><path opacity=".06" d="M1615.66 1391.885l181.02-181.02 181.02 181.02-181.02 181.02z"/><path opacity=".02" d="M1831.328 1607.553l181.02-181.02 181.02 181.02-181.02 181.02zm214.96 214.96l181.02-181.02 181.02 181.02-181.02 181.02zm214.962 214.96l181.018-181.02 181.02 181.02-181.02 181.02z"/><path opacity=".04" d="M971.486 747.71l181.02-181.018 181.02 181.02-181.02 181.018z"/><path opacity=".02" d="M756.526 532.75l181.02-181.02 181.018 181.02-181.02 181.02zm-214.96-214.96l181.02-181.02 181.02 181.02-181.02 181.02z"/><path opacity=".03" d="M326.605 102.83l181.02-181.02 181.018 181.02-181.02 181.02z"/><path opacity=".02" d="M111.644-112.13l181.02-181.02 181.02 181.02-181.02 181.02z"/><path opacity=".03" d="M1401.407 747.71l181.02-181.018 181.02 181.02-181.02 181.018z"/><path opacity=".02" d="M1616.367 962.67l181.02-181.018 181.02 181.02-181.02 181.02zm214.96 214.962l181.02-181.02 181.02 181.02-181.02 181.02zm214.96 214.96l181.02-181.02 181.02 181.02-181.02 181.02zm214.963 214.96l181.018-181.02 181.02 181.02-181.02 181.02zm214.96 214.96l181.02-181.02 181.018 181.02-181.02 181.02zM1186.446 532.75l181.02-181.02 181.02 181.02-181.02 181.02zm-214.96-214.96l181.02-181.02 181.02 181.02-181.02 181.02z"/><path opacity=".06" d="M756.526 102.83l181.02-181.02 181.018 181.02-181.02 181.02z"/><path opacity=".02" d="M541.565-112.13l181.02-181.02 181.02 181.02-181.02 181.02zm-214.96-214.96l181.02-181.02 181.018 181.02-181.02 181.018zm1289.762 859.84l181.02-181.02 181.02 181.02-181.02 181.02zm214.96 214.96l181.02-181.018 181.02 181.02-181.02 181.018zm214.96 214.96l181.02-181.018 181.02 181.02-181.02 181.02zm214.963 214.962l181.018-181.02 181.02 181.02-181.02 181.02zm214.96 214.96l181.02-181.02 181.018 181.02-181.02 181.02zm214.96 214.96l181.02-181.02 181.018 181.02-181.02 181.02zM1401.407 317.79l181.02-181.02 181.02 181.02-181.02 181.02zm-214.96-214.96l181.02-181.02 181.02 181.02-181.02 181.02zm-214.96-214.96l181.02-181.02 181.02 181.02-181.02 181.02zm-214.96-214.96l181.02-181.02 181.017 181.02-181.02 181.018zM541.564-542.052l181.02-181.02 181.02 181.02-181.02 181.02z"/><path opacity=".04" d="M-963.158 962.67l181.02-181.018 181.02 181.02-181.02 181.02z"/><path opacity=".02" d="M-1178.12 1177.632l181.02-181.02 181.02 181.02-181.02 181.02zm-214.96 214.96l181.02-181.02 181.02 181.02-181.02 181.02zm-214.96 214.96l181.02-181.02 181.02 181.02-181.02 181.02zm-214.96 214.96l181.02-181.02 181.02 181.02-181.02 181.02z"/></g></svg>