<svg viewBox="0 0 1440 320" xmlns="http://www.w3.org/2000/svg">
  <g fill="none" fill-rule="evenodd">
    <polygon fill="#130A33" points="0 0 1440 0 1440 320 0 320"/>
    <circle stroke-opacity=".2" stroke="#FFFFFF" fill="#180D40" cx="42" cy="277" r="9"/>
    <circle stroke-opacity=".2" stroke="#FFFFFF" fill="#180D40" cx="230.5" cy="293.5" r="10.5"/>
    <circle stroke-opacity=".2" stroke="#FFFFFF" fill="#180D40" cx="299.5" cy="222.5" r="10.5"/>
    <circle stroke-opacity=".2" stroke="#FFFFFF" fill="#180D40" cx="482" cy="121" r="8"/>
    <circle stroke-opacity=".2" stroke="#FFFFFF" fill="#180D40" cx="728.5" cy="230.5" r="6.5"/>
    <circle stroke-opacity=".2" stroke="#FFFFFF" fill="#180D40" cx="991" cy="145" r="8"/>
    <circle stroke-opacity=".2" stroke="#FFFFFF" fill="#180D40" cx="1075.5" cy="165.5" r="9.5"/>
    <circle stroke-opacity=".2" stroke="#FFFFFF" fill="#180D40" cx="1100" cy="137" r="6"/>
    <circle stroke-opacity=".2" stroke="#FFFFFF" fill="#180D40" cx="1135" cy="274" r="5"/>
    <circle stroke-opacity=".2" stroke="#FFFFFF" fill="#180D40" cx="1219.5" cy="178.5" r="8.5"/>
    <circle stroke-opacity=".2" stroke="#FFFFFF" fill="#180D40" cx="1384.5" cy="194.5" r="5.5"/>
    <path d="M203.117,206.44 L219.561,199.117 L226.884,215.561 L210.44,222.884 L203.117,206.44 Z M241.384,56 L263.38,56.384 L262.996,78.38 L241,77.996 L241.384,56 Z M360.14,245.862 L376.138,246.142 L375.858,262.138 L359.862,261.858 L360.14,245.862 Z M390,269.135 L404.42,265 L408.554,279.42 L394.134,283.554 L390,269.135 Z M506.042,252.224 L525.776,245.042 L532.958,264.776 L513.224,271.958 L506.042,252.224 Z M635.35,281.847 L651.153,284.35 L648.65,300.153 L632.847,297.65 L635.35,281.847 Z M678,238.017 L691.07,233 L696.088,246.07 L683.018,251.087 L678,238.017 Z M679.22,306 L689.144,307.22 L687.924,317.144 L678,315.924 L679.22,306 Z M667.107,110 L688.982,117.108 L681.874,138.982 L660,131.874 L667.107,110 Z M778.6,217 L794.935,223.6 L788.335,239.934 L772,233.334 L778.6,217 Z M865,287.395 L884.95,286 L886.346,305.95 L866.396,307.346 L865,287.395 Z M1138.14,224.938 L1159.062,218.138 L1165.862,239.062 L1144.938,245.862 L1138.14,224.938 Z M1210.173,196.302 L1225.698,200.172 L1221.828,215.698 L1206.302,211.828 L1210.173,196.302 Z M763,292 L787,292 L787,316 L763,316 L763,292 Z M877.29,177 L895.73,178.29 L894.44,196.73 L876,195.44 L877.29,177 Z M24.848,129.8 L31.888,150.336 L11.208,146.689 L24.848,129.8 Z M153.167,116.786 L163.977,123.124 L153.69,129.304 L153.167,116.786 Z M368.723,150.6 L383.049,161.16 L367.602,168.362 L368.723,150.6 Z M566.905,33.56 L563.923,49.16 L552.266,39.72 L566.905,33.56 Z M803.33,59.105 L809.56,77.303 L791.78,74.487 L803.33,59.105 Z M843.04,66.985 L856.308,70.185 L847.61,79.845 L843.04,66.985 Z M1028.464,240.828 L1039.497,257.932 L1020.569,259.587 L1028.464,240.828 Z M544.514,201.517 L543.217,209.475 L537,204.44 L544.514,201.517 Z" stroke-opacity=".2" stroke="#FFFFFF" fill="#180D40"/>
  </g>
</svg>
