<svg viewBox="0 0 34 34" xmlns="http://www.w3.org/2000/svg">
  <defs>
    <linearGradient x1="50%" y1="0%" x2="50%" y2="100%" id="a">
      <stop stop-color="#9B66FF" offset="0%"/>
      <stop stop-color="#6236FF" offset="100%"/>
    </linearGradient>
  </defs>
  <g transform="translate(-20.000000, -560.000000) translate(20.000000, 560.000000)" fill="none" fill-rule="evenodd">
    <circle cx="17" cy="17" r="17" fill="url(#a)"/>
    <g transform="translate(3.000000, 2.000000)">
      <g transform="translate(3.000000, 4.000000)">
        <path d="M1,7 C3.5,5 6,6 7,1 C7,1 11,3.5 15,1 C15,1 17.5,7 21,7 C21,7 18.5,10.5 21,15 C21,15 16.5,15.5 15.5,21 C15.5,21 10.5,18 7,21 C7,21 6.5,17 1,15.5 C1,14.5 4,11 1,7 Z" fill="#A086FF"/>
        <g transform="translate(1.000000, 1.000000)" stroke="#DFD6FF" stroke-linecap="round">
          <path d="M14,0.5 L10,10 L6,0.5 M19.4675144,6.03248551 L10,10 L13.9675144,0.532485579 M19.5,14 L10,10 L19.5,6 M13.9675145,19.4675144 L10,10 L19.4675144,13.9675144 M6,19.5 L10,10 L14,19.5 M0.532485647,13.9675145 L10,10 L6.03248558,19.4675144 M0.5,6 L10,10 L0.5,14 M6.03248544,0.532485715 L10,10 L0.532485579,6.03248558" stroke-linejoin="round"/>
          <path d="M7.8999939,4.5 C7.8999939,4.5 9,5 10,5 C11,5 12.1000061,4.5 12.1000061,4.5 M12.4041587,4.62598415 C12.4041587,4.62598415 12.8284271,5.75735931 13.5355339,6.46446609 C14.2426407,7.17157288 15.3740159,7.59584126 15.3740159,7.59584126 M15.5,7.8999939 C15.5,7.8999939 15,9 15,10 C15,11 15.5,12.1000061 15.5,12.1000061 M15.3740159,12.4041587 C15.3740159,12.4041587 14.2426407,12.8284271 13.5355339,13.5355339 C12.8284271,14.2426407 12.4041587,15.3740159 12.4041587,15.3740159 M12.1000061,15.5 C12.1000061,15.5 11,15 10,15 C9,15 7.8999939,15.5 7.8999939,15.5 M7.59584126,15.3740159 C7.59584126,15.3740159 7.17157288,14.2426407 6.46446609,13.5355339 C5.75735931,12.8284271 4.62598415,12.4041587 4.62598415,12.4041587 M4.5,12.1000061 C4.5,12.1000061 5,11 5,10 C5,9 4.5,7.8999939 4.5,7.8999939 M4.62598415,7.59584126 C4.62598415,7.59584126 5.75735931,7.17157288 6.46446609,6.46446609 C7.17157288,5.75735931 7.59584126,4.62598415 7.59584126,4.62598415"/>
        </g>
        <path d="M6.68421053,0.75 C6.68421053,0.75 9.53089128,2.36842105 11,2.36842105 C12.4080843,2.36842105 15.3157895,0.75 15.3157895,0.75 M15.2807392,0.78505023 C15.2807392,0.78505023 16.0646313,3.85773526 17.103448,4.89655199 C18.0991139,5.89221793 21.2149496,6.71926061 21.2149496,6.71926061 M21.25,6.68421053 C21.25,6.68421053 19.6315789,9.53089128 19.6315789,11 C19.6315789,12.4080843 21.25,15.3157895 21.25,15.3157895 M21.2149498,15.2807392 C21.2149498,15.2807392 18.1422647,16.0646313 17.103448,17.103448 C16.1077821,18.0991139 15.2807394,21.2149496 15.2807394,21.2149496 M15.3157895,21.25 C15.3157895,21.25 12.4691087,19.6315789 11,19.6315789 C9.59191573,19.6315789 6.68421053,21.25 6.68421053,21.25 M6.71926076,21.2149498 C6.71926076,21.2149498 5.93536873,18.1422647 4.89655199,17.103448 C3.90088606,16.1077821 0.785050303,15.2807393 0.785050303,15.2807393 M0.75,15.3157895 C0.75,15.3157895 2.36842105,12.4691087 2.36842105,11 C2.36842105,9.59191573 0.75,6.68421053 0.75,6.68421053 M0.78505023,6.71926076 C0.78505023,6.71926076 3.85773526,5.93536873 4.89655199,4.89655199 C5.89221793,3.90088606 6.71926068,0.785050303 6.71926068,0.785050303" stroke="#FFFFFF" stroke-width="1.3" stroke-linecap="round"/>
      </g>
    </g>
  </g>
</svg>
