<svg viewBox="0 0 34 34" xmlns="http://www.w3.org/2000/svg">
  <defs>
    <linearGradient x1="50%" y1="0%" x2="50%" y2="100%" id="a">
      <stop stop-color="#60E5FF" offset="0%"/>
      <stop stop-color="#32C5FF" offset="100%"/>
    </linearGradient>
    <linearGradient x1="50%" y1="58.034%" x2="50%" y2="100%" id="b">
      <stop stop-color="#4ED7FF" offset="0%"/>
      <stop stop-color="#FFFFFF" offset="100%"/>
    </linearGradient>
  </defs>
  <g transform="translate(-20.000000, -80.000000) translate(20.000000, 80.000000)" fill="none" fill-rule="evenodd">
    <circle cx="17" cy="17" r="17" fill="url(#a)"/>
    <g transform="translate(6.000000, 8.000000)">
      <path d="M3.68677539,6.07366489 C4.26339087,4.44054972 5.79432607,3.40524034 7.5,3.5 C7.62304403,3.50683578 7.74579604,3.51310611 7.86773135,3.52291235 C7.86706656,3.52319038 7.86640217,3.52346832 7.86573821,3.52374618 C8.67115129,1.42928825 10.6959192,0 13,0 C15.9472224,0 18.3530151,2.31813595 18.4935149,5.23054463 L18.4921567,5.22646999 C20.5513021,5.86844078 22,7.78720682 22,10 C22,12.7614237 19.7614237,15 17,15 L4.5,15 C2.01471863,15 0,12.9852814 0,10.5 C0,8.30472361 1.57834919,6.45719017 3.68775317,6.07311909 C3.68742714,6.07330107 3.68710121,6.07348301 3.68677539,6.07366489 L3.68677539,6.07366489 Z" fill="#FFFFFF"/>
      <path d="M11,6 C11.2834403,6 11.5393383,6.11786368 11.7213091,6.3070955 L15.7071068,10.2928932 C16.0976311,10.6834175 16.0976311,11.3165825 15.7071068,11.7071068 C15.3165825,12.0976311 14.6834175,12.0976311 14.2928932,11.7071068 L12,9.41421356 L12,17.0014977 C12,17.5529553 11.5561352,18 11,18 C10.4477153,18 10,17.5525106 10,17.0014977 L10,9.41421356 L7.70710678,11.7071068 C7.31658249,12.0976311 6.68341751,12.0976311 6.29289322,11.7071068 C5.90236893,11.3165825 5.90236893,10.6834175 6.29289322,10.2928932 L10.2563383,6.32944811 C10.4387688,6.1271378 10.7034198,6 11,6 Z" fill="url(#b)"/>
    </g>
  </g>
</svg>
