<svg viewBox="0 0 34 34" xmlns="http://www.w3.org/2000/svg">
  <defs>
    <linearGradient x1="50%" y1="0%" x2="50%" y2="100%" id="a">
      <stop stop-color="#00C4FF" offset="0%"/>
      <stop stop-color="#0091FF" offset="100%"/>
    </linearGradient>
  </defs>
  <g transform="translate(-20.000000, -20.000000) translate(20.000000, 20.000000)" fill="none" fill-rule="evenodd">
    <circle cx="17" cy="17" r="17" fill="url(#a)"/>
    <g transform="translate(8.000000, 8.000000)">
      <path d="M8.49900885,18 L16.5017548,18 C17.3247509,18 18,17.3267661 18,16.4962901 L18,1.50370994 C18,0.661976963 17.3292128,-8.8817842e-15 16.5017548,-8.8817842e-15 L5.49824524,-8.8817842e-15 C4.6752491,-8.8817842e-15 4,0.673233873 4,1.50370994 L4,3 L5,3 L5,2 L17,2 L17,16 L9,16 L9,16.5 C9,17.062803 8.81363368,17.5821697 8.49900885,18 Z M0,5.49824524 C0,4.67078724 0.66831553,4 1.50473881,4 L6.49526119,4 C7.32630549,4 8,4.6752491 8,5.49824524 L8,16.5017548 C8,17.3292128 7.33168447,18 6.49526119,18 L1.50473881,18 C0.673694512,18 0,17.3247509 0,16.5017548 L0,5.49824524 Z M1,6 L7,6 L7,16 L1,16 L1,6 Z" fill="#FFFFFF"/>
      <path d="M9,16 L17,16 L17,2 L5,2 L5,3 L6.49299824,3 C7.87757708,3 9,4.12508893 9,5.5 L9,16 Z M1,6 L7,6 L7,16 L1,16 L1,6 Z" fill="#99D3FF"/>
    </g>
  </g>
</svg>
