<svg viewBox="0 0 34 34" xmlns="http://www.w3.org/2000/svg">
  <defs>
    <linearGradient x1="50%" y1="0%" x2="50%" y2="100%" id="a">
      <stop stop-color="#FF6166" offset="0%"/>
      <stop stop-color="#E02020" offset="100%"/>
    </linearGradient>
  </defs>
  <g transform="translate(-20.000000, -320.000000) translate(20.000000, 320.000000)" fill="none" fill-rule="evenodd">
    <circle cx="17" cy="17" r="17" fill="url(#a)"/>
    <path d="M1.3997294,3.41328927 L1.3997294,12.5499878 L3.3119144,12.5499878 L3.3119144,9.66904682 L5.11645985,9.66904682 C7.04130833,9.66904682 8.37730513,8.41536261 8.37730513,6.54116804 C8.37730513,4.66064173 7.0856305,3.41328927 5.21143593,3.41328927 L1.3997294,3.41328927 Z M3.3119144,4.92657475 L4.70489685,4.92657475 C5.8002876,4.92657475 6.43346144,5.50909468 6.43346144,6.54749978 C6.43346144,7.59223662 5.79395586,8.17475655 4.69856512,8.17475655 L3.3119144,8.17475655 L3.3119144,4.92657475 Z M9.60435457,3.41328927 L9.60435457,12.5499878 L13.1248011,12.5499878 C15.8664439,12.5499878 17.4810372,10.8467502 17.4810372,7.94681397 C17.4810372,5.04687778 15.8664439,3.41328927 13.1248011,3.41328927 L9.60435457,3.41328927 Z M11.5165396,4.98989213 L12.8968585,4.98989213 C14.581101,4.98989213 15.5308617,6.04096071 15.5308617,7.95314571 C15.5308617,9.92864809 14.6064279,10.9670532 12.8968585,10.9670532 L11.5165396,10.9670532 L11.5165396,4.98989213 Z M20.7215794,12.5499878 L20.7215794,8.95356038 L24.4383099,8.95356038 L24.4383099,7.4402749 L20.7215794,7.4402749 L20.7215794,4.98989213 L24.7928872,4.98989213 L24.7928872,3.41328927 L18.8093944,3.41328927 L18.8093944,12.5499878 L20.7215794,12.5499878 Z" transform="translate(4.000000, 9.000000)" fill="#FFFFFF"/>
  </g>
</svg>
