<svg viewBox="0 0 34 34" xmlns="http://www.w3.org/2000/svg">
  <defs>
    <linearGradient x1="50%" y1="0%" x2="50%" y2="100%" id="a">
      <stop stop-color="#B3EE00" offset="0%"/>
      <stop stop-color="#6DD400" offset="100%"/>
    </linearGradient>
  </defs>
  <g transform="translate(-20.000000, -140.000000) translate(20.000000, 140.000000)" fill="none" fill-rule="evenodd">
    <circle cx="17" cy="17" r="17" fill="url(#a)"/>
    <g transform="translate(6.000000, 6.000000)">
      <circle fill="#FFFFFF" cx="11" cy="11" r="11"/>
      <path d="M17.4684432,4.74225437 C15.8322009,3.05126898 13.538869,2 11,2 C6.02943725,2 2,6.02943725 2,11 C2,11.3481836 2.01977197,11.6917492 2.05825438,12.0296353 C2.53715229,8.06898692 5.91017599,5 10,5 C11.457957,5 12.8248225,5.39000956 14.0019584,6.07139081 C15.5480279,5.35657938 16.6552941,4.89685112 17.4684432,4.74225437 Z" fill="#C4ED99"/>
      <path d="M9.36186739,12.1568345 C9.99542243,13.0616449 11.242514,13.2815408 12.1473244,12.6479857 C13.0521347,12.0144307 18.9461163,6.66664574 18.3725399,5.8474937 C17.7989634,5.02834165 10.757829,8.7378225 9.85301861,9.37137754 C8.94820825,10.0049326 8.72831236,11.2520241 9.36186739,12.1568345 L9.36186739,12.1568345 L9.36186739,12.1568345 Z" fill="#6DD400"/>
    </g>
  </g>
</svg>
