<svg viewBox="0 0 34 34" xmlns="http://www.w3.org/2000/svg">
  <defs>
    <linearGradient x1="50%" y1="0%" x2="50%" y2="100%" id="a">
      <stop stop-color="#FDDB00" offset="0%"/>
      <stop stop-color="#F7B500" offset="100%"/>
    </linearGradient>
  </defs>
  <g transform="translate(-20.000000, -200.000000) translate(20.000000, 200.000000)" fill="none" fill-rule="evenodd">
    <circle cx="17" cy="17" r="17" fill="url(#a)"/>
    <path d="M11,22 C17.0751322,22 22,17.0751322 22,11 C22,4.92486775 17.0751322,0 11,0 C4.92486775,0 0,4.92486775 0,11 C0,17.0751322 4.92486775,22 11,22 Z M6,8.0093689 C6,7.45190985 6.44386482,7 7,7 C7.55228475,7 8,7.44335318 8,8.0093689 L8,9.9906311 C8,10.5480902 7.55613518,11 7,11 C6.44771525,11 6,10.5566468 6,9.9906311 L6,8.0093689 Z M10,14.0093689 C10,13.4519098 10.4438648,13 11,13 C11.5522847,13 12,13.4433532 12,14.0093689 L12,17 L10,17 L10,14.0093689 Z M14,8.0093689 C14,7.45190985 14.4438648,7 15,7 C15.5522847,7 16,7.44335318 16,8.0093689 L16,9.9906311 C16,10.5480902 15.5561352,11 15,11 C14.4477153,11 14,10.5566468 14,9.9906311 L14,8.0093689 Z" transform="translate(6.000000, 6.000000)" fill="#FFFFFF"/>
  </g>
</svg>
