<svg viewBox="0 0 34 34" xmlns="http://www.w3.org/2000/svg">
  <defs>
    <linearGradient x1="50%" y1="0%" x2="50%" y2="100%" id="a">
      <stop stop-color="#DC43F2" offset="0%"/>
      <stop stop-color="#B620E0" offset="100%"/>
    </linearGradient>
  </defs>
  <g transform="translate(-20.000000, -260.000000) translate(20.000000, 260.000000)" fill="none" fill-rule="evenodd">
    <circle cx="17" cy="17" r="17" fill="url(#a)"/>
    <path d="M0.388213256,3.29221699 C0.388213256,4.53462814 1.15558485,5.32392464 2.66840314,5.65279818 L3.87427279,5.90858871 C4.7220357,6.09129624 5.02898433,6.31054526 5.02898433,6.76365992 C5.02898433,7.28985759 4.50278667,7.63334773 3.68425697,7.63334773 C2.85111066,7.63334773 2.31029639,7.32639909 2.18605528,6.77096822 L0.212814034,6.77096822 C0.322438547,8.28378651 1.59408291,9.16809092 3.65502376,9.16809092 C5.75250612,9.16809092 7.08261689,8.13762049 7.08261689,6.50786939 C7.08261689,5.28007484 6.3590951,4.58578625 4.729344,4.24960441 L3.47962454,3.99381388 C2.69763634,3.83303126 2.3614545,3.56993242 2.3614545,3.13143437 C2.3614545,2.61985331 2.86572726,2.27636316 3.62579056,2.27636316 C4.37123725,2.27636316 4.89743492,2.6052367 4.99244283,3.13874267 L6.87798446,3.13874267 C6.78297655,1.62592438 5.5917235,0.748928272 3.64040716,0.748928272 C1.64524101,0.748928272 0.388213256,1.72824059 0.388213256,3.29221699 L0.388213256,3.29221699 Z M7.75,0.938944096 L10.5563875,9 L12.8365774,9 L15.6283484,0.938944096 L13.5162494,0.938944096 L11.7768738,7.04868366 L11.659941,7.04868366 L9.89864047,0.938944096 L7.75,0.938944096 Z M18.2741,5.43354916 L18.2741,4.27152931 C18.2741,3.17528417 18.9391554,2.48830389 19.9842424,2.48830389 C21.0366378,2.48830389 21.7016932,3.17528417 21.7016932,4.27152931 L21.7016932,5.43354916 C21.7016932,6.52979429 21.0366378,7.21677458 19.9842424,7.21677458 C18.9391554,7.21677458 18.2741,6.52979429 18.2741,5.43354916 L18.2741,5.43354916 Z M19.925776,12.0329449 C22.2790489,12.0329449 23.7334008,10.870925 23.7334008,8.9926917 L23.7334008,0.938944096 L21.7674679,0.938944096 L21.7674679,2.31290467 L21.6213018,2.31290467 C21.358203,1.39936705 20.459282,0.80739468 19.2899539,0.80739468 C17.3605624,0.80739468 16.2277758,2.07173074 16.2277758,4.27152931 L16.2277758,5.49201556 C16.2277758,7.66988923 17.3386375,8.95615019 19.1949459,8.95615019 C20.3935073,8.95615019 21.3289698,8.34956122 21.577452,7.44333191 L21.7309264,7.44333191 L21.7309264,9.0292332 C21.7309264,10.0377787 21.1170291,10.5639764 19.9550092,10.5639764 C19.0707048,10.5639764 18.4275744,10.2351029 18.2887166,9.71621349 L16.3374003,9.71621349 C16.4689497,11.1486405 17.835602,12.0329449 19.925776,12.0329449 L19.925776,12.0329449 Z" transform="translate(5.000000, 12.000000)" fill="#FFFFFF"/>
  </g>
</svg>
