<svg viewBox="0 0 34 34" xmlns="http://www.w3.org/2000/svg">
  <defs>
    <linearGradient x1="50%" y1="0%" x2="50%" y2="100%" id="a">
      <stop stop-color="#A6ABB0" offset="0%"/>
      <stop stop-color="#6D7278" offset="100%"/>
    </linearGradient>
  </defs>
  <g transform="translate(-20.000000, -440.000000) translate(20.000000, 440.000000)" fill="none" fill-rule="evenodd">
    <circle cx="17" cy="17" r="17" fill="url(#a)"/>
    <g transform="translate(9.000000, 9.000000)" fill="#FFFFFF">
      <path d="M4.5,3 C4.5,2.17351943 3.82700299,1.5 3,1.5 C2.17351943,1.5 1.5,2.17299701 1.5,3 C1.5,3.82648057 2.17299701,4.5 3,4.5 L4.5,4.5 L4.5,3 Z M3,0 C4.65685425,0 6,1.34651712 6,3 L6,6 L3,6 C1.34314575,6 0,4.65348288 0,3 C0,1.34314575 1.34651712,0 3,0 Z"/>
      <path d="M13,4.5 C13.827003,4.5 14.5,3.82648057 14.5,3 C14.5,2.17299701 13.8264806,1.5 13,1.5 C12.172997,1.5 11.5,2.17351943 11.5,3 L11.5,4.5 L13,4.5 Z M13,6 L10,6 L10,3 C10,1.34651712 11.3431458,0 13,0 C14.6534829,0 16,1.34314575 16,3 C16,4.65348288 14.6568542,6 13,6 Z"/>
      <path d="M3,11.5 C2.17299701,11.5 1.5,12.1735194 1.5,13 C1.5,13.827003 2.17351943,14.5 3,14.5 C3.82700299,14.5 4.5,13.8264806 4.5,13 L4.5,11.5 L3,11.5 Z M3,10 L6,10 L6,13 C6,14.6534829 4.65685425,16 3,16 C1.34651712,16 0,14.6568542 0,13 C0,11.3465171 1.34314575,10 3,10 Z"/>
      <path d="M6,10 L10,10 L10,6 L6,6 L6,10 Z M11.5,4.5 L11.5,11.5 L4.5,11.5 L4.5,4.5 L11.5,4.5 Z"/>
      <path d="M11.5,13 C11.5,13.8264806 12.172997,14.5 13,14.5 C13.8264806,14.5 14.5,13.827003 14.5,13 C14.5,12.1735194 13.827003,11.5 13,11.5 L11.5,11.5 L11.5,13 Z M13,16 C11.3431458,16 10,14.6534829 10,13 L10,10 L13,10 C14.6568542,10 16,11.3465171 16,13 C16,14.6568542 14.6534829,16 13,16 Z"/>
    </g>
  </g>
</svg>
