<svg xmlns="http://www.w3.org/2000/svg" width="32" height="32" viewBox="0 0 32 32">
  <path fill="#DF1659" fill-rule="evenodd" d="M19.1611791,15.4803629 L20.1914548,14.1624671 C20.2891212,14.0375354 20.4388677,13.9645263 20.5974448,13.9645263 C20.7545409,13.9645263 20.9013768,14.0425583 20.9892819,14.1727578 L31,29 L1,28.994753 L10.1494992,15.4399847 C10.772213,14.5174489 11.812535,13.9645263 12.9255689,13.9645263 C14.0642353,13.9645263 15.1551052,14.4222529 15.9528436,15.2347643 L17.4188763,16.7279457 C16.4801075,18.016549 15.6919727,19.1317038 15.563295,19.8138128 C15.563295,20.1172161 16.7625897,18.6727328 19.1611791,15.4803629 Z M15.9968755,9.55371385 C14.4906444,9.55371385 13.2696028,8.31047266 13.2696028,6.77685692 C13.2696028,5.24324119 14.4906444,4 15.9968755,4 C17.5031067,4 18.7241483,5.24324119 18.7241483,6.77685692 C18.7241483,8.31047266 17.5031067,9.55371385 15.9968755,9.55371385 Z"/>
</svg>
