<svg height="32" viewBox="0 0 32 32" width="32" xmlns="http://www.w3.org/2000/svg"><path d="m19.1611791 15.4803629 1.0302757-1.3178958c.0976664-.1249317.2474129-.1979408.40599-.1979408.1570961 0 .303932.078032.3918371.2082315l10.0107181 14.8272422-30-.005247 9.1494992-13.5547683c.6227138-.9225358 1.6630358-1.4754584 2.7760697-1.4754584 1.1386664 0 2.2295363.4577266 3.0272747 1.270238l1.4660327 1.4931814c-.9387688 1.2886033-1.7269036 2.4037581-1.8555813 3.0858671 0 .3034033 1.1992947-1.14108 3.5978841-4.3334499zm-3.1643036-5.92664905c-1.5062311 0-2.7272727-1.24324119-2.7272727-2.77685693 0-1.53361573 1.2210416-2.77685692 2.7272727-2.77685692 1.5062312 0 2.7272728 1.24324119 2.7272728 2.77685692 0 1.53361574-1.2210416 2.77685693-2.7272728 2.77685693z" fill="#df1659" fill-rule="evenodd"/></svg>