<?xml version="1.0" encoding="utf-8"?>
<!-- Generator: Adobe Illustrator 16.0.0, SVG Export Plug-In . SVG Version: 6.00 Build 0)  -->
<!DOCTYPE svg PUBLIC "-//W3C//DTD SVG 1.1//EN" "http://www.w3.org/Graphics/SVG/1.1/DTD/svg11.dtd">
<svg version="1.1" id="Capa_1" xmlns="http://www.w3.org/2000/svg" xmlns:xlink="http://www.w3.org/1999/xlink" x="0px" y="0px"
	 width="50px" height="50px" viewBox="0 0 50 50" enable-background="new 0 0 50 50" xml:space="preserve">
<path fill-rule="evenodd" clip-rule="evenodd" fill="#FFFFFF" d="M36.21,29.94c-0.63,2.95-1.8,5.69-3.47,8.15
	c-0.5,0.73-1.31,1.13-2.14,1.13c-0.5,0-1.01-0.15-1.45-0.45c-1.18-0.81-1.48-2.41-0.68-3.59c1.3-1.9,2.2-4.03,2.69-6.32
	c0.55-2.52,0.55-5.2,0-7.72c-0.49-2.29-1.39-4.42-2.69-6.32c-0.8-1.18-0.5-2.78,0.68-3.59c1.18-0.8,2.78-0.49,3.59,0.68
	c1.67,2.46,2.84,5.2,3.47,8.15C36.9,23.29,36.9,26.71,36.21,29.94z M22.23,19.75c-0.63,0.63-1.5,0.99-2.39,0.99
	c-0.89,0-1.75-0.36-2.38-0.99c-0.64-0.63-1-1.5-1-2.39c0-0.89,0.36-1.76,1-2.39c1.26-1.26,3.52-1.26,4.77,0
	c0.63,0.63,0.99,1.5,0.99,2.39C23.22,18.25,22.86,19.12,22.23,19.75z M22.31,30.41l-3.5,7.19c-0.45,0.93-1.39,1.47-2.36,1.47
	c-0.38,0-0.77-0.08-1.14-0.26c-1.3-0.64-1.84-2.21-1.21-3.51l3.5-7.19c0.63-1.3,2.2-1.84,3.5-1.21
	C22.4,27.54,22.94,29.11,22.31,30.41z M30.65,0H19.36C8.67,0,0,8.67,0,19.36v11.29C0,41.34,8.67,50,19.36,50h19.35
	C49.4,50,50,49.4,50,38.71V19.36C50,8.67,41.33,0,30.65,0z"/>
</svg>
